# File exported by Houdini 20.5.410 (www.sidefx.com)
# 227 points
# 1104 vertices
# 331 primitives
# Bounds: [-0.0311333537, -0.0163686387, -0.0220149122] to [0.00336664706, 0.0376678817, 0.0125850886]
g 
v -0.0131333526 0.0146678807 0.00778508838
v -0.0291333534 0.0146678807 0.00778508838
v -0.0131333526 0.00856788084 0.00778508838
v -0.0131333526 0.0146678807 -0.0172149111
v -0.0291333534 0.00856788084 0.00778508838
v -0.0291333534 0.0146678807 -0.0172149111
v -0.0131333526 0.00856788084 -0.0172149111
v -0.0291333534 0.00856788084 -0.0172149111
v -0.0221376605 -0.0163686387 -0.0206127595
v -0.024085585 -0.0158658084 -0.0206127595
v -0.0240385998 -0.0158560444 -0.0217134822
v -0.0237919278 -0.0158633664 -0.0217134822
v -0.0201290473 -0.0163686387 -0.0206127595
v -0.0221376605 -0.0163686387 0.011182935
v -0.0242754836 -0.0157876983 -0.0217134822
v -0.024085585 -0.0158658084 0.011182935
v -0.0239916146 -0.0155606912 -0.0220149122
v -0.0238193367 -0.0155655732 -0.0220149122
v -0.0184747782 -0.0158633664 -0.0217134822
v -0.0182281062 -0.0158560444 -0.0217134822
v -0.018181121 -0.0158658084 -0.0206127595
v -0.0201290473 -0.0163686387 0.011182935
v -0.0237919278 -0.0158633664 0.0122836595
v -0.0240385998 -0.0158560444 0.0122836595
v -0.0258475281 -0.0148943178 -0.0217134822
v -0.0241580214 -0.0155118732 -0.0220149122
v -0.0242754836 -0.0157876983 0.0122836595
v -0.0184473712 -0.0155655732 -0.0220149122
v -0.0182750914 -0.0155606912 -0.0220149122
v -0.0179912243 -0.0157876983 -0.0217134822
v -0.018181121 -0.0158658084 0.011182935
v -0.0182281062 -0.0158560444 0.0122836595
v -0.0184747782 -0.0158633664 0.0122836595
v -0.0238193367 -0.0155655732 0.0125850886
v -0.0239916146 -0.0155606912 0.0125850886
v -0.0273099393 -0.013512753 -0.0217134822
v -0.0270789284 -0.0133223608 -0.0220149122
v -0.0256713331 -0.0146502256 -0.0220149122
v -0.0258475281 -0.0148943178 0.0122836595
v -0.0241580214 -0.0155118732 0.0125850886
v -0.0181086864 -0.0155118732 -0.0220149122
v -0.0164191797 -0.0148943178 -0.0217134822
v -0.0179912243 -0.0157876983 0.0122836595
v -0.0182750914 -0.0155606912 0.0125850886
v -0.0184473712 -0.0155655732 0.0125850886
v -0.028382767 -0.0118114259 -0.0217134822
v -0.0273099393 -0.013512753 0.0122836595
v -0.0281106438 -0.0116844978 -0.0220149122
v -0.0256713331 -0.0146502256 0.0125850886
v -0.0270789284 -0.0133223608 0.0125850886
v -0.0165953729 -0.0146502256 -0.0220149122
v -0.0151877776 -0.0133223608 -0.0220149122
v -0.0149567677 -0.013512753 -0.0217134822
v -0.0164191797 -0.0148943178 0.0122836595
v -0.0181086864 -0.0155118732 0.0125850886
v -0.0284884833 -0.0115746567 -0.0217134822
v -0.028382767 -0.0118114259 0.0122836595
v -0.0282124449 -0.0114550507 -0.0220149122
v -0.0281106438 -0.0116844978 0.0125850886
v -0.0141560631 -0.0116844978 -0.0220149122
v -0.0138839409 -0.0118114259 -0.0217134822
v -0.0149567677 -0.013512753 0.0122836595
v -0.0151877776 -0.0133223608 0.0125850886
v -0.0165953729 -0.0146502256 0.0125850886
v -0.0289974883 -0.0098952977 -0.0205145404
v -0.0285570025 -0.0113378866 -0.0217134822
v -0.0282613877 -0.0112915086 -0.0220149122
v -0.0284884833 -0.0115746567 0.0122836595
v -0.0282124449 -0.0114550507 0.0125850886
v -0.0140542621 -0.0114550507 -0.0220149122
v -0.0137782237 -0.0115746567 -0.0217134822
v -0.0138839409 -0.0118114259 0.0122836595
v -0.0141560631 -0.0116844978 0.0125850886
v -0.0310472138 0.00111328694 -0.0217134822
v -0.0297472924 -0.00586288515 -0.0217134822
v -0.0289974883 -0.0098952977 0.0110847168
v -0.0294536352 -0.00580918463 -0.0220149122
v -0.0282613877 -0.0112915086 0.0125850886
v -0.0285570025 -0.0113378866 0.0122836595
v -0.0140053192 -0.0112915086 -0.0220149122
v -0.0137097044 -0.0113378866 -0.0217134822
v -0.0133964699 -0.0104591521 -0.0192139912
v -0.0137782237 -0.0115746567 0.0122836595
v -0.0140542621 -0.0114550507 0.0125850886
v -0.0311333537 0.002028635 -0.0217134822
v -0.0307535566 0.00116698735 -0.0220149122
v -0.0310472138 0.00111328694 0.0122836595
v -0.0297472924 -0.00586288515 0.0122836595
v -0.0294536352 -0.00580918463 0.0125850886
v -0.0128130717 -0.00580918463 -0.0220149122
v -0.0125194145 -0.00586288515 -0.0217134822
v -0.0132692186 -0.0098952977 -0.0205145404
v -0.0133964699 -0.0104591521 0.00978416856
v -0.0137097044 -0.0113378866 0.0122836595
v -0.0140053192 -0.0112915086 0.0125850886
v -0.0311333537 0.00764276925 -0.0217134822
v -0.030831866 0.002028635 -0.0220149122
v -0.0311333537 0.002028635 0.0122836595
v -0.0307535566 0.00116698735 0.0125850886
v -0.0115131494 0.00116698735 -0.0220149122
v -0.0112194922 0.00111328694 -0.0217134822
v -0.0132692186 -0.0098952977 0.0110847168
v -0.0125194145 -0.00586288515 0.0122836595
v -0.0128130717 -0.00580918463 0.0125850886
v -0.0311333537 0.00826764666 -0.0210903045
v -0.030831866 0.00776725635 -0.0220149122
v -0.030831866 0.002028635 0.0125850886
v -0.0311333537 0.00764276925 0.0122836595
v -0.011434841 0.002028635 -0.0220149122
v -0.0111333532 0.002028635 -0.0217134822
v -0.0112194922 0.00111328694 0.0122836595
v -0.0115131494 0.00116698735 0.0125850886
v -0.030831866 0.00856788084 -0.0212122295
v -0.0311333537 0.00826764666 0.0116604799
v -0.011434841 0.00776725635 -0.0220149122
v -0.030831866 0.00776725635 0.0125850886
v -0.0111333532 0.00764276925 -0.0217134822
v -0.0111333532 0.002028635 0.0122836595
v -0.011434841 0.002028635 0.0125850886
v -0.011434841 0.00856788084 -0.0212122295
v -0.030831866 0.00856788084 0.0117824068
v -0.0111333532 0.00826764666 -0.0210903045
v -0.011434841 0.00776725635 0.0125850886
v -0.0111333532 0.00764276925 0.0122836595
v -0.011434841 0.00856788084 0.0117824068
v -0.0111333532 0.00826764666 0.0116604799
v -0.0217805728 0.0276672933 -0.0191803575
v -0.02113159 0.0283156894 -0.0191803575
v -0.02113159 0.0270166472 -0.0191803575
v -0.0269358195 0.0224598739 -0.0191138722
v -0.0280873459 0.0241393968 -0.0191138722
v -0.0287629534 0.0260598157 -0.0191138722
v -0.0289193746 0.0280882996 -0.0191138722
v -0.0285466257 0.0300897695 -0.0191138722
v -0.0278277528 0.0316657275 -0.0191138722
v -0.0276646763 0.0319268852 -0.0191138722
v -0.0263400879 0.0334713273 -0.0191138722
v -0.0246593896 0.0346217789 -0.0191138722
v -0.0227390695 0.035299439 -0.0191138722
v -0.0207089204 0.0354547836 -0.0191138722
v -0.0187087245 0.0350810587 -0.0191138722
v -0.0168716069 0.0342007726 -0.0191138722
v -0.0153273623 0.0328769647 -0.0191138722
v -0.020482609 0.0276672933 -0.0191803575
v -0.0215542614 0.0198798031 -0.0191138722
v -0.0235544574 0.0202557817 -0.0191138722
v -0.0253915749 0.0211338159 -0.0191138722
v 0.00236488506 0.017083602 -0.0190126989
v 0.000950437214 0.0156697407 -0.0190126989
v -0.0195241123 0.0200373996 -0.0191138722
v -0.0282171424 0.0156697407 -0.0190126989
v -0.0296315905 0.017083602 -0.0190126989
v -0.0291190613 0.0280995574 -0.0189144183
v -0.0306333527 0.0366660208 -0.0160122029
v -0.0296315905 0.0177184884 -0.0190126989
v -0.0304303374 0.0365849733 -0.0162145495
v -0.029548388 0.0374675095 -0.0162145495
v -0.0227823351 0.035495311 -0.0189144183
v -0.0206989367 0.0356551558 -0.0189144183
v -0.0296315905 0.0376678817 -0.0160122029
v 0.00228168233 0.0374675095 -0.0162145495
v -0.000627088244 0.0210257508 -0.0190126989
v -0.0141758351 0.0311951917 -0.0191138722
v -0.000610447663 0.0210099909 -0.0190126989
v 0.00236488506 0.0177184884 -0.0190126989
v -0.0140427109 0.0309205242 -0.0191138722
v 0.00336664706 0.0166693497 -0.0180125348
v 0.00136645127 0.0146678807 -0.0180125348
v -0.0286331568 0.0146678807 -0.0180125348
v -0.0306333527 0.0166693497 -0.0180125348
v -0.0306333527 0.0177184884 -0.0180125348
v -0.0306333527 0.0366660208 0.00658401614
v 0.00236488506 0.0376678817 -0.0160122029
v -0.0296315905 0.0376678817 0.00658401614
v 0.00336664706 0.0366660208 -0.0160122029
v 0.00316363224 0.0365849733 -0.0162145495
v 0.00336664706 0.0177184884 -0.0180125348
v 0.00336664706 0.0166693497 0.00858434662
v 0.00136645127 0.0146678807 0.00858434662
v -0.0286331568 0.0146678807 0.00858434662
v -0.0306333527 0.0166693497 0.00858434662
v -0.0304303374 0.0365849733 0.00678347098
v -0.029548388 0.0374675095 0.00678347098
v -0.0306333527 0.0177184884 0.00858434662
v -0.0291290451 0.0274241455 0.00938505679
v -0.028939344 0.0294166096 0.00938505679
v -0.0287429839 0.029373832 0.00958451256
v 0.00236488506 0.0376678817 0.00658401614
v -0.0221799463 0.0353962481 0.00958451256
v -0.022206571 0.0355943702 0.00938505679
v -0.0202030465 0.035612382 0.00938505679
v 0.00336664706 0.0366660208 0.00658401614
v 0.00336664706 0.0177184884 0.00858434662
v 0.00236488506 0.017083602 0.00958451256
v 0.000950437214 0.0156697407 0.00958451256
v -0.0282171424 0.0156697407 0.00958451256
v -0.0296315905 0.017083602 0.00958451256
v -0.0280806907 0.0312086996 0.00958451256
v -0.0269857403 0.0328206792 0.00958162174
v -0.0267827269 0.0330435671 0.00958162174
v -0.0260039475 0.0337595008 0.00958451256
v -0.0257643238 0.033941865 0.00958162174
v -0.0248324517 0.0345317237 0.00958451256
v -0.024063658 0.0348941945 0.00958451256
v -0.0296315905 0.0177184884 0.00958451256
v -0.0289293583 0.0274308994 0.00958451256
v -0.0217805728 0.027694311 0.0103505347
v -0.0217972137 0.0278631635 0.010344753
v 0.00228168233 0.0374675095 0.00678347098
v -0.0202263445 0.0354142599 0.00958451256
v -0.0212713722 0.0283449572 0.010344753
v -0.0211049654 0.0283156894 0.0103505347
v 0.00316363224 0.0365849733 0.00678347098
v 0.00236488506 0.0177184884 0.00958451256
v -0.020482609 0.0276380256 0.0103505347
v -0.0211582165 0.0270166472 0.0103505347
v -0.0213279501 0.0270031393 0.010344753
v -0.021810526 0.0275277086 0.010344753
v -0.0218205098 0.0279442128 0.0103389723
v -0.0213512462 0.028376475 0.0103389723
v -0.000627088244 0.0210257508 0.00958451256
v -0.000610447663 0.0210099909 0.00958451256
v -0.0183326472 0.0349482261 0.00958451256
v -0.0166120138 0.0340251625 0.00958451256
v -0.0209352318 0.0283314474 0.010344753
v -0.0204526559 0.0278068781 0.010344753
v -0.0208520293 0.0283539612 0.0103389723
g 
f 3 1 2 5
f 4 1 3 7
f 2 1 4 6
f 5 2 6 8
f 7 3 5 8
f 6 4 7 8
f 11 9 10
f 12 9 11
f 13 9 12 19
f 14 9 13 22
f 10 9 14 16
f 11 10 15
f 15 10 16 27
f 17 11 15
f 12 11 17
f 18 12 17
f 19 12 18 28
f 20 13 19
f 21 13 20
f 22 13 21 31
f 23 14 22 33
f 24 14 23
f 16 14 24
f 26 15 25
f 17 15 26
f 25 15 27 39
f 27 16 24
f 18 17 26 38 37 48 58 67 77 86 97 106 115 109 100 90 80 70 60 52 51 41 29 28
f 29 19 28
f 20 19 29
f 30 20 29
f 21 20 30
f 31 21 30 43
f 32 22 31
f 33 22 32
f 34 23 33 45
f 35 23 34
f 24 23 35
f 27 24 35
f 37 25 36
f 38 25 37
f 26 25 38
f 36 25 39 47
f 40 27 35
f 39 27 40
f 30 29 41
f 42 30 41
f 43 30 42 54
f 32 31 43
f 44 32 43
f 33 32 44
f 45 33 44
f 35 34 45 44 55 64 63 73 84 95 104 112 119 123 116 107 99 89 78 69 59 50 49 40
f 37 36 46
f 46 36 47 57
f 48 37 46
f 49 39 40
f 50 39 49
f 47 39 50
f 42 41 51
f 52 42 51
f 53 42 52
f 54 42 53 62
f 55 43 54
f 44 43 55
f 48 46 56
f 56 46 57 68
f 57 47 50
f 58 48 56
f 57 50 59
f 61 52 60
f 53 52 61
f 62 53 61 72
f 63 54 62
f 64 54 63
f 55 54 64
f 66 56 65
f 67 56 66
f 58 56 67
f 65 56 68 76
f 68 57 59
f 68 59 69
f 71 60 70
f 61 60 71
f 72 61 71 83
f 63 62 72
f 73 63 72
f 75 65 74
f 66 65 75
f 74 65 76 87
f 77 66 75
f 67 66 77
f 78 68 69
f 79 68 78
f 76 68 79
f 71 70 80
f 81 71 80
f 82 71 81
f 83 71 82 93
f 73 72 83
f 84 73 83
f 86 74 85
f 75 74 86 77
f 85 74 87 98
f 88 76 79
f 87 76 88
f 79 78 89
f 88 79 89
f 81 80 90
f 91 81 90
f 92 81 91
f 82 81 92
f 93 82 92 102
f 94 83 93
f 95 83 94
f 84 83 95
f 97 85 96 106
f 86 85 97
f 96 85 98 108 114 105
f 99 87 88 89
f 98 87 99
f 91 90 100 101
f 92 91 101
f 102 92 101 111
f 94 93 102
f 104 94 103
f 95 94 104
f 103 94 102
f 106 96 105
f 107 98 99
f 108 98 107 116
f 110 100 109
f 101 100 110
f 111 101 110 118
f 103 102 111
f 104 103 111 112
f 106 105 113
f 113 105 114 121
f 115 106 113 120
f 114 108 116
f 110 109 115 117
f 118 110 117 122 126 124
f 112 111 118
f 119 112 118
f 120 113 121 125
f 121 114 116
f 122 115 120
f 117 115 122
f 121 116 123 125
f 119 118 124 123
f 122 120 125 126
f 126 123 124
f 125 123 126
f 129 127 128 144
f 130 127 129
f 131 127 130
f 132 127 131
f 133 127 132
f 134 127 133
f 135 127 134
f 136 127 135
f 137 127 136
f 128 127 137
f 138 128 137
f 139 128 138
f 140 128 139
f 141 128 140
f 142 128 141
f 143 128 142
f 144 128 143
f 146 129 145
f 147 129 146
f 130 129 147
f 148 129 144
f 149 129 148
f 150 129 149
f 145 129 150
f 152 130 151
f 131 130 152
f 151 130 147
f 132 131 152
f 133 132 152
f 154 133 153
f 134 133 154
f 155 133 152
f 153 133 155
f 156 134 154
f 135 134 156
f 136 135 156
f 137 136 156
f 157 137 156
f 138 137 157
f 139 138 157
f 159 139 158
f 140 139 159
f 160 139 157
f 158 139 160
f 161 140 159
f 141 140 161
f 142 141 161
f 162 142 161
f 143 142 162
f 144 143 163
f 164 143 162
f 165 143 164
f 163 143 165
f 166 144 163
f 165 144 166
f 148 144 165
f 149 145 150
f 151 145 149
f 146 145 151
f 147 146 151
f 167 148 165 177
f 168 148 167
f 149 148 168
f 151 149 168 169
f 152 151 169
f 170 152 169
f 155 152 170 171
f 171 153 155
f 154 153 171
f 172 154 171 170 181 184
f 160 154 172 174
f 157 154 160
f 156 154 157
f 159 158 160
f 173 159 160
f 161 159 173
f 173 160 174 188
f 175 161 173
f 176 161 175
f 164 161 176
f 162 161 164
f 166 163 165
f 165 164 176
f 175 165 176
f 177 165 175
f 178 167 177 175 192 193
f 168 167 178 179
f 169 168 179 180
f 170 169 180 181
f 183 172 182
f 174 172 183
f 185 172 184
f 186 172 185
f 187 172 186
f 182 172 187
f 175 173 188 192
f 189 174 183
f 190 174 189
f 191 174 190
f 188 174 191
f 194 178 193 214
f 179 178 194
f 195 179 194
f 180 179 195 196
f 197 180 196
f 181 180 197
f 184 181 197 205
f 198 182 187
f 199 182 198
f 200 182 199
f 183 182 200
f 201 183 200
f 202 183 201
f 203 183 202
f 204 183 203
f 189 183 204
f 206 184 205
f 185 184 206
f 186 185 206
f 187 186 206
f 207 187 206
f 208 187 207
f 198 187 208
f 192 188 209
f 210 188 191
f 209 188 210
f 212 189 211
f 210 189 212
f 190 189 210
f 211 189 204
f 191 190 210
f 214 192 213
f 193 192 214
f 213 192 209
f 195 194 215
f 215 194 214
f 216 195 215
f 196 195 216
f 217 196 216
f 197 196 217
f 218 197 217
f 207 197 218
f 205 197 207
f 219 198 208
f 199 198 219
f 200 199 219
f 201 200 219
f 220 201 219
f 203 201 220
f 202 201 203
f 204 203 220
f 211 204 220
f 206 205 207
f 216 207 218
f 212 207 216 215
f 208 207 212
f 211 208 212
f 220 208 211
f 219 208 220
f 222 209 221
f 213 209 222
f 223 209 210
f 224 209 223
f 221 209 224
f 225 210 212
f 223 210 225
f 226 212 215
f 225 212 226
f 214 213 222
f 226 214 222
f 215 214 226
f 217 216 218
f 227 221 224
f 222 221 227
f 226 222 227
f 227 223 225
f 224 223 227
f 227 225 226
