# File exported by Houdini 20.5.410 (www.sidefx.com)
# 902 points
# 5218 vertices
# 1711 primitives
# Bounds: [-0.0244314149, -0.0140507575, -0.0173000004] to [-0.00328642409, 0.0434118249, 0.0173000004]
g 
v -0.012762581 0.0331007242 0.0120165655
v -0.0110781565 0.0331123248 0.0119735729
v -0.0122040203 0.0351199806 0.0118505349
v -0.0125657441 0.0135021778 0.0119699631
v -0.0106716165 0.0135359494 0.0118912915
v -0.0190929566 0.0350996926 0.011849612
v -0.00872606784 0.0134300403 0.0112375403
v -0.00396420388 0.0134074586 -0.00344479899
v -0.0038199462 0.0134663191 0.00364981405
v -0.00401993562 0.01345078 0.0055828332
v -0.00467495108 0.013433978 0.00746440422
v -0.00572611345 0.0134437373 0.00912467763
v -0.00697077904 0.013463716 0.0103399158
v -0.0228804648 0.0135005163 0.0100563774
v -0.00785534643 0.0343067385 0.0109357247
v -0.00989605114 0.0353877023 0.0115452418
v -0.0115515962 0.0373516567 0.0111694513
v -0.00752598885 0.0321208648 0.0107831312
v -0.0204943679 0.0358847752 0.0116959782
v -0.0214532372 0.0134573421 -0.0114132976
v -0.0198039375 0.013435089 -0.0118544912
v -0.0180205293 0.0135346986 -0.0119645922
v -0.0118678948 0.0134926112 -0.0119379051
v -0.0101459287 0.013465384 -0.0117760347
v -0.00854772329 0.013434791 -0.0112236328
v -0.00684642373 0.0134474495 -0.0102085322
v -0.0054575298 0.0134377768 -0.00877571944
v -0.00442673266 0.013442752 -0.00696376944
v -0.0230078232 0.0134104192 0.00804806966
v -0.00388684403 0.0327572338 -0.00542352535
v -0.00376234762 0.0332069732 -0.00361878169
v -0.00386450323 0.0323963128 0.00523804687
v -0.00443323515 0.032213673 0.00721394084
v -0.00637889514 0.0334931426 0.00988942664
v -0.0216691084 0.0348005593 0.0113855824
v -0.0227089487 0.0150553063 0.0106866062
v -0.00964513607 0.0378339998 0.010559909
v -0.0130771603 0.0387975685 0.0104572438
v -0.0219005682 0.0367471613 0.0112399831
v -0.0232509896 0.0159725528 -0.0101900762
v -0.0205756035 0.032519985 -0.0118547902
v -0.012422001 0.0318840258 -0.0120338621
v -0.007608396 0.032490477 -0.0108841592
v -0.00586787192 0.0322417617 -0.00944242254
v -0.00484180544 0.0318656415 -0.00792841054
v -0.00430620741 0.0334485061 -0.0067990683
v -0.00396610284 0.0345772095 -0.00526517117
v -0.00396721065 0.0352097191 -0.00360541954
v -0.00380916568 0.0341470242 0.00377829606
v -0.00511574 0.0340470932 0.00835853629
v -0.00636546127 0.0354659334 0.00956014078
v -0.0230608899 0.0361858793 0.010342055
v -0.0238291249 0.0144707877 0.00877019018
v -0.0112493755 0.0392875522 0.010006276
v -0.0127880936 0.0402628779 0.00926306378
v -0.0212503988 0.0401611701 0.00932309404
v -0.0203565191 0.0381849036 0.0108532244
v -0.0219270661 0.0366703644 -0.0112188142
v -0.0214854851 0.034544915 -0.0115006296
v -0.0120964209 0.0341052711 -0.0119839627
v -0.0100266505 0.03275856 -0.011827074
v -0.00832297839 0.034655109 -0.0111309607
v -0.00650133938 0.0344029702 -0.00990039296
v -0.00514028408 0.0340712965 -0.00838745758
v -0.00508466549 0.0378584564 -0.00565436948
v -0.00417113211 0.0360482298 0.00420860155
v -0.00416976167 0.0347220153 0.00612570066
v -0.024260357 0.0147478795 0.00697104167
v -0.0243401825 0.0167117193 0.00784342736
v -0.0242184922 0.0143642658 0.00527933426
v -0.00799303316 0.0365774594 0.0104401
v -0.0213161148 0.0417467654 0.00745685073
v -0.023117274 0.0411524847 0.00815276522
v -0.0242426153 0.016795449 -0.0083303852
v -0.0193473231 0.0342447236 -0.0119243944
v -0.0103372019 0.035303086 -0.011650688
v -0.00594847463 0.0362675637 -0.00874440931
v -0.00466883741 0.0359337106 -0.00688843522
v -0.00434783846 0.0365924425 -0.00461241137
v -0.00478776079 0.0372531302 0.00566908903
v -0.00525342533 0.0364072435 0.00774574094
v -0.0243618526 0.0151748452 -0.00677199848
v -0.0243964475 0.0168238152 -0.00589197502
v -0.0067785359 0.0376458503 0.00885948259
v -0.00822679047 0.0384009555 0.0095291622
v -0.0114214318 0.04093026 0.00848662481
v -0.0136644337 0.0416366346 0.00770308357
v -0.0214443188 0.0427293219 0.00566762313
v -0.0231889486 0.0397762097 0.009328641
v -0.0225915164 0.0384601578 0.0104724467
v -0.0243758932 0.0373542942 -0.00729041407
v -0.0240619034 0.0383756272 -0.00869542453
v -0.0232505612 0.0375025421 -0.0102272015
v -0.0201858431 0.0359714888 -0.0117045473
v -0.0205401797 0.0378988311 -0.0109413536
v -0.00903296191 0.036417488 -0.0109748263
v -0.00746374857 0.0364175998 -0.0101415664
v -0.00526198233 0.0386441574 -0.00355415605
v -0.00490575144 0.0380231589 0.0033213736
v -0.00603629835 0.0385311991 0.00706831645
v -0.00958733261 0.0397281647 0.00914844777
v -0.00975259673 0.0412079878 0.00739755016
v -0.0117079737 0.0421712063 0.00659864303
v -0.0137478486 0.0427453592 0.0055953376
v -0.0243947059 0.0393378101 -0.00749321375
v -0.0219915323 0.0384889692 -0.0105654718
v -0.0122355819 0.0361670144 -0.0116321016
v -0.0106194401 0.0373310633 -0.011060507
v -0.00588429533 0.0380689166 -0.00734695187
v -0.00688731018 0.0406218506 -0.0036895799
v -0.0061077904 0.0398295783 0.00344434939
v -0.0242430698 0.0397134498 0.00811389834
v -0.0244226959 0.0386773311 0.00671952637
v -0.0244264677 0.0394984446 0.00461047562
v -0.00695357099 0.0399885289 0.00624901662
v -0.00781850331 0.0397348553 0.00793043431
v -0.0213578846 0.0432089828 0.00401780847
v -0.0232537054 0.0422386751 0.00630030874
v -0.0222350154 0.0433903858 0.00209138216
v -0.0242792591 0.0409267992 -0.00623704633
v -0.0231658854 0.0395196155 -0.00956151728
v -0.0126200141 0.0380479619 -0.0108576929
v -0.00889948197 0.0380610824 -0.0101542939
v -0.00725696795 0.0382211618 -0.00892551895
v -0.0061992011 0.0395360924 -0.00559180789
v -0.00578553136 0.0392126776 0.00513620675
v -0.00831634179 0.0411681049 0.00606014673
v -0.0100271758 0.0422538295 0.00539956335
v -0.0118909515 0.0429568253 0.00451539643
v -0.0139050605 0.0432745777 0.00357638393
v -0.0240406375 0.0425479822 0.00259304512
v -0.0231794026 0.0429739654 0.00429263059
v -0.0242300425 0.0408268571 0.00659685535
v -0.021757409 0.0433824025 -0.00255850563
v -0.0243556313 0.0417875424 -0.00183081138
v -0.0241848808 0.041950468 -0.00400083512
v -0.0238967501 0.0405097827 -0.0079864664
v -0.0211273786 0.0398422256 -0.00971914735
v -0.00905991532 0.0397765525 -0.0088063851
v -0.00745115522 0.039838329 -0.00735322572
v -0.00789203774 0.0410744138 -0.00554809347
v -0.00846581347 0.0418111496 -0.00391015271
v -0.00740478421 0.0411128402 0.00239413232
v -0.00710422965 0.0407231748 0.00461768126
v -0.0242446512 0.0417310297 0.00462377816
v -0.00862684194 0.0418757088 0.00403483072
v -0.0141515126 0.0433989577 -0.00168860902
v -0.021512704 0.0430627465 -0.00464269891
v -0.0231438316 0.0430227108 -0.00390778761
v -0.0235794708 0.0430477522 -0.00206992077
v -0.0233058799 0.0422514975 -0.00613168953
v -0.0225840621 0.0411920026 -0.00825331826
v -0.0207604021 0.041240871 -0.0082023181
v -0.0130973477 0.0398850664 -0.00964445993
v -0.0108386483 0.0392348915 -0.0100253103
v -0.00937876105 0.0412430055 -0.0071026599
v -0.00811898429 0.0416683331 -0.00181284919
v -0.00902721751 0.0421777181 0.00228008139
v -0.0120847812 0.0432549603 0.00235878979
v -0.0141554559 0.0434118249 0.00156160025
v -0.0138499588 0.0432567075 -0.00365455472
v -0.0156600755 0.0429384373 -0.00482405862
v -0.0136362202 0.042721089 -0.00564117171
v -0.0212307386 0.0422784835 -0.00666581187
v -0.0115334401 0.0421788543 -0.00652616378
v -0.00976969581 0.0422096029 -0.00519087911
v -0.0117548546 0.0429448858 -0.00445795013
v -0.0120190764 0.043248333 -0.00233344012
v -0.010266345 0.0427218042 0.003301644
v -0.0100101326 0.0426456407 -0.0031443357
v -0.0137566961 0.0415776893 -0.00781488605
v -0.0243845377 0.0278521236 9.63421771e-05
v -0.0147824287 0.0133872237 -0.000375092059
v -0.01348837 0.0133872321 0.0015127575
v -0.0167648364 0.01338722 -0.0010913522
v -0.0243743341 0.0275500659 0.00731979497
v -0.0120591726 0.0133874137 0.00308216643
v -0.0232691672 0.0229434483 -0.0101258438
v -0.0224195793 0.0247639231 -0.0109034749
v -0.024292605 0.0257930327 0.00797001459
v -0.0243969038 0.026408175 -0.00703052618
v -0.0207424816 0.0246235784 0.0117943622
v -0.0237304755 0.026398709 0.00952364039
v -0.0222967006 0.0257597845 0.0109844785
v -0.0205868259 0.0271066129 0.0118378447
v -0.0205078311 0.0240846425 -0.0118540339
v -0.0217638258 0.0133963292 -0.00112993806
v -0.0149666797 0.0234796684 -0.0119997011
v -0.01574062 0.0236614589 0.0120002115
v -0.00431169476 0.0236915797 0.00680313632
v -0.00868860725 0.0247008856 -0.0113789337
v -0.00866006874 0.022791639 -0.0113451332
v -0.0050365366 0.0240234658 0.00825896114
v -0.0116605638 0.0227616299 -0.0119900573
v -0.0040120678 0.0230379347 -0.00595699809
v -0.00596620049 0.0233629365 0.00948803779
v -0.00377581455 0.0234546494 -0.00367418746
v -0.0116295991 0.0235415734 0.0120079517
v -0.00722976215 0.0234874524 -0.0105643272
v -0.00729953917 0.0223403871 0.0106211873
v -0.0192223545 0.0230876915 0.0119994413
v -0.00492846686 0.0229391251 -0.00811997242
v -0.0187962446 0.0224802811 -0.0120322751
v -0.01293376 0.013387274 0.00675953645
v -0.0138894273 0.0133871678 0.00819644798
v -0.0146379145 0.013387532 0.0094543295
v -0.0235243682 0.0135880085 0.00186107354
v -0.024384547 0.0345043428 -0.002431361
v -0.0243847575 0.0213607922 -0.00423989771
v -0.0243467931 0.014822091 -0.000221069407
v -0.0243852343 0.0342749879 0.00405720808
v -0.00993614085 0.0133880991 -0.00593123538
v -0.00866165385 0.0133880218 -0.00388754159
v -0.0200142339 0.0133873541 0.00407856237
v -0.0243881829 0.0334275216 -0.00573435845
v -0.0243976358 0.020115789 0.00625943858
v -0.0243891217 0.032723289 0.00551987253
v -0.0150174713 0.0133879343 -0.00641851034
v -0.00961934309 0.0133878523 -0.00208939519
v -0.0242983736 0.0218505692 0.00792927667
v -0.0243154205 0.0218351241 -0.00765379705
v -0.0235075951 0.0311042499 -0.00983237103
v -0.0243038908 0.0201092064 -0.00783955399
v -0.00850960054 0.013387966 -0.000417526986
v -0.022854222 0.0194380991 -0.010462963
v -0.0236752722 0.0204602592 0.00947889127
v -0.0211188756 0.0206132364 0.0116086211
v -0.0170582794 0.0134709375 0.0119525399
v -0.0203305408 0.0191662591 -0.0118740713
v -0.020514518 0.0187608786 0.0118483678
v -0.022353746 0.0215432532 0.0109851183
v -0.0037861506 0.0185040273 0.00174885383
v -0.00378641253 0.0185446572 -0.00204979721
v -0.017148504 0.0284534935 -0.0119987382
v -0.0169622861 0.0194936842 -0.0119973673
v -0.0139245428 0.0187304392 0.0120000634
v -0.0134437541 0.0294177644 0.0120050693
v -0.0167208891 0.0283486228 0.0119988006
v -0.0180342533 0.0191735458 0.0120082581
v -0.0217769537 0.0133751519 -0.00662680855
v -0.0197041668 0.0294134766 0.0119770532
v -0.0174159966 0.0424309298 -0.00628277287
v -0.0237618815 0.0209914111 -0.00941888522
v -0.0170751344 0.0407524407 0.00878160261
v -0.00631703343 0.0187643729 0.00979358796
v -0.00552946702 0.01870149 -0.00895971432
v -0.00393174076 0.0187483337 -0.00547299301
v -0.00852890685 0.0192322172 0.011298826
v -0.00830874965 0.01894591 -0.0112012206
v -0.00750128319 0.018519951 0.0107202539
v -0.0106796809 0.0190146454 -0.011924454
v -0.0103596058 0.0190494955 0.0118755363
v -0.00386259868 0.0293121804 0.00506827515
v -0.00970370416 0.0282929521 -0.011666853
v -0.00712167518 0.0273710117 0.0105053419
v -0.0079382956 0.0283251666 -0.0110324854
v -0.00521252211 0.0285250805 -0.00856662821
v -0.0115928575 0.0279980097 -0.0120163569
v -0.0174568482 0.0402584672 -0.00924277864
v -0.00897250045 0.0287951641 0.0115095256
v -0.00397579093 0.0293445364 -0.00579128973
v -0.00633671228 0.0283169299 -0.00983170792
v -0.00453442708 0.0187183209 -0.00737395417
v -0.00379112083 0.0177076366 -0.00396909053
v -0.0112209618 0.0291357134 0.01198103
v -0.0121399751 0.0276517924 0.0120026879
v -0.00446018018 0.0277774595 -0.00723297289
v -0.0185305011 0.0182021409 -0.0120178452
v -0.00390359317 0.0189361442 0.00527055375
v -0.0184960607 0.0277904067 0.0120124463
v -0.00854008831 0.0133879567 0.00512666488
v -0.0165902041 0.0391335823 0.0101901274
v -0.0169511065 0.0387432612 -0.0104661314
v -0.0179512724 0.0413649827 -0.00800946169
v -0.0174840149 0.041916918 0.00720612193
v -0.0176768824 0.0427038521 0.00553580746
v -0.00836229883 0.013388155 0.00707568368
v -0.00869296677 0.013387939 0.00306253741
v -0.0181266293 0.0433860272 -0.000126008221
v -0.0161381606 0.0372773223 0.0112186391
v -0.0096299639 0.0133873206 0.00881557167
v -0.0178832095 0.0133864414 0.00884970557
v -0.0244085975 0.0407996476 0.00122134539
v -0.0178549364 0.0432296433 0.0037471801
v -0.0177527778 0.0431625955 -0.00407633744
v -0.0164934322 0.0366660729 -0.0114676235
v -0.0179855991 0.0433828756 -0.00210403814
v -0.018022418 0.0433897898 0.00183239498
v -0.0158449002 0.0352294967 0.0118188607
v -0.015270994 0.0348087475 -0.0118988641
v -0.0156477857 0.0333227068 0.0120051876
v -0.00383719569 0.0342978463 0.000139725278
v -0.00383026968 0.0134417219 -0.000195855377
v -0.00422748737 0.0363116525 -0.000406809355
v -0.00501583284 0.0382022448 -0.001181058
v -0.0149829695 0.0153343547 -0.011996829
v -0.00572018977 0.0393279493 1.22260853e-05
v -0.016926989 0.0133884568 -0.00891924184
v -0.0243839547 0.0183911175 0.00477179186
v -0.0243845377 0.031294588 -0.000637957943
v -0.0243839603 0.0310135111 0.00493116025
v -0.0243845303 0.0183700118 0.00151437079
v -0.0243845116 0.0241828337 -0.00159432599
v -0.0243901014 0.0368004926 -0.0053145038
v -0.0243854988 0.0246425029 -0.00580131076
v -0.0243841168 0.0305705741 -0.00460461853
v -0.0243303962 0.0147907184 0.0035754235
v -0.0244078711 0.0156431682 -0.00244543259
v -0.0243845396 0.0209537055 -0.000646817265
v -0.0243846439 0.0274357125 -0.00362614566
v -0.00696014799 0.0406727865 0.000190651946
v -0.0243852679 0.0360258035 0.00475131115
v -0.0243845265 0.0374284424 -0.00105222152
v -0.0136667937 0.0133874835 -0.00224207412
v -0.00832217 0.0133883413 -0.00725237001
v -0.0152165499 0.0133870188 0.0019357946
v -0.00755862286 0.0133882808 -0.00543940812
v -0.0181397628 0.0133869937 0.000487422833
v -0.0213811025 0.0133884223 0.00705777807
v -0.0173025168 0.0133868158 0.00235497416
v -0.0193055384 0.0135511765 0.0119748991
v -0.0243845377 0.0341138057 -0.000191920408
v -0.024384534 0.0278322045 0.00396175589
v -0.0243130438 0.0297996346 0.00792382658
v -0.0243969914 0.0181234088 0.00646654563
v -0.0242599063 0.0310728606 -0.00802829396
v -0.0243933294 0.0305155013 -0.00645332737
v -0.0128055383 0.0133856293 -0.009986246
v -0.0192286223 0.0133876512 -0.00371119613
v -0.0161474328 0.0133877071 -0.00471754372
v -0.0063287355 0.0133886002 -0.00363527052
v -0.0243845377 0.0201472398 0.00120424945
v -0.0243845377 0.0228313934 -0.000517783395
v -0.024385117 0.0168154668 -0.00400787685
v -0.0243848544 0.0170096867 0.00299686403
v -0.0243846085 0.0292318258 -0.00326129608
v -0.0228804555 0.0270287562 -0.0105749462
v -0.019629851 0.0133876139 0.00995183922
v -0.0227441732 0.0211939793 -0.0106208222
v -0.0214340296 0.0286903027 -0.0115136923
v -0.00754446443 0.0133880982 -0.00210699113
v -0.0163599867 0.0133867487 0.00541998958
v -0.0218154192 0.0325300284 0.0113077741
v -0.0232597142 0.0246171374 0.0100964848
v -0.0201119203 0.016897317 -0.0119223287
v -0.0229747891 0.0320360102 0.0104344925
v -0.0151042994 0.0133879744 -0.009974638
v -0.0225009676 0.0194253009 0.0108743357
v -0.0224067643 0.017178148 0.0109540615
v -0.0196172446 0.0209256541 0.0119803874
v -0.0243845563 0.0358426534 -0.000912919117
v -0.0243845377 0.0325089656 0.000872933364
v -0.0243845619 0.038724713 -0.00198730617
v -0.024384493 0.0296971239 0.00338355592
v -0.00378652639 0.0204428788 0.000707142288
v -0.00378325977 0.0311554298 -0.00275431201
v -0.00378643 0.0257174075 -0.00100980641
v -0.00377801131 0.0165710561 -0.00239781686
v -0.00378698227 0.025501769 0.00106702151
v -0.00378624862 0.0309457947 -0.000687113556
v -0.0201088451 0.0133874565 -0.00813202374
v -0.0174379591 0.0213444084 -0.0119932573
v -0.0182939209 0.0159742404 -0.0119977202
v -0.0143700428 0.0255741477 -0.0120000755
v -0.016756814 0.0151526453 -0.0120001109
v -0.0129587846 0.0153414672 -0.0120130489
v -0.0144427968 0.0206278134 0.0120002907
v -0.0147896763 0.0250188429 0.0120000103
v -0.0136643173 0.0153723406 0.0120017892
v -0.014315987 0.0318271853 0.0120092174
v -0.0172823295 0.0266513079 0.0120005598
v -0.0231775548 0.013456245 -0.000192100983
v -0.0204653703 0.0214800239 -0.0118426466
v -0.0219912939 0.0133981621 -0.00290755695
v -0.0216457509 0.0133883851 -0.00905152597
v -0.0232827961 0.0177589022 -0.0100333374
v -0.0206837282 0.0309938509 0.0117540536
v -0.0193478223 0.0259545874 -0.0120054977
v -0.00972598977 0.0170974806 -0.0117296996
v -0.0193853155 0.0419231765 -0.00723901251
v -0.00874230079 0.0172623396 0.0114050442
v -0.00811396167 0.0167716146 -0.0110770613
v -0.00464764098 0.0170309711 0.00762225594
v -0.00519058434 0.0169931706 -0.00850678142
v -0.00413109967 0.0304269437 0.0061396407
v -0.00885954686 0.0304160099 -0.0114019439
v -0.0200909749 0.0303920563 -0.0119439634
v -0.00409973785 0.0149783241 -0.00613047974
v -0.0056343032 0.016895432 0.00910073891
v -0.00658418564 0.0174404196 -0.0100920862
v -0.0187731814 0.0315093957 0.0120420167
v -0.0124431346 0.0432910994 3.96819541e-06
v -0.0229630694 0.0134239709 -0.00812545698
v -0.00698718475 0.0303394571 -0.0104285683
v -0.00385285309 0.01524588 0.00470929779
v -0.00381029118 0.0307740122 0.00466218265
v -0.010904137 0.0152774081 -0.0119354809
v -0.00382742006 0.0157929789 -0.00440041628
v -0.011639406 0.0153162265 0.0119792074
v -0.0147483526 0.0401811264 0.00936168246
v -0.00701127294 0.029882757 0.0104434984
v -0.00571661908 0.025857741 0.00924357586
v -0.00694566313 0.0168463662 0.010375292
v -0.00408082595 0.0168710724 -0.00624791812
v -0.00441467436 0.0253350623 -0.00712692551
v -0.00881874375 0.0209827237 0.0114349434
v -0.00982075371 0.0251929127 0.0117677515
v -0.0236465223 0.0136898356 -0.00232752296
v -0.0236138925 0.0137005728 -0.00648413133
v -0.00764604099 0.0213523116 -0.0107913157
v -0.00726261223 0.020299105 0.0105902916
v -0.00756242964 0.0248594116 0.0107942997
v -0.00447567739 0.0218074378 -0.00722562801
v -0.010234559 0.0309498943 0.0118480921
v -0.00403638138 0.0171198882 0.00587809179
v -0.00398592371 0.0213066489 0.00580193009
v -0.00414706115 0.0313858688 -0.00638920721
v -0.00380940526 0.0251162518 -0.00472001312
v -0.0126440991 0.0216657408 0.0120197302
v -0.00552829634 0.0301666055 -0.00898880139
v -0.00576562621 0.029938383 0.00923563913
v -0.00873641204 0.0266366173 -0.0113784187
v -0.00969281048 0.0212298837 -0.0117227733
v -0.00650105905 0.0198669564 -0.00999734271
v -0.00487148669 0.0217064898 0.00800644513
v -0.00461908476 0.0257560629 0.00750754867
v -0.00483417837 0.0297747031 0.00795011315
v -0.00461363327 0.0298085436 -0.00749335624
v -0.00379379676 0.0255624931 0.00408859132
v -0.00377971935 0.0196943302 0.00380024919
v -0.0115536256 0.0245269984 -0.0119748563
v -0.0120000076 0.0207532272 -0.0120062642
v -0.0193002168 0.0406278633 -0.00887206756
v -0.0104088504 0.0271716584 0.0118741198
v -0.0060386816 0.0209574774 0.00952147786
v -0.00709360745 0.0260693133 -0.0104730409
v -0.0191393737 0.0171312355 0.0120090786
v -0.0198836606 0.0147813493 -0.0119481897
v -0.0118305441 0.0258650836 0.0120039787
v -0.0121549089 0.0312012061 0.0120116174
v -0.00380126643 0.0311275907 -0.00464629009
v -0.00510878954 0.0207088683 -0.0083787404
v -0.00544348732 0.0267020948 -0.00889564678
v -0.00380809116 0.0218056869 -0.00436797272
v -0.0108316028 0.0213577487 0.0119309202
v -0.0176841971 0.0297498126 0.0120061347
v -0.0086549744 0.030854119 0.0113583067
v -0.0188127086 0.0203311928 -0.0120144365
v -0.00406472245 0.0206224453 -0.00606012251
v -0.00389132742 0.0271739401 -0.00530204643
v -0.0103861326 0.0259889849 -0.0118620815
v -0.00400935765 0.0257104021 0.00577154476
v -0.0178319551 0.0214876719 0.0120148798
v -0.0124196867 0.0197867397 0.0120143397
v -0.00378585188 0.0266175848 -0.00316609745
v -0.0124221956 0.026019685 -0.0120094828
v -0.00529500376 0.0133899422 0.00435642386
v -0.0104885371 0.0133876763 0.00647542253
v -0.0152618606 0.0133869126 0.00685337652
v -0.0195025746 0.0422931612 0.00651602773
v -0.0192333609 0.0412156284 0.00822894927
v -0.0195453502 0.0428043008 -0.00530011393
v -0.0190086998 0.0391015895 -0.0102069629
v -0.0187701937 0.0396904685 0.00975196436
v -0.0157160927 0.0414646007 0.00786326826
v -0.0148111256 0.0383442268 0.0106947673
v -0.0161993317 0.0414255112 -0.0079509737
v -0.00633881288 0.0133886244 0.00586466677
v -0.00696619088 0.0133881504 0.00374103617
v -0.00675170822 0.013388196 -0.000431088003
v -0.0103995949 0.0133876735 0.00215909723
v -0.0161629077 0.0433868431 0.000804624695
v -0.0162167717 0.043384064 -0.00106565352
v -0.0200694203 0.0433929898 0.000861012028
v -0.015342542 0.0423158966 -0.00649107993
v -0.0156707466 0.0423575416 0.00639504241
v -0.0196663607 0.0429850519 0.00477654673
v -0.018153131 0.0379711613 0.0108694201
v -0.0157954991 0.043028906 0.00459245918
v -0.0197922103 0.0432596877 -0.00327214994
v -0.0199040528 0.0433039255 0.00291354815
v -0.0141728381 0.0366034955 -0.0114889611
v -0.0116644772 0.0133875264 0.00831090938
v -0.0161212776 0.0133866807 0.00837673154
v -0.00654310593 0.0133926561 0.00767435879
v -0.01920701 0.03670552 0.0114267394
v -0.0244136732 0.0407449976 0.0030365577
v -0.0183858313 0.0357429124 -0.0117129274
v -0.0199857019 0.0433983542 -0.001243092
v -0.0186165906 0.0373494104 -0.0111817271
v -0.0145959305 0.0433984324 -8.49142743e-05
v -0.0139141986 0.0366694517 0.0114355087
v -0.00773202674 0.0133892857 0.00910849031
v -0.0128233302 0.013387762 0.00945117138
v -0.0159700066 0.0433472358 0.00269897864
v -0.0159416813 0.0433568954 -0.00291457796
v -0.00391440699 0.0347609408 -0.00191890635
v -0.0135700889 0.0350183286 -0.0118584549
v -0.0176997557 0.0360531956 0.0115837576
v -0.0141037013 0.0342076197 0.0119399196
v -0.00380719686 0.0337289758 0.00192737998
v -0.0238776021 0.0428300574 0.000169048581
v -0.0220077932 0.043410264 -0.000424708182
v -0.0138755515 0.0133871362 0.0035006071
v -0.0037687812 0.024152901 0.00265043275
v -0.00378634804 0.023675153 -0.00159908086
v -0.0090719033 0.0133878794 0.00120538066
v -0.00378643489 0.0190018117 -0.000231874583
v -0.00383368111 0.0134380143 0.00172091869
v -0.0037878463 0.0222630259 0.00163945078
v -0.00378577434 0.0203461219 -0.00143514434
v -0.00378744444 0.0147389667 0.000913572614
v -0.0037864605 0.027222978 0.000504792901
v -0.00378405768 0.0218836721 -0.00250762887
v -0.00378593639 0.0172872916 -0.000397667871
v -0.00378990732 0.014690116 -0.00299046701
v -0.0139925862 0.0332915597 -0.0120019838
v -0.00487637473 0.0379123539 0.000929936301
v -0.00433550682 0.0366951525 -0.00254042633
v -0.0150763243 0.0291164629 -0.0120002432
v -0.0186088178 0.0133872731 -0.00153889472
v -0.0168727189 0.0230412651 -0.0119979111
v -0.0173004046 0.034426108 -0.0119547872
v -0.0139987385 0.0229188167 0.0119994767
v -0.0150080044 0.028297456 0.0120000811
v -0.0157743208 0.0187432878 0.0120000076
v -0.0156711452 0.0269989185 -0.0120000951
v -0.0139335385 0.0134525038 -0.0119301537
v -0.0155059937 0.0212872811 -0.0120003354
v -0.0163063779 0.0249851346 -0.0120000364
v -0.0135094859 0.0221815985 -0.012000219
v -0.0130739985 0.0240991488 -0.0120081091
v -0.0166002698 0.0306010377 -0.0120001296
v -0.0164506156 0.0172805842 -0.0119996313
v -0.0181659684 0.0153150139 0.0119981989
v -0.0131831961 0.0247954596 0.0119999759
v -0.0166549999 0.0251163114 0.0120007703
v -0.0156420637 0.0267084036 0.0120000271
v -0.0156146586 0.0300292913 0.0120004127
v -0.0243870076 0.0405986086 -0.000816290034
v -0.0240523443 0.0145629253 -0.00842728
v -0.00588790234 0.0395626873 0.00171585777
v -0.0155520048 0.0133881606 -0.00808585342
v -0.0199640412 0.0133872861 -9.28658337e-05
v -0.0178774018 0.013387721 -0.00490200007
v -0.0186466519 0.013380616 -0.00993108749
v -0.0122748343 0.0133873839 0.00502937613
v -0.0160701256 0.0133765666 0.0102731511
v -0.0243845452 0.0294831246 -0.0014444422
v -0.00624814676 0.0399607122 -0.00166058121
v -0.0243845377 0.0261348393 0.00123273651
v -0.0243850909 0.0366285183 -0.00303164171
v -0.0243845284 0.0328772143 -0.00160263572
v -0.024384547 0.0362096429 0.00260126474
v -0.0243845377 0.0297116879 0.000192158535
v -0.0243867133 0.0291515701 0.00565711409
v -0.024384588 0.0311156567 -0.00267737219
v -0.0243846774 0.0200318005 -0.00248301681
v -0.0243849084 0.0205176827 0.004537364
v -0.024389524 0.0189212188 -0.00462005846
v -0.0243845284 0.0349478833 -0.00458932063
v -0.0243836083 0.0167881045 -0.000969788874
v -0.0243845377 0.022194678 0.00114545994
v -0.0243853051 0.0283823907 -0.00544063607
v -0.0243834779 0.0168161038 0.00077621371
v -0.0243845377 0.0258566793 -0.000674628885
v -0.0243845843 0.0222165771 -0.00234903465
v -0.024384493 0.0257674828 -0.00276452256
v -0.0243286267 0.0147606311 -0.00465087546
v -0.0230776649 0.0134519767 0.00612311345
v -0.024397457 0.0153140975 0.00179504743
v -0.0232564397 0.0134843644 0.0041651153
v -0.0230972394 0.0134401303 -0.00454309117
v -0.0243954808 0.0162855405 0.00542831328
v -0.0243845377 0.0243376549 0.000861060398
v -0.0243845396 0.0275701694 -0.00178598415
v -0.024384506 0.0187991783 -0.000513866078
v -0.0243839156 0.0328358859 -0.00394197088
v -0.0243845545 0.0192327686 0.00303235836
v -0.0243829694 0.0238233488 -0.00392062915
v -0.00714921113 0.0133896824 -0.00852672197
v -0.0243822802 0.0377261005 0.0053517418
v -0.024385415 0.0389725901 0.000164302168
v -0.0243845377 0.0354236178 0.000914375705
v -0.0243845358 0.0291117057 0.00151048403
v -0.0243848227 0.0377071276 0.00376746082
v -0.0243839789 0.0224058237 0.00418866426
v -0.0243847165 0.032158725 0.00325995265
v -0.0243845358 0.0256569684 0.00308393594
v -0.024375869 0.0385101736 -0.00399688073
v -0.0071867248 0.0133882072 0.0015557619
v -0.0144129014 0.0133870486 0.00529201189
v -0.00539259333 0.0133885294 0.0025418899
v -0.00535320351 0.0133879734 -0.00158965832
v -0.0127282217 0.0133874202 -0.00039687223
v -0.0163978562 0.0133870319 0.000664034218
v -0.0086442763 0.0419454314 0.000534170831
v -0.0136443358 0.0133859664 0.0106359478
v -0.0116524277 0.0133876288 -0.00202014274
v -0.01589109 0.0133868437 0.00380519102
v -0.0125006111 0.013387695 -0.00366012193
v -0.0107036047 0.013387857 -0.00390308746
v -0.00992891658 0.0133882854 -0.00803674478
v -0.0194884315 0.0133869248 0.00217962894
v -0.018101478 0.0133865774 0.00434106262
v -0.0063657905 0.0133889019 -0.00697869761
v -0.00869239308 0.0133884922 -0.0092875557
v -0.0196343474 0.013386352 0.0058964896
v -0.0119540812 0.013387912 -0.00548466714
v -0.0214939713 0.0134652043 0.0113562392
v -0.0148324221 0.0134741878 0.0119548375
v -0.0243845414 0.030838646 0.00155636494
v -0.0243845377 0.0340037532 0.00199697935
v -0.0243845377 0.0276661217 0.00229767361
v -0.0244176071 0.0401569009 -0.00460131606
v -0.02438372 0.0267424956 0.00519210566
v -0.024385266 0.0243999232 0.00487670116
v -0.024408659 0.034662623 0.0063132355
v -0.0243845806 0.0371744409 0.000793442421
v -0.00542043149 0.0133893406 -0.0052587986
v -0.021312084 0.0133963451 0.00910845865
v -0.0154468175 0.0133874472 -0.0026809962
v -0.0106522171 0.0133880386 -0.0100084189
v -0.0133227203 0.0133879576 -0.00650447886
v -0.014135913 0.0133877005 -0.00449304795
v -0.0244027991 0.0205479544 -0.00618779007
v -0.0243626442 0.0186333004 -0.00696818531
v -0.0243628193 0.0289938822 -0.00748190796
v -0.0243794583 0.0258029122 0.00644900743
v -0.0243953876 0.0222092476 0.00580758788
v -0.0244059376 0.034884356 -0.0069602686
v -0.0244089272 0.0226979293 -0.00589349633
v -0.0244017411 0.0241000466 0.00697273156
v -0.0244314149 0.0388647057 -0.00585762365
v -0.0138153946 0.013388006 -0.00823691767
v -0.0169152133 0.0133815454 -0.010576902
v -0.0184325669 0.0133886086 -0.00791589916
v -0.0173763148 0.0133874854 -0.00308576087
v -0.0118370289 0.0133874593 0.00122991751
v -0.0105660642 0.0133876605 -0.000137076175
v -0.0242889468 0.0192063451 0.00795264915
v -0.024384534 0.0212740116 0.00280591077
v -0.0243848432 0.0179170277 -0.00250394642
v -0.024384845 0.0261194799 -0.00481226295
v -0.0239640884 0.0188799165 -0.00894570909
v -0.0243829805 0.0325254276 -0.00709556416
v -0.0230972264 0.0351320915 -0.0103238253
v -0.0244127531 0.0367000774 0.00680378499
v -0.0244094823 0.0312640294 0.00675899489
v -0.0237129088 0.0181769729 0.00946392678
v -0.0240322743 0.0333369039 -0.00889137201
v -0.0102157574 0.0427365825 -0.000937455276
v -0.00537824677 0.0133879725 0.000604843779
v -0.0227302983 0.0328700878 -0.0107159344
v -0.0196213089 0.0133868037 0.00790385064
v -0.0177060477 0.0133864898 0.00676010223
v -0.0241910331 0.0315435827 0.00831397902
v -0.0240113884 0.0229479894 -0.00881633069
v -0.0239665806 0.0295590647 -0.00896300469
v -0.0240307264 0.0243079569 0.00876798108
v -0.0219492745 0.0307718776 -0.0112224901
v -0.0238768421 0.0251468457 -0.00921260566
v -0.024048388 0.0349921733 0.00879231934
v -0.0238205884 0.0327187292 0.00931063108
v -0.0243352391 0.0330774114 0.00766715268
v -0.0217556655 0.0202643014 -0.0113292048
v -0.00603339868 0.0152309034 -0.0094685955
v -0.00627519516 0.0150324013 0.009716006
v -0.00968191307 0.0152187068 0.0117001915
v -0.0212641265 0.0290830806 0.0115462244
v -0.022551287 0.0302021094 0.010866574
v -0.0237629339 0.016251279 0.00950217247
v -0.00748581393 0.0152529078 -0.0106875151
v -0.00783452764 0.0151327364 0.0108647645
v -0.0051071872 0.0150719397 0.00825599022
v -0.00483891601 0.0151607646 -0.00784592982
v -0.021952441 0.0178416856 -0.0112474021
v -0.020115003 0.0335098803 0.0119413603
v -0.0208798107 0.0224493816 0.0117088733
v -0.00912859943 0.0152377719 -0.0114406124
v -0.00429211929 0.0151890852 0.00657503307
v -0.022922501 0.0339181907 0.0105057163
v -0.0237218514 0.0307562202 0.00941838045
v -0.0219660401 0.0224977769 -0.011205947
v -0.0237908345 0.0287579391 0.0093693193
v -0.0103812097 0.0427875333 0.00123376248
v -0.023500083 0.0227163229 0.00987616647
v -0.017097177 0.0133879734 -0.00668666419
v -0.0215099882 0.0133807873 0.00508137653
v -0.0215714891 0.0133985477 0.000954628107
v -0.0230872575 0.0291861687 -0.0103617199
v -0.0224245992 0.0278598703 0.0109196836
v -0.0210316014 0.0133897793 -0.00449282443
v -0.0215671957 0.0133807175 0.00304990867
v -0.0203802269 0.0133876875 -0.00220574462
v -0.0243629403 0.0239577051 -0.00747500779
v -0.0243845452 0.02349055 0.00279011624
v -0.0243855212 0.0387444794 0.00224453863
v -0.00378576829 0.024974687 -0.00280640973
v -0.00377191114 0.0150992079 0.00268460019
v -0.00378598436 0.0295628179 -0.00180835556
v -0.00377538963 0.0205217171 0.00235543866
v -0.00378006743 0.0327795036 -0.0013953998
v -0.00378062646 0.0199492574 -0.00365537056
v -0.00378725398 0.0219634604 0.0036209519
v -0.00379063655 0.0297630168 0.00343428948
v -0.00378696923 0.0264832471 0.00250969222
v -0.00378651521 0.0277600493 -0.00155838917
v -0.00378640578 0.0221168548 -0.00041579493
v -0.0037804828 0.0323488526 0.000714429363
v -0.00378626282 0.0153283319 -0.000847203948
v -0.00378549797 0.0304805022 0.00144595548
v -0.0038160847 0.0134798773 -0.00185054995
v -0.00378581579 0.0164674502 0.00133110292
v -0.00376667548 0.0319488831 0.00301922369
v -0.00378597528 0.0238794796 0.000419105723
v -0.00378634571 0.0290503763 3.07798036e-05
v -0.00378653593 0.0284435246 0.00207594736
v -0.0103710145 0.0133876782 0.00428529503
v -0.018051615 0.0133894477 0.0105896061
v -0.0203374997 0.0133852242 -0.0100605087
v -0.0243960656 0.0403111987 -0.00284572528
v -0.0150946034 0.0190844573 -0.0120003894
v -0.0160838235 0.032731574 -0.0120043
v -0.0141093303 0.0172016192 -0.0120017529
v -0.0159292575 0.0135098323 -0.011952485
v -0.0182794463 0.0244897548 -0.0120021934
v -0.0183356348 0.0321260728 -0.0120070633
v -0.0130090164 0.0296996776 -0.0120039517
v -0.0183070432 0.029948622 -0.0119931856
v -0.0136383018 0.027597554 -0.0119994115
v -0.0138402302 0.0204456858 -0.0119987503
v -0.0145213613 0.0311699212 -0.0120013179
v -0.017670026 0.0265773609 -0.011996421
v -0.0129248379 0.0189302545 -0.0120030595
v -0.0137198819 0.0268552303 0.0119994059
v -0.0174797457 0.023483498 0.0119996127
v -0.0169705115 0.0170831643 0.0120005887
v -0.0147180893 0.0170012657 0.0119974548
v -0.0186413247 0.0254394505 0.0120142205
v -0.0164299812 0.020309316 0.0119966827
v -0.0159360897 0.0220026337 0.0119962096
v -0.0176793057 0.0337476209 0.0120097436
v -0.0159189366 0.0152606051 0.0120002683
v -0.0166500024 0.0317032039 0.0120018665
v -0.0222774222 0.0236158781 0.0110274153
v -0.0243893415 0.0319540016 -0.00559693435
v -0.0124747958 0.0174183343 0.0120156519
v -0.0106108384 0.0168539938 0.0118630659
v -0.00522491708 0.0190723129 0.00855734199
v -0.0216870494 0.015411159 -0.0113756154
v -0.010872392 0.030202169 -0.0119411331
v -0.00571052171 0.0316586271 0.00927743781
v -0.00378121808 0.0276109409 0.00426417077
v -0.0118855638 0.0171570312 -0.0120081911
v -0.0117083881 0.0133883161 -0.00778429583
v -0.00572384708 0.024472354 -0.00924222823
v -0.0195148271 0.013388088 -0.00600560661
v -0.0230547786 0.0135790687 -0.0101734158
v -0.00377494772 0.0172964763 0.00364130433
v -0.00616961578 0.0221153628 -0.00969576649
v -0.00377266831 0.0289480332 -0.00360233919
v -0.00387329678 0.0135850636 -0.00496368296
v -0.00495175552 0.0275223944 0.00810162537
v -0.0101729967 0.02361531 -0.011824335
v -0.0239861198 0.027707072 -0.00892398879
v -0.020644851 0.0155307772 0.011793239
v -0.0193699487 0.0280879997 -0.0119990986
v -0.0147778373 0.0384421796 -0.0106306383
v -0.00868417136 0.0266740546 0.0113534108
v -0.00384741812 0.0237769019 0.00490434095
v -0.0057670651 0.0284000803 0.00927182287
v -0.0240574852 0.0378085412 0.00882611051
v -0.00440104725 0.0191941131 0.00700104469
v -0.0206365362 0.0171213448 0.0118065355
v -0.00419378094 0.0279767904 0.00647371355
v -0.015349403 0.0401392244 -0.00935202185
v -0.0209250432 0.0265536234 -0.0117239412
v -0.0113386605 0.0133809783 0.0103555974
v -0.00919479877 0.0231204331 0.0115783708
v -0.00924984366 0.0327838995 0.0116239171
v -0.0112562273 0.0409157425 -0.00846786518
v -0.0240339562 0.0360991731 -0.00880780071
v -0.00408883812 0.0358645841 0.00198604795
v -0.0142907314 -0.0140507575 -0.0158978477
v -0.0162386559 -0.0135479262 -0.0158978477
v -0.0161916707 -0.0135381622 -0.0169985704
v -0.0159449987 -0.0135454852 -0.0169985704
v -0.0122821173 -0.0140507575 -0.0158978477
v -0.0142907314 -0.0140507575 0.0158978477
v -0.0164285544 -0.0134698171 -0.0169985704
v -0.0162386559 -0.0135479262 0.0158978477
v -0.0161446854 -0.01324281 -0.0173000004
v -0.010627849 -0.0135454852 -0.0169985704
v -0.0159724075 -0.013247692 -0.0173000004
v -0.010381178 -0.0135381622 -0.0169985704
v -0.0103341928 -0.0135479262 -0.0158978477
v -0.0122821173 -0.0140507575 0.0158978477
v -0.0159449987 -0.0135454852 0.0169985704
v -0.0161916707 -0.0135381622 0.0169985704
v -0.018000599 -0.0125764366 -0.0169985704
v -0.0163110923 -0.013193992 -0.0173000004
v -0.0164285544 -0.0134698171 0.0169985704
v -0.0106004411 -0.013247692 -0.0173000004
v -0.0104281623 -0.01324281 -0.0173000004
v -0.0101442942 -0.0134698171 -0.0169985704
v -0.0103341928 -0.0135479262 0.0158978477
v -0.010381178 -0.0135381622 0.0169985704
v -0.010627849 -0.0135454852 0.0169985704
v -0.0159724075 -0.013247692 0.0173000004
v -0.0161446854 -0.01324281 0.0173000004
v -0.0194630101 -0.0111948717 -0.0169985704
v -0.0192319993 -0.0110044796 -0.0173000004
v -0.0178244039 -0.0123323444 -0.0173000004
v -0.018000599 -0.0125764366 0.0169985704
v -0.0163110923 -0.013193992 0.0173000004
v -0.0102617573 -0.013193992 -0.0173000004
v -0.0085722506 -0.0125764366 -0.0169985704
v -0.0101442942 -0.0134698171 0.0169985704
v -0.0104281623 -0.01324281 0.0173000004
v -0.0106004411 -0.013247692 0.0173000004
v -0.0205358379 -0.0094935447 -0.0169985704
v -0.0194630101 -0.0111948717 0.0169985704
v -0.0202637147 -0.00936661661 -0.0173000004
v -0.0178244039 -0.0123323444 0.0173000004
v -0.0192319993 -0.0110044796 0.0173000004
v -0.00874844473 -0.0123323444 -0.0173000004
v -0.00734084845 -0.0110044796 -0.0173000004
v -0.00710983854 -0.0111948717 -0.0169985704
v -0.0085722506 -0.0125764366 0.0169985704
v -0.0102617573 -0.013193992 0.0173000004
v -0.0206415541 -0.00925677549 -0.0169985704
v -0.0205358379 -0.0094935447 0.0169985704
v -0.0203655157 -0.00913716946 -0.0173000004
v -0.0202637147 -0.00936661661 0.0173000004
v -0.00630913349 -0.00936661661 -0.0173000004
v -0.00603701128 -0.0094935447 -0.0169985704
v -0.00710983854 -0.0111948717 0.0169985704
v -0.00734084845 -0.0110044796 0.0173000004
v -0.00874844473 -0.0123323444 0.0173000004
v -0.0211505592 -0.00757741649 -0.0157996286
v -0.0207100734 -0.00902000535 -0.0169985704
v -0.0204144586 -0.00897362735 -0.0173000004
v -0.0206415541 -0.00925677549 0.0169985704
v -0.0203655157 -0.00913716946 0.0173000004
v -0.00620733248 -0.00913716946 -0.0173000004
v -0.00593129499 -0.00925677549 -0.0169985704
v -0.00603701128 -0.0094935447 0.0169985704
v -0.00630913349 -0.00936661661 0.0173000004
v -0.0232002847 0.00343116815 -0.0169985704
v -0.0219003633 -0.00354500371 -0.0169985704
v -0.0211505592 -0.00757741649 0.0157996286
v -0.0216067061 -0.00349130342 -0.0173000004
v -0.0204144586 -0.00897362735 0.0173000004
v -0.0207100734 -0.00902000535 0.0169985704
v -0.00615838962 -0.00897362735 -0.0173000004
v -0.00586277479 -0.00902000535 -0.0169985704
v -0.00554954074 -0.00814127084 -0.0144990804
v -0.00593129499 -0.00925677549 0.0169985704
v -0.00620733248 -0.00913716946 0.0173000004
v -0.0232864246 0.00434651598 -0.0169985704
v -0.0229066275 0.00348486868 -0.0173000004
v -0.0232002847 0.00343116815 0.0169985704
v -0.0219003633 -0.00354500371 0.0169985704
v -0.0216067061 -0.00349130342 0.0173000004
v -0.00496614212 -0.00349130342 -0.0173000004
v -0.0046724854 -0.00354500371 -0.0169985704
v -0.00542228948 -0.00757741649 -0.0157996286
v -0.00554954074 -0.00814127084 0.0144990804
v -0.00586277479 -0.00902000535 0.0169985704
v -0.00615838962 -0.00897362735 0.0173000004
v -0.0232864246 0.00996065047 -0.0169985704
v -0.0229849368 0.00434651598 -0.0173000004
v -0.0232864246 0.00434651598 0.0169985704
v -0.0229066275 0.00348486868 0.0173000004
v -0.00366622047 0.00348486868 -0.0173000004
v -0.00337256351 0.00343116815 -0.0169985704
v -0.00542228948 -0.00757741649 0.0157996286
v -0.0046724854 -0.00354500371 0.0169985704
v -0.00496614212 -0.00349130342 0.0173000004
v -0.0232864246 0.0105855279 -0.0163753927
v -0.0229849368 0.0100851376 -0.0173000004
v -0.0229849368 0.00434651598 0.0173000004
v -0.0232864246 0.00996065047 0.0169985704
v -0.00358791207 0.00434651598 -0.0173000004
v -0.00328642409 0.00434651598 -0.0169985704
v -0.00337256351 0.00343116815 0.0169985704
v -0.00366622047 0.00348486868 0.0173000004
v -0.0229849368 0.0108857621 -0.0164973177
v -0.0232864246 0.0105855279 0.0163753927
v -0.00358791207 0.0100851376 -0.0173000004
v -0.0229849368 0.0100851376 0.0173000004
v -0.00328642409 0.00996065047 -0.0169985704
v -0.00328642409 0.00434651598 0.0169985704
v -0.00358791207 0.00434651598 0.0173000004
v -0.00358791207 0.0108857621 -0.0164973177
v -0.0229849368 0.0108857621 0.0164973177
v -0.00328642409 0.0105855279 -0.0163753927
v -0.00358791207 0.0100851376 0.0173000004
v -0.00328642409 0.00996065047 0.0169985704
v -0.00358791207 0.0108857621 0.0164973177
v -0.00328642409 0.0105855279 0.0163753927
g 
f 3 1 2
f 370 1 500
f 2 16 3
f 492 3 17
f 6 743 499
f 447 781 414
f 17 3 16
f 381 248 252
f 19 6 486
f 678 6 19
f 19 486 57
f 391 678 377
f 621 14 29
f 29 14 53
f 15 781 18
f 492 17 38
f 381 250 248
f 478 499 280
f 319 29 570
f 621 29 319
f 264 404 247
f 774 750 383
f 675 668 12
f 750 245 389
f 36 610 767
f 14 610 36
f 36 53 14
f 29 68 570
f 16 15 71
f 37 16 71
f 17 16 37
f 54 17 37
f 54 38 17
f 15 18 34
f 19 57 39
f 35 19 39
f 40 759 541
f 751 759 40
f 438 20 751
f 363 22 438
f 451 191 765
f 680 382 673
f 667 26 673
f 70 572 570
f 47 30 46
f 31 30 47
f 48 31 47
f 703 31 497
f 32 715 49
f 67 32 49
f 33 32 67
f 50 33 67
f 753 33 50
f 34 753 50
f 51 34 50
f 15 34 51
f 682 35 52
f 672 36 349
f 68 29 53
f 71 15 51
f 37 71 85
f 38 54 55
f 55 54 86
f 400 38 55
f 39 57 90
f 40 541 74
f 74 376 40
f 58 59 647
f 41 59 75
f 728 41 75
f 75 59 94
f 498 60 517
f 61 42 60
f 43 61 62
f 63 43 62
f 44 43 63
f 64 44 63
f 45 44 64
f 64 46 45
f 46 64 78
f 47 46 78
f 79 47 78
f 65 79 78
f 47 79 48
f 67 49 66
f 50 67 81
f 51 50 81
f 90 52 39
f 53 36 672
f 672 69 53
f 68 53 69
f 541 409 82
f 71 51 84
f 101 37 85
f 54 37 101
f 86 54 101
f 55 86 87
f 57 56 90
f 56 464 461
f 73 56 72
f 90 56 89
f 74 541 82
f 92 93 783
f 58 647 93
f 76 60 107
f 61 60 76
f 62 61 76
f 96 62 76
f 97 62 96
f 63 62 97
f 77 63 97
f 64 63 77
f 78 64 77
f 98 65 125
f 79 65 98
f 67 66 80
f 80 66 99
f 81 67 80
f 84 51 81
f 773 52 90
f 574 68 69
f 100 84 81
f 71 84 85
f 461 460 72
f 73 72 118
f 118 72 88
f 89 56 73
f 74 82 83
f 105 92 91
f 93 92 121
f 106 58 93
f 95 58 106
f 94 58 95
f 488 94 490
f 75 94 488
f 108 76 107
f 96 76 108
f 77 97 124
f 109 77 124
f 78 77 109
f 98 125 110
f 80 99 126
f 100 80 126
f 81 80 100
f 112 773 89
f 116 84 100
f 85 84 116
f 101 85 116
f 86 101 102
f 103 86 102
f 87 86 103
f 477 88 460
f 118 88 132
f 132 88 117
f 90 89 773
f 112 89 73
f 137 92 105
f 106 93 121
f 94 95 490
f 123 96 108
f 97 96 123
f 124 97 123
f 65 78 109
f 125 65 109
f 110 125 141
f 550 98 110
f 99 111 126
f 115 100 126
f 116 100 115
f 102 101 116
f 128 102 127
f 103 102 128
f 127 102 116
f 87 103 104
f 129 103 128
f 104 103 129
f 117 88 477
f 119 132 117
f 136 615 722
f 120 615 136
f 634 615 120
f 120 105 634
f 137 105 120
f 121 92 137
f 106 121 138
f 108 122 155
f 107 122 108
f 123 108 155
f 109 124 140
f 125 109 140
f 110 141 142
f 157 110 142
f 110 157 550
f 111 542 143
f 144 111 143
f 126 111 144
f 133 113 112
f 114 113 133
f 145 114 133
f 487 114 145
f 115 126 144
f 127 115 144
f 116 115 127
f 104 129 130
f 131 132 119
f 145 118 132
f 133 118 145
f 73 118 133
f 474 119 481
f 112 73 133
f 136 722 135
f 151 120 136
f 152 121 137
f 138 121 152
f 463 138 433
f 122 769 154
f 155 122 154
f 139 123 155
f 124 123 139
f 140 124 139
f 125 140 141
f 144 143 146
f 487 145 131
f 146 127 144
f 128 127 146
f 169 128 146
f 129 128 169
f 159 129 169
f 130 129 159
f 160 130 159
f 145 132 131
f 134 489 480
f 149 134 148
f 150 134 149
f 136 135 150
f 137 120 151
f 149 151 136
f 137 151 152
f 153 138 152
f 433 274 259
f 139 155 782
f 156 139 782
f 140 139 156
f 141 140 156
f 166 141 156
f 142 141 166
f 170 142 166
f 157 142 170
f 146 143 158
f 169 146 158
f 149 136 150
f 168 147 392
f 161 147 168
f 148 480 462
f 151 148 164
f 149 148 151
f 152 151 164
f 153 152 164
f 155 154 782
f 165 156 782
f 166 156 165
f 170 166 167
f 168 170 167
f 392 159 686
f 161 168 167
f 162 161 163
f 163 161 167
f 165 163 167
f 171 163 165
f 166 165 167
f 416 430 705
f 590 304 552
f 135 722 540
f 540 502 135
f 472 160 491
f 279 474 288
f 503 134 150
f 502 540 283
f 616 323 589
f 551 172 566
f 595 173 314
f 595 174 173
f 173 175 622
f 588 612 354
f 568 310 644
f 639 177 174
f 691 337 766
f 183 184 692
f 184 183 344
f 638 329 545
f 695 187 374
f 187 408 374
f 740 270 185
f 410 192 199
f 432 194 423
f 435 196 200
f 195 413 202
f 195 197 444
f 780 406 200
f 757 443 405
f 193 426 402
f 198 780 407
f 199 191 436
f 757 436 443
f 406 780 445
f 532 188 364
f 679 350 201
f 186 727 203
f 194 765 423
f 191 451 422
f 547 719 458
f 483 205 204
f 494 206 205
f 598 206 494
f 352 322 553
f 575 697 589
f 559 216 630
f 577 562 565
f 587 642 559
f 580 632 209
f 309 558 577
f 208 561 578
f 579 302 335
f 613 554 584
f 602 212 213
f 212 315 317
f 698 583 619
f 605 342 656
f 341 219 213
f 631 215 561
f 220 216 641
f 342 605 600
f 223 627 626
f 631 651 646
f 218 635 624
f 459 656 342
f 653 591 470
f 339 225 243
f 691 222 661
f 220 687 660
f 341 224 219
f 340 691 661
f 664 346 682
f 548 228 720
f 231 348 227
f 230 227 348
f 666 677 225
f 229 677 666
f 687 231 746
f 231 226 348
f 670 671 692
f 240 361 758
f 586 554 312
f 700 512 714
f 708 717 513
f 515 233 508
f 235 534 268
f 729 520 733
f 236 739 748
f 266 237 736
f 371 238 270
f 538 537 368
f 671 343 346
f 207 690 694
f 227 230 350
f 240 393 375
f 241 185 270
f 389 245 403
f 403 250 381
f 263 384 246
f 749 381 252
f 385 253 396
f 253 385 776
f 258 254 451
f 422 254 256
f 406 248 411
f 249 423 410
f 253 706 396
f 760 430 269
f 755 251 379
f 251 755 735
f 411 245 435
f 262 420 257
f 772 401 255
f 247 404 263
f 450 455 418
f 266 434 265
f 265 237 266
f 436 256 262
f 263 246 442
f 764 427 772
f 434 260 265
f 260 414 265
f 254 752 386
f 255 260 770
f 249 424 390
f 246 390 424
f 257 428 267
f 256 394 262
f 511 233 704
f 251 735 432
f 260 401 447
f 236 748 454
f 738 239 437
f 448 268 229
f 254 386 256
f 251 423 249
f 245 411 250
f 573 409 240
f 777 259 467
f 278 271 719
f 463 273 490
f 465 244 400
f 380 274 433
f 274 380 242
f 274 242 467
f 465 275 244
f 769 273 777
f 272 466 400
f 241 446 391
f 485 277 468
f 484 656 459
f 280 466 272
f 469 468 271
f 468 277 271
f 287 279 473
f 474 279 489
f 475 242 162
f 460 275 276
f 275 476 276
f 479 276 476
f 458 281 483
f 484 282 656
f 548 282 484
f 477 276 284
f 276 479 284
f 162 285 496
f 286 482 290
f 480 287 285
f 287 496 285
f 277 493 281
f 7 281 493
f 495 288 284
f 288 495 472
f 279 287 489
f 280 289 492
f 286 290 523
f 743 291 289
f 501 292 784
f 292 497 294
f 292 501 710
f 291 500 289
f 289 500 492
f 292 294 784
f 518 294 295
f 724 290 517
f 519 295 294
f 290 724 523
f 733 533 724
f 298 636 347
f 724 517 733
f 366 296 725
f 535 744 738
f 745 391 446
f 295 297 518
f 552 313 353
f 299 574 325
f 323 556 354
f 301 556 649
f 549 555 300
f 302 579 332
f 309 563 333
f 575 303 333
f 644 305 580
f 327 306 747
f 336 549 557
f 549 300 557
f 569 408 308
f 563 309 332
f 564 310 336
f 335 307 574
f 297 550 311
f 648 312 618
f 586 312 582
f 633 617 630
f 593 653 509
f 591 593 469
f 311 157 597
f 212 603 315
f 601 602 599
f 315 607 581
f 315 606 317
f 596 318 175
f 604 318 320
f 314 625 601
f 623 603 756
f 318 596 320
f 603 623 607
f 720 321 338
f 353 722 590
f 582 114 586
f 608 655 319
f 319 689 608
f 597 157 652
f 316 504 600
f 219 599 602
f 328 623 756
f 331 317 620
f 626 627 560
f 181 696 305
f 556 176 324
f 299 325 216
f 312 648 582
f 617 633 629
f 327 646 326
f 304 631 561
f 306 327 564
f 329 521 695
f 329 695 693
f 688 330 545
f 592 600 504
f 69 641 325
f 309 577 332
f 302 332 577
f 303 567 333
f 560 83 334
f 334 83 569
f 305 644 181
f 335 565 571
f 310 576 336
f 92 783 91
f 604 544 318
f 648 773 113
f 655 338 621
f 655 282 338
f 640 471 639
f 666 339 684
f 225 339 666
f 661 222 654
f 339 178 684
f 331 620 8
f 662 178 658
f 183 660 344
f 641 650 226
f 662 658 696
f 93 647 783
f 660 687 344
f 683 657 324
f 226 650 348
f 592 342 600
f 696 181 662
f 131 283 487
f 670 185 241
f 349 348 650
f 158 597 686
f 222 691 659
f 350 679 227
f 685 671 683
f 177 639 471
f 298 637 546
f 543 347 635
f 243 225 645
f 343 377 678
f 329 758 545
f 746 679 182
f 661 654 41
f 685 692 671
f 594 341 331
f 322 584 351
f 313 351 619
f 612 588 352
f 352 588 613
f 617 629 616
f 722 353 540
f 614 354 585
f 323 354 614
f 232 355 702
f 355 508 511
f 355 510 702
f 360 356 703
f 699 357 506
f 711 516 358
f 712 715 706
f 511 704 514
f 357 513 359
f 359 513 707
f 356 360 701
f 504 177 547
f 721 375 20
f 734 727 378
f 533 730 728
f 723 529 732
f 530 527 364
f 456 364 731
f 364 456 532
f 296 366 528
f 529 531 732
f 733 42 729
f 367 454 419
f 740 371 270
f 737 453 742
f 741 742 453
f 237 370 539
f 367 419 524
f 369 4 399
f 368 536 736
f 736 536 439
f 740 537 371
f 371 537 538
f 367 742 741
f 185 670 692
f 758 329 693
f 690 372 187
f 663 682 52
f 746 182 184
f 346 343 682
f 572 694 689
f 759 20 375
f 767 349 36
f 41 654 59
f 241 391 377
f 361 721 546
f 680 673 25
f 681 675 11
f 693 374 573
f 240 375 361
f 778 768 378
f 467 242 475
f 674 669 7
f 382 680 379
f 675 681 383
f 676 388 28
f 33 385 32
f 776 385 427
f 43 386 61
f 268 345 229
f 203 373 186
f 389 668 675
f 667 676 27
f 225 677 376
f 243 178 339
f 44 45 420
f 257 420 428
f 10 9 395
f 715 32 396
f 24 23 397
f 755 397 366
f 340 387 768
f 763 516 8
f 5 399 4
f 272 400 244
f 164 380 153
f 375 721 361
f 772 421 401
f 43 44 394
f 389 403 668
f 263 404 384
f 252 248 406
f 408 573 374
f 240 409 393
f 192 191 199
f 424 249 410
f 382 390 673
f 248 250 411
f 381 674 403
f 384 667 390
f 147 491 392
f 2 440 414
f 440 265 414
f 383 681 415
f 269 774 415
f 781 447 18
f 30 417 46
f 264 247 704
f 197 195 418
f 748 252 454
f 399 5 669
f 753 34 18
f 426 190 452
f 774 383 415
f 385 396 32
f 385 33 427
f 192 765 191
f 249 379 251
f 256 386 394
f 30 31 441
f 761 424 410
f 410 423 192
f 774 425 750
f 193 425 190
f 193 190 426
f 413 442 202
f 772 427 421
f 420 45 428
f 776 427 764
f 395 9 700
f 771 505 429
f 269 415 760
f 752 729 42
f 397 23 366
f 431 194 532
f 752 258 729
f 423 251 432
f 451 456 258
f 765 194 431
f 153 433 138
f 273 259 777
f 450 418 405
f 246 424 442
f 420 262 394
f 420 394 44
f 250 403 245
f 411 435 200
f 255 412 402
f 436 262 443
f 257 443 262
f 436 757 199
f 449 442 413
f 404 676 384
f 195 202 405
f 21 438 22
f 418 699 197
f 704 444 514
f 440 2 1
f 237 265 440
f 781 2 414
f 261 417 441
f 42 61 752
f 390 382 249
f 193 402 196
f 193 196 425
f 384 390 246
f 427 753 421
f 443 257 267
f 434 770 260
f 454 252 445
f 434 266 439
f 419 445 198
f 270 446 241
f 428 417 261
f 46 417 45
f 728 387 41
f 780 198 445
f 414 260 447
f 445 252 406
f 381 749 669
f 449 444 704
f 441 417 30
f 405 267 450
f 752 61 386
f 423 765 192
f 771 190 416
f 453 201 350
f 770 434 407
f 255 401 260
f 441 31 356
f 356 31 703
f 444 449 195
f 425 416 190
f 702 510 705
f 732 531 432
f 681 10 395
f 775 767 437
f 753 427 33
f 706 715 396
f 447 401 18
f 425 196 435
f 404 264 398
f 428 45 417
f 761 757 202
f 455 450 762
f 398 264 358
f 431 456 451
f 429 707 754
f 383 750 389
f 239 350 230
f 453 350 239
f 741 453 239
f 182 201 740
f 438 345 363
f 440 1 370
f 191 422 436
f 379 249 382
f 386 43 394
f 87 400 55
f 10 457 9
f 719 271 458
f 277 458 271
f 72 460 88
f 464 244 461
f 72 56 461
f 272 464 478
f 285 242 462
f 242 285 162
f 95 138 463
f 138 95 106
f 275 461 244
f 259 274 467
f 433 153 380
f 57 464 56
f 408 187 372
f 259 463 433
f 463 259 273
f 777 154 769
f 244 464 272
f 400 466 38
f 400 87 465
f 478 464 57
f 272 478 280
f 466 492 38
f 282 655 656
f 281 458 277
f 11 468 10
f 205 459 204
f 460 461 275
f 373 203 448
f 148 462 164
f 87 476 465
f 160 159 392
f 457 593 9
f 591 224 470
f 470 224 341
f 177 471 719
f 468 469 457
f 473 279 472
f 288 472 279
f 472 491 473
f 473 147 496
f 489 503 474
f 392 652 168
f 185 182 740
f 380 164 462
f 275 465 476
f 163 171 475
f 380 462 242
f 460 276 477
f 375 393 759
f 499 478 486
f 476 87 104
f 134 480 148
f 476 104 479
f 117 481 119
f 481 117 477
f 475 171 467
f 468 457 10
f 122 107 482
f 206 484 205
f 12 485 11
f 466 280 492
f 769 122 482
f 273 286 490
f 130 479 104
f 288 481 284
f 160 495 130
f 162 163 475
f 486 478 57
f 161 162 496
f 284 479 495
f 482 107 498
f 481 477 284
f 480 489 287
f 147 161 496
f 495 479 130
f 488 490 286
f 462 480 285
f 459 205 484
f 392 491 160
f 376 677 40
f 463 490 95
f 645 225 376
f 13 493 12
f 483 779 494
f 779 483 281
f 458 483 204
f 472 495 160
f 481 288 474
f 473 496 287
f 31 48 497
f 60 498 107
f 468 11 485
f 280 499 289
f 499 743 289
f 1 3 500
f 482 498 290
f 286 523 488
f 48 79 519
f 484 206 548
f 493 277 485
f 678 743 6
f 49 715 501
f 710 501 715
f 49 784 66
f 391 743 678
f 500 291 370
f 497 292 703
f 710 703 292
f 501 784 49
f 502 119 503
f 135 502 150
f 497 48 519
f 119 502 131
f 503 150 502
f 716 505 510
f 359 505 716
f 506 716 709
f 471 640 507
f 507 224 591
f 502 283 131
f 232 508 355
f 508 232 515
f 717 708 701
f 489 134 503
f 700 509 512
f 720 338 282
f 492 500 3
f 497 519 294
f 784 294 518
f 486 6 499
f 505 705 510
f 357 716 506
f 508 233 511
f 509 293 512
f 717 718 513
f 506 514 197
f 714 711 515
f 713 8 516
f 360 717 701
f 523 75 488
f 60 42 517
f 494 205 483
f 517 290 498
f 98 519 79
f 728 75 523
f 519 98 295
f 534 235 723
f 543 218 688
f 330 688 218
f 234 520 527
f 520 234 533
f 638 521 329
f 530 522 727
f 362 522 529
f 546 22 636
f 347 528 328
f 368 189 524
f 524 189 742
f 736 525 538
f 525 237 539
f 739 236 526
f 367 236 454
f 520 731 527
f 364 527 731
f 528 366 23
f 522 188 529
f 22 365 726
f 523 724 728
f 522 530 188
f 531 532 194
f 188 532 531
f 520 533 733
f 723 725 534
f 365 534 296
f 228 535 321
f 524 198 536
f 611 4 369
f 737 189 537
f 525 238 538
f 538 238 371
f 737 742 189
f 526 738 739
f 370 745 539
f 297 542 518
f 518 542 99
f 111 99 542
f 493 485 12
f 634 590 615
f 474 503 119
f 473 491 147
f 347 543 298
f 521 638 175
f 521 544 695
f 688 545 758
f 528 347 726
f 547 458 204
f 504 547 592
f 611 548 598
f 206 598 548
f 321 610 338
f 779 5 4
f 282 548 720
f 550 297 295
f 208 578 553
f 295 98 550
f 613 211 554
f 554 211 312
f 313 552 351
f 614 551 589
f 487 283 698
f 698 283 583
f 561 208 552
f 559 299 216
f 555 172 585
f 172 555 549
f 556 616 176
f 642 587 697
f 567 209 558
f 558 209 560
f 559 642 579
f 558 643 577
f 562 210 565
f 300 553 557
f 697 575 563
f 336 306 564
f 562 643 308
f 574 299 335
f 335 302 565
f 575 551 566
f 589 551 575
f 568 566 576
f 580 209 567
f 632 580 305
f 566 568 303
f 557 553 578
f 552 304 561
f 409 569 82
f 70 570 68
f 574 70 68
f 307 70 574
f 572 307 207
f 83 82 569
f 210 408 372
f 210 372 207
f 571 210 207
f 307 572 70
f 408 569 573
f 562 308 210
f 335 571 307
f 571 207 307
f 308 408 210
f 558 560 643
f 558 309 567
f 333 567 309
f 566 172 576
f 336 576 549
f 334 569 308
f 562 577 643
f 578 306 557
f 557 306 336
f 573 569 409
f 560 209 626
f 632 626 209
f 335 299 579
f 559 579 299
f 567 303 580
f 580 303 568
f 644 310 564
f 311 542 297
f 25 26 607
f 603 607 315
f 27 581 26
f 157 311 550
f 311 143 542
f 353 313 583
f 351 584 619
f 354 612 585
f 555 585 612
f 698 554 586
f 552 208 351
f 630 617 587
f 217 211 588
f 556 301 354
f 553 300 352
f 591 653 593
f 592 547 204
f 459 592 204
f 509 9 593
f 469 593 457
f 713 293 594
f 470 594 653
f 507 278 471
f 143 311 597
f 27 28 606
f 609 212 602
f 315 581 606
f 320 596 316
f 494 779 598
f 4 598 779
f 607 26 581
f 212 317 213
f 599 314 601
f 214 605 608
f 25 623 24
f 604 320 605
f 214 604 605
f 600 605 320
f 596 173 316
f 581 27 606
f 602 213 219
f 600 320 316
f 174 316 173
f 656 608 605
f 175 173 596
f 624 609 625
f 601 625 609
f 623 25 607
f 493 13 7
f 610 14 621
f 228 321 720
f 352 300 612
f 555 612 300
f 352 613 322
f 351 208 322
f 553 322 208
f 353 583 540
f 551 614 172
f 354 301 588
f 217 588 301
f 556 323 616
f 559 630 587
f 697 617 589
f 217 618 211
f 698 619 554
f 763 620 28
f 319 655 621
f 622 625 314
f 23 24 623
f 319 570 689
f 756 635 328
f 640 595 599
f 317 331 213
f 317 606 620
f 624 756 609
f 599 219 640
f 620 606 28
f 83 560 627
f 564 628 181
f 574 69 325
f 220 630 216
f 83 627 74
f 181 644 564
f 747 215 646
f 578 561 215
f 649 665 217
f 216 325 641
f 665 618 217
f 633 180 629
f 217 301 649
f 305 696 632
f 327 628 564
f 215 747 578
f 634 91 304
f 590 634 304
f 604 214 694
f 347 328 635
f 635 756 624
f 22 726 636
f 636 726 347
f 637 758 361
f 688 758 637
f 214 608 689
f 528 23 328
f 545 330 638
f 521 318 544
f 224 640 219
f 622 314 173
f 220 633 630
f 563 575 333
f 575 566 303
f 571 565 210
f 563 332 642
f 579 642 332
f 580 568 644
f 560 334 643
f 308 643 334
f 568 576 310
f 576 172 549
f 563 642 697
f 577 565 302
f 221 626 632
f 626 221 223
f 645 627 223
f 628 327 326
f 627 645 74
f 91 631 304
f 243 223 221
f 640 639 595
f 657 665 649
f 632 696 221
f 91 634 105
f 330 625 622
f 318 521 175
f 641 69 650
f 672 650 69
f 631 91 783
f 687 220 226
f 759 751 20
f 663 665 664
f 595 639 174
f 663 618 665
f 168 652 170
f 653 594 293
f 509 653 293
f 470 341 594
f 713 594 8
f 504 174 177
f 469 278 591
f 507 591 278
f 459 342 592
f 507 640 224
f 778 179 337
f 178 179 684
f 59 654 647
f 608 656 655
f 504 316 174
f 8 620 763
f 181 766 662
f 223 243 645
f 330 622 638
f 659 326 222
f 658 243 221
f 766 181 628
f 633 660 180
f 660 183 180
f 186 684 179
f 649 324 657
f 664 665 657
f 618 663 648
f 159 169 686
f 392 686 652
f 683 664 657
f 687 226 231
f 218 624 625
f 330 218 625
f 226 220 641
f 340 778 337
f 337 691 340
f 645 376 74
f 337 662 766
f 21 20 438
f 646 215 631
f 622 175 638
f 387 340 661
f 27 26 667
f 668 674 13
f 12 668 13
f 5 7 669
f 381 669 674
f 763 28 388
f 404 388 676
f 326 659 628
f 326 651 222
f 582 648 113
f 324 176 685
f 213 331 341
f 25 673 26
f 7 13 674
f 403 674 668
f 11 675 12
f 28 27 676
f 384 676 667
f 773 112 113
f 179 178 662
f 597 158 143
f 623 328 23
f 345 751 677
f 170 652 157
f 241 377 670
f 682 663 664
f 25 24 680
f 680 24 397
f 11 10 681
f 611 228 548
f 679 746 231
f 35 682 343
f 677 229 345
f 52 35 39
f 686 597 652
f 671 670 377
f 373 684 186
f 767 775 349
f 377 343 671
f 230 348 349
f 346 664 683
f 185 184 182
f 651 647 654
f 666 373 229
f 169 158 686
f 183 685 176
f 635 218 543
f 637 298 688
f 543 688 298
f 546 636 298
f 654 222 651
f 671 346 683
f 650 672 349
f 21 22 546
f 231 227 679
f 685 183 692
f 694 214 689
f 187 544 690
f 604 690 544
f 690 207 372
f 344 687 746
f 361 546 637
f 544 187 695
f 690 604 694
f 331 8 594
f 619 583 313
f 584 322 613
f 312 211 618
f 584 554 619
f 114 582 113
f 540 583 283
f 585 172 614
f 617 616 589
f 587 617 697
f 629 176 616
f 589 323 614
f 586 114 698
f 487 698 114
f 613 588 211
f 552 353 590
f 615 590 722
f 506 197 699
f 455 699 418
f 233 358 264
f 358 516 398
f 509 700 9
f 708 762 701
f 356 762 441
f 232 702 430
f 233 264 704
f 708 455 762
f 702 705 430
f 232 430 760
f 706 253 754
f 718 706 754
f 718 754 707
f 505 707 429
f 514 444 197
f 513 357 708
f 716 510 709
f 233 515 358
f 355 511 709
f 506 709 514
f 359 707 505
f 712 360 710
f 703 710 360
f 714 760 700
f 512 293 711
f 713 711 293
f 709 511 514
f 717 712 718
f 357 699 455
f 455 708 357
f 516 711 713
f 515 232 714
f 760 714 232
f 715 712 710
f 510 355 709
f 357 359 716
f 358 515 711
f 711 714 512
f 717 360 712
f 707 513 718
f 712 706 718
f 271 278 469
f 719 547 177
f 278 719 471
f 598 4 611
f 374 693 695
f 20 21 721
f 184 185 692
f 235 529 723
f 728 724 533
f 234 527 734
f 235 268 448
f 448 203 362
f 522 362 203
f 725 723 735
f 296 726 365
f 522 203 727
f 378 727 186
f 378 768 734
f 234 734 768
f 387 728 730
f 520 729 731
f 726 296 528
f 234 768 730
f 387 730 768
f 456 731 258
f 432 531 194
f 188 530 364
f 531 529 188
f 729 258 731
f 432 735 732
f 448 362 235
f 529 235 362
f 530 727 734
f 725 735 755
f 42 733 517
f 365 22 363
f 527 530 734
f 365 363 534
f 268 534 363
f 723 732 735
f 534 725 296
f 533 234 730
f 525 736 237
f 537 740 737
f 526 239 738
f 524 536 368
f 437 239 230
f 737 740 201
f 535 228 744
f 437 535 738
f 270 238 446
f 745 446 539
f 526 236 367
f 526 741 239
f 437 767 535
f 446 238 539
f 525 539 238
f 742 367 524
f 391 745 743
f 744 369 739
f 453 737 201
f 745 370 291
f 524 419 198
f 736 538 368
f 439 536 198
f 439 266 736
f 526 367 741
f 748 739 369
f 739 738 744
f 228 611 744
f 369 744 611
f 368 537 189
f 743 745 291
f 746 184 344
f 678 19 35
f 343 678 35
f 324 649 556
f 438 751 345
f 314 599 595
f 546 721 21
f 646 327 747
f 578 747 306
f 399 749 748
f 252 748 749
f 440 370 237
f 669 749 399
f 431 532 456
f 442 449 263
f 425 435 750
f 245 750 435
f 389 675 383
f 405 418 195
f 398 388 404
f 40 677 751
f 410 199 761
f 752 254 258
f 18 401 753
f 421 753 401
f 693 240 758
f 629 180 176
f 253 776 754
f 429 754 452
f 603 212 756
f 445 419 454
f 363 345 268
f 661 41 387
f 771 705 505
f 443 267 405
f 756 212 609
f 199 757 761
f 379 397 755
f 658 178 243
f 261 267 428
f 667 673 390
f 660 633 220
f 610 621 338
f 229 373 448
f 402 412 196
f 601 609 602
f 694 572 207
f 541 759 393
f 760 415 395
f 700 760 395
f 195 449 413
f 373 666 684
f 247 263 449
f 683 324 685
f 572 689 570
f 762 450 261
f 221 696 658
f 202 442 761
f 651 326 646
f 261 441 762
f 701 762 356
f 680 397 379
f 422 256 436
f 439 407 434
f 395 415 681
f 388 398 763
f 516 763 398
f 94 59 58
f 442 424 761
f 426 764 402
f 449 704 247
f 269 430 416
f 431 451 765
f 200 406 411
f 450 267 261
f 201 182 679
f 662 337 179
f 541 393 409
f 628 659 766
f 691 766 659
f 754 776 452
f 705 771 416
f 610 321 767
f 535 767 321
f 405 202 757
f 340 768 778
f 451 254 422
f 482 286 769
f 273 769 286
f 407 439 198
f 190 771 452
f 693 573 240
f 407 412 770
f 255 770 412
f 429 452 771
f 255 402 772
f 764 772 402
f 663 773 648
f 52 773 663
f 725 755 366
f 269 416 774
f 425 774 416
f 437 230 775
f 349 775 230
f 748 369 399
f 764 426 776
f 452 776 426
f 412 200 196
f 467 171 777
f 154 777 171
f 378 186 778
f 179 778 186
f 281 7 779
f 5 779 7
f 200 412 780
f 407 780 412
f 15 16 781
f 2 781 16
f 176 180 183
f 154 171 782
f 165 782 171
f 647 651 783
f 631 783 651
f 518 99 784
f 66 784 99
f 787 785 786
f 788 785 787
f 789 785 788 794
f 790 785 789 798
f 786 785 790 792
f 787 786 791
f 791 786 792 803
f 793 787 791
f 788 787 793
f 795 788 793
f 794 788 795 804
f 796 789 794
f 797 789 796
f 798 789 797 807
f 799 790 798 809
f 800 790 799
f 792 790 800
f 802 791 801
f 793 791 802
f 801 791 803 815
f 803 792 800
f 795 793 802 814 813 824 834 843 853 862 873 882 891 885 876 866 856 846 836 828 827 817 805 804
f 805 794 804
f 796 794 805
f 797 796 806
f 806 796 805
f 807 797 806 819
f 808 798 807
f 809 798 808
f 810 799 809 821
f 811 799 810
f 800 799 811
f 803 800 811
f 813 801 812
f 814 801 813
f 802 801 814
f 812 801 815 823
f 816 803 811
f 815 803 816
f 806 805 817
f 818 806 817
f 819 806 818 830
f 808 807 819
f 820 808 819
f 809 808 820
f 821 809 820
f 811 810 821 820 831 840 839 849 860 871 880 888 895 899 892 883 875 865 854 845 835 826 825 816
f 813 812 822
f 822 812 823 833
f 824 813 822
f 825 815 816
f 826 815 825
f 823 815 826
f 818 817 827
f 828 818 827
f 829 818 828
f 830 818 829 838
f 831 819 830
f 820 819 831
f 824 822 832
f 832 822 833 844
f 833 823 826
f 834 824 832
f 833 826 835
f 837 828 836
f 829 828 837
f 838 829 837 848
f 839 830 838
f 840 830 839
f 831 830 840
f 842 832 841
f 843 832 842
f 834 832 843
f 841 832 844 852
f 844 833 835
f 844 835 845
f 847 836 846
f 837 836 847
f 848 837 847 859
f 839 838 848
f 849 839 848
f 851 841 850
f 842 841 851
f 850 841 852 863
f 853 842 851
f 843 842 853
f 854 844 845
f 855 844 854
f 852 844 855
f 847 846 856
f 857 847 856
f 858 847 857
f 859 847 858 869
f 849 848 859
f 860 849 859
f 862 850 861
f 851 850 862 853
f 861 850 863 874
f 864 852 855
f 863 852 864
f 855 854 865
f 864 855 865
f 857 856 866
f 867 857 866
f 868 857 867
f 858 857 868
f 869 858 868 878
f 870 859 869
f 871 859 870
f 860 859 871
f 873 861 872 882
f 862 861 873
f 872 861 874 884 890 881
f 875 863 864 865
f 874 863 875
f 867 866 876 877
f 868 867 877
f 878 868 877 887
f 870 869 878
f 880 870 879
f 871 870 880
f 879 870 878
f 882 872 881
f 883 874 875
f 884 874 883 892
f 886 876 885
f 877 876 886
f 887 877 886 894
f 879 878 887
f 880 879 887 888
f 882 881 889
f 889 881 890 897
f 891 882 889 896
f 890 884 892
f 886 885 891 893
f 894 886 893 898 902 900
f 888 887 894
f 895 888 894
f 896 889 897 901
f 897 890 892
f 898 891 896
f 893 891 898
f 897 892 899 901
f 895 894 900 899
f 898 896 901 902
f 902 899 900
f 901 899 902
