# File exported by Houdini 20.5.410 (www.sidefx.com)
# 225 points
# 1068 vertices
# 317 primitives
# Bounds: [-0.0514069013, -0.0157027636, -0.0174573548] to [0.0015930977, 0.0548337549, 0.0183426458]
g 
v -0.0318156034 0.0193337556 0.00648888107
v -0.03317485 0.0193337556 0.00884264521
v -0.0318156034 0.0208403561 0.00648888107
v -0.0286734588 0.0193337556 0.00818831008
v -0.03317485 0.0208337046 0.00884264521
v -0.0284039453 0.0193337556 0.00884264521
v -0.0315138623 0.0208437555 0.00706073316
v -0.0286734588 0.020843165 0.00818831008
v -0.0284030102 0.0208337046 0.00884264521
v -0.0285711642 0.0208437555 0.00852884073
v -0.0299575012 0.0208437555 0.00815697573
v -0.0305586532 0.0208437555 0.00791828148
v -0.0310864691 0.0208437555 0.00754618552
v -0.0331753716 0.0208337046 -0.00915735494
v -0.0331744365 0.0193337556 -0.00915735494
v -0.0318156667 0.0193337556 -0.00680359127
v -0.0318156667 0.0208403561 -0.00680359127
v -0.0315139256 0.0208437555 -0.00737544335
v -0.031086538 0.0208437555 -0.00786089525
v -0.0305582583 0.0208437555 -0.00823299121
v -0.0299575794 0.0208437555 -0.00847168546
v -0.0285712518 0.0208437555 -0.00884355046
v -0.0284035653 0.0208337046 -0.00915735494
v -0.0284035653 0.0193337556 -0.00915735494
v -0.0286735445 0.0193337556 -0.00850301981
v -0.0286735445 0.020843165 -0.00850301981
v -0.0514069013 0.0157339908 -0.0101573551
v -0.0234070905 0.0132337557 -0.0101573551
v -0.0514069013 0.0157339908 0.00984230265
v -0.0493058339 0.0381220877 -0.000577382219
v -0.0493058339 0.0377474576 -0.00258041662
v -0.0493058339 0.036867898 -0.00441606669
v -0.0493058339 0.0355404131 -0.00596158346
v -0.046404507 0.0546301529 -0.00907214545
v -0.046404507 0.0537505895 -0.00995649397
v -0.0462067612 0.0538320318 -0.0101573551
v -0.0234070905 0.0132337557 0.00984230265
v -0.0209074374 0.0157339908 -0.0101573551
v -0.0467721932 0.0157339908 0.0178404916
v -0.0467721932 0.0398323461 0.0178404916
v -0.0468710661 0.0398323461 0.0176005755
v -0.046404507 0.0537505895 0.00964144152
v -0.046404507 0.0546301529 0.00875709299
v -0.0493058339 0.0361390002 0.00504952669
v -0.0493058339 0.0372873172 0.00337289204
v -0.0493058339 0.0374216959 0.00309670763
v -0.0493058339 0.0379632786 0.00145354972
v -0.0462067612 0.0548337549 -0.00915583782
v -0.0236079264 0.0538320318 -0.0101573551
v -0.0459039584 0.0157339908 0.0183426458
v -0.0461635031 0.0157339908 0.0183063783
v -0.046404507 0.0157339908 0.0182059482
v -0.0466115251 0.0157339908 0.0180497225
v -0.0209074374 0.0157339908 0.00984230265
v -0.0219085347 0.0157339908 0.0183426458
v -0.0208085645 0.018918328 -0.0101573551
v -0.0206077266 0.0188368876 -0.00995649397
v -0.0466115251 0.0398323461 0.0180497225
v -0.0462067612 0.0538320318 0.00984230265
v -0.0462067612 0.0548337549 0.00884078536
v -0.0236079264 0.0548337549 -0.00915583782
v -0.0234070905 0.0537505895 -0.00995649397
v -0.0206077266 0.0205837954 -0.00995649397
v -0.0208085645 0.0205837954 -0.0101573551
v -0.0459039584 0.0398323461 0.0183426458
v -0.0461635031 0.0398323461 0.0183063783
v -0.046404507 0.0398323461 0.0182059482
v -0.0206077266 0.0188368876 0.00964144152
v -0.0219085347 0.0178351644 0.0183426458
v -0.0198414549 0.030307835 -0.000806141004
v -0.0198476352 0.0301408824 -0.000820089714
v -0.0198476352 0.0296563078 -0.000295618287
v -0.0198414549 0.0296848118 -0.000128233791
v -0.0236079264 0.0538320318 0.00984230265
v -0.0236079264 0.0548337549 0.00884078536
v -0.0234070905 0.0546301529 -0.00907214545
v -0.0206077266 0.0357480869 -0.00576909166
v -0.0206077266 0.0356055647 -0.00590299908
v -0.0206108168 0.0354589708 -0.0060369065
v -0.0206077266 0.0338464417 -0.00712211616
v -0.0206077266 0.0320058763 -0.00777491555
v -0.0206077266 0.0206652358 -0.00994533487
v -0.0299080387 0.0398323461 0.0183426458
v -0.0198476352 0.0296725966 4.19404532e-05
v -0.0198476352 0.0301978905 0.000521776034
v -0.0198414549 0.0303648431 0.000493878615
v -0.0206077266 0.0205837954 0.00964144152
v -0.0206077266 0.0206652358 0.00963028241
v -0.0206077266 0.0312403329 0.00758819189
v -0.0206077266 0.0331338346 0.00712230476
v -0.0234070905 0.0537505895 0.00964144152
v -0.0292004738 0.0398323461 0.0180497225
v -0.02940749 0.0398323461 0.0182059482
v -0.0296484958 0.0398323461 0.0183063783
v -0.0198476352 0.0304747894 -0.000834038423
v -0.0198476352 0.0310000833 -0.000354202872
v -0.0198414549 0.0309837945 -0.000184028628
v -0.0234070905 0.0546301529 0.00875709299
v -0.0206077266 0.0381220877 -0.00055227452
v -0.0206077266 0.0377800353 -0.00247161672
v -0.0206077266 0.036969699 -0.00424868241
v -0.0198538136 0.0310245156 -0.000435105379
v -0.0198538136 0.0305521581 -0.000864725618
v -0.0198476352 0.0310163703 -1.66441205e-05
v -0.0198476352 0.0305317976 0.000507827324
v -0.0198538136 0.030613238 0.000532934966
v -0.0206077266 0.0348522365 0.00619890029
v -0.0206077266 0.0362896658 0.00487656286
v -0.0206077266 0.0379754938 0.00139496522
v -0.0206077266 0.0373524725 0.00324456394
v -0.0198538136 0.0310448743 6.14686433e-05
v -0.00941120926 -0.0157027636 -0.0160552021
v -0.0113591338 -0.0151985837 -0.0160552021
v -0.0113121485 -0.0151900863 -0.0171559248
v -0.0110654766 -0.0151985837 -0.0171559248
v -0.00740259513 -0.0157027636 -0.0160552021
v -0.00941120926 -0.0157027636 0.0157404914
v -0.0115490314 -0.0151221072 -0.0171559248
v -0.0113591338 -0.0151985837 0.0157404914
v -0.0112651633 -0.0148926768 -0.0174573548
v -0.00574832736 -0.0151985837 -0.0171559248
v -0.0110928845 -0.0148983421 -0.0174573548
v -0.0055016554 -0.0151900863 -0.0171559248
v -0.00545467017 -0.0151985837 -0.0160552021
v -0.00740259513 -0.0157027636 0.0157404914
v -0.0110654766 -0.0151985837 0.0168412142
v -0.0113121485 -0.0151900863 0.0168412142
v -0.0131210759 -0.0142270466 -0.0171559248
v -0.0129448818 -0.0139862867 -0.0174573548
v -0.0114315692 -0.0148445247 -0.0174573548
v -0.0115490314 -0.0151221072 0.0168412142
v -0.00572091946 -0.0148983421 -0.0174573548
v -0.00554864062 -0.0148926768 -0.0174573548
v -0.0052647721 -0.0151221072 -0.0171559248
v -0.00545467017 -0.0151985837 0.0157404914
v -0.0055016554 -0.0151900863 0.0168412142
v -0.00574832736 -0.0151985837 0.0168412142
v -0.0110928845 -0.0148983421 0.0171426442
v -0.0112651633 -0.0148926768 0.0171426442
v -0.0145834871 -0.0128476331 -0.0171559248
v -0.0131210759 -0.0142270466 0.0168412142
v -0.0143524772 -0.0126578575 -0.0174573548
v -0.0114315692 -0.0148445247 0.0171426442
v -0.0129448818 -0.0139862867 0.0171426442
v -0.0053822347 -0.0148445247 -0.0174573548
v -0.00386892236 -0.0139862867 -0.0174573548
v -0.00369272823 -0.0142270466 -0.0171559248
v -0.0052647721 -0.0151221072 0.0168412142
v -0.00554864062 -0.0148926768 0.0171426442
v -0.00572091946 -0.0148983421 0.0171426442
v -0.0156563148 -0.0111453189 -0.0171559248
v -0.0145834871 -0.0128476331 0.0168412142
v -0.0153841926 -0.0110178571 -0.0174573548
v -0.0143524772 -0.0126578575 0.0171426442
v -0.00246132654 -0.0126578575 -0.0174573548
v -0.0022303164 -0.0128476331 -0.0171559248
v -0.00369272823 -0.0142270466 0.0168412142
v -0.00386892236 -0.0139862867 0.0171426442
v -0.0053822347 -0.0148445247 0.0171426442
v -0.0157620311 -0.0109073911 -0.0171559248
v -0.0156563148 -0.0111453189 0.0168412142
v -0.0154859936 -0.0107884267 -0.0174573548
v -0.0153841926 -0.0110178571 0.0171426442
v -0.0014296117 -0.0110178571 -0.0174573548
v -0.00115748949 -0.0111453189 -0.0171559248
v -0.0022303164 -0.0128476331 0.0168412142
v -0.00246132654 -0.0126578575 0.0171426442
v -0.0162710361 -0.00923056807 -0.015956983
v -0.0158305503 -0.0106722955 -0.0171559248
v -0.0155349365 -0.0106241442 -0.0174573548
v -0.0157620311 -0.0109073911 0.0168412142
v -0.0154859936 -0.0107884267 0.0171426442
v -0.00132781058 -0.0107884267 -0.0174573548
v -0.00105177297 -0.0109073911 -0.0171559248
v -0.00115748949 -0.0111453189 0.0168412142
v -0.0014296117 -0.0110178571 0.0171426442
v -0.0183207616 0.00177924475 -0.0171559248
v -0.0170208402 -0.00519713014 -0.0171559248
v -0.0162710361 -0.00923056807 0.0156422723
v -0.016727183 -0.0051433132 -0.0174573548
v -0.0155349365 -0.0106241442 0.0171426442
v -0.0158305503 -0.0106722955 0.0168412142
v -0.00127886771 -0.0106241442 -0.0174573548
v -0.000983253005 -0.0106722955 -0.0171559248
v -0.000670018897 -0.00979422964 -0.0146564348
v -0.00105177297 -0.0109073911 0.0168412142
v -0.00132781058 -0.0107884267 0.0171426442
v -0.0184069015 0.00269413274 -0.0171559248
v -0.0180271044 0.00183306169 -0.0174573548
v -0.0183207616 0.00177924475 0.0168412142
v -0.0170208402 -0.00519713014 0.0168412142
v -0.016727183 -0.0051433132 0.0171426442
v -8.66203263e-05 -0.0051433132 -0.0174573548
v 0.000207036675 -0.00519713014 -0.0171559248
v -0.000542767521 -0.00923056807 -0.015956983
v -0.000670018897 -0.00979422964 0.0143417241
v -0.000983253005 -0.0106722955 0.0168412142
v -0.00127886771 -0.0106241442 0.0171426442
v -0.0184069015 0.00830808934 -0.0171559248
v -0.0181054138 0.00269413274 -0.0174573548
v -0.0184069015 0.00269413274 0.0168412142
v -0.0180271044 0.00183306169 0.0171426442
v 0.00121330132 0.00183306169 -0.0174573548
v 0.00150695827 0.00177924475 -0.0171559248
v -0.000542767521 -0.00923056807 0.0156422723
v 0.000207036675 -0.00519713014 0.0168412142
v -8.66203263e-05 -0.0051433132 0.0171426442
v -0.0184069015 0.0132337557 -0.0166546721
v -0.0181054138 0.00843271799 -0.0174573548
v -0.0181054138 0.00269413274 0.0171426442
v -0.0184069015 0.00830808934 0.0168412142
v 0.00129160983 0.00269413274 -0.0174573548
v 0.0015930977 0.00269413274 -0.0171559248
v 0.00150695827 0.00177924475 0.0168412142
v 0.00121330132 0.00183306169 0.0171426442
v 0.0015930977 0.0132337557 -0.0166546721
v -0.0184069015 0.0132337557 0.0163399614
v 0.00129160983 0.00843271799 -0.0174573548
v -0.0181054138 0.00843271799 0.0171426442
v 0.0015930977 0.00830808934 -0.0171559248
v 0.0015930977 0.00269413274 0.0168412142
v 0.00129160983 0.00269413274 0.0171426442
v 0.0015930977 0.0132337557 0.0163399614
v 0.00129160983 0.00843271799 0.0171426442
v 0.0015930977 0.00830808934 0.0168412142
g 
f 3 1 2 5
f 4 1 3 8
f 2 1 4 6
f 5 2 6 9
f 7 3 5
f 8 3 7
f 9 4 8
f 6 4 9
f 10 5 9
f 11 5 10
f 12 5 11
f 13 5 12
f 7 5 13
f 10 7 13 12 11
f 8 7 10
f 9 8 10
f 16 14 15
f 17 14 16
f 18 14 17
f 19 14 18
f 20 14 19
f 21 14 20
f 22 14 21
f 23 14 22
f 15 14 23 24
f 16 15 24 25
f 17 16 25 26
f 18 17 26
f 22 18 26
f 19 18 22 21 20
f 23 22 26
f 24 23 26 25
f 29 27 28 37
f 30 27 29
f 31 27 30
f 32 27 31
f 33 27 32
f 34 27 33
f 35 27 34
f 36 27 35
f 28 27 36 49 64 56 38
f 37 28 38 54
f 39 29 37
f 40 29 39
f 41 29 40
f 42 29 41
f 43 29 42
f 44 29 43
f 45 29 44
f 46 29 45
f 47 29 46
f 30 29 47
f 43 30 47
f 34 30 43
f 31 30 34
f 32 31 34
f 33 32 34
f 48 34 43 60
f 35 34 48
f 36 35 48
f 49 36 48 61
f 51 37 50
f 52 37 51
f 53 37 52
f 39 37 53
f 55 37 54
f 50 37 55
f 57 38 56
f 54 38 57 68
f 40 39 53 58
f 42 40 58
f 41 40 42
f 59 42 58
f 60 42 59
f 43 42 60
f 46 43 47
f 45 43 46
f 44 43 45
f 61 48 60 75
f 62 49 61
f 63 49 62
f 64 49 63
f 65 50 55 69 83
f 51 50 65 66
f 52 51 66 67
f 53 52 67 58
f 55 54 68
f 69 55 68 87
f 57 56 64 63
f 70 57 63
f 71 57 70
f 72 57 71
f 73 57 72
f 68 57 73
f 59 58 67
f 60 59 74 75
f 66 59 67
f 65 59 66
f 74 59 65 83
f 76 61 75 98
f 62 61 76
f 77 62 76
f 78 62 77
f 79 62 78
f 80 62 79
f 81 62 80
f 82 62 81
f 63 62 82
f 70 63 82
f 84 68 73
f 85 68 84
f 86 68 85
f 87 68 86
f 88 69 87
f 89 69 88
f 90 69 89
f 91 69 90
f 74 69 91
f 92 69 74
f 93 69 92
f 94 69 93
f 83 69 94
f 96 70 95
f 97 70 96
f 73 70 97 86
f 72 70 73
f 71 70 72
f 95 70 82
f 84 73 86
f 75 74 91
f 94 74 83
f 93 74 94
f 92 74 93
f 98 75 91
f 100 76 99
f 101 76 100
f 77 76 101
f 99 76 98
f 102 77 101
f 78 77 102
f 103 78 102
f 80 78 103
f 79 78 80
f 95 80 103
f 81 80 95
f 82 81 95
f 85 84 86
f 104 86 97
f 105 86 104
f 90 86 105
f 89 86 90
f 88 86 89
f 87 86 88
f 106 90 105
f 107 90 106
f 91 90 107
f 108 91 107
f 98 91 108
f 102 95 103
f 96 95 102
f 101 96 102
f 100 96 101
f 97 96 100
f 99 97 100
f 109 97 99
f 104 97 109
f 110 98 108
f 109 98 110
f 99 98 109
f 106 104 111
f 105 104 106
f 110 104 109
f 111 104 110
f 108 106 111
f 107 106 108
f 110 108 111
f 114 112 113
f 115 112 114
f 116 112 115 121
f 117 112 116 125
f 113 112 117 119
f 114 113 118
f 118 113 119 131
f 120 114 118
f 115 114 120
f 122 115 120
f 121 115 122 132
f 123 116 121
f 124 116 123
f 125 116 124 135
f 126 117 125 137
f 127 117 126
f 119 117 127
f 129 118 128
f 130 118 129
f 120 118 130
f 128 118 131 141
f 131 119 127
f 122 120 130 129 142 153 162 170 180 189 200 209 218 212 203 193 183 173 164 155 146 145 133 132
f 133 121 132
f 123 121 133
f 124 123 134
f 134 123 133
f 135 124 134 148
f 136 125 135
f 137 125 136
f 138 126 137 150
f 139 126 138
f 127 126 139
f 131 127 139
f 129 128 140
f 140 128 141 152
f 142 129 140
f 143 131 139
f 144 131 143
f 141 131 144
f 134 133 145
f 146 134 145
f 147 134 146
f 148 134 147 157
f 136 135 148
f 149 136 148
f 137 136 149
f 150 137 149
f 139 138 150 149 159 158 167 176 187 198 207 215 222 224 219 210 202 192 181 172 163 154 144 143
f 142 140 151
f 151 140 152 161
f 152 141 144
f 153 142 151
f 152 144 154
f 156 146 155
f 147 146 156
f 157 147 156 166
f 158 148 157
f 159 148 158
f 149 148 159
f 153 151 160
f 160 151 161 171
f 161 152 154
f 162 153 160
f 161 154 163
f 165 155 164
f 156 155 165
f 166 156 165 175
f 158 157 166
f 167 158 166
f 169 160 168
f 170 160 169
f 162 160 170
f 168 160 171 179
f 171 161 163
f 171 163 172
f 174 164 173
f 165 164 174
f 175 165 174 186
f 167 166 175
f 176 167 175
f 178 168 177
f 169 168 178
f 177 168 179 190
f 180 169 178
f 170 169 180
f 181 171 172
f 182 171 181
f 179 171 182
f 174 173 183
f 184 174 183
f 185 174 184
f 186 174 185 196
f 176 175 186
f 187 176 186
f 189 177 188
f 178 177 189 180
f 188 177 190 201
f 191 179 182
f 190 179 191
f 182 181 192
f 191 182 192
f 184 183 193
f 194 184 193
f 195 184 194
f 185 184 195
f 196 185 195 205
f 197 186 196
f 198 186 197
f 187 186 198
f 200 188 199 209
f 189 188 200
f 199 188 201 211 217 208
f 202 190 191 192
f 201 190 202
f 194 193 203 204
f 195 194 204
f 205 195 204 214
f 197 196 205
f 207 197 206
f 198 197 207
f 206 197 205
f 209 199 208
f 210 201 202
f 211 201 210 219
f 213 203 212
f 204 203 213
f 214 204 213 221
f 206 205 214
f 207 206 214 215
f 209 208 216 218
f 216 208 217 223
f 217 211 219
f 213 212 218 220
f 221 213 220 216 223 225
f 215 214 221
f 222 215 221
f 218 216 220
f 223 217 219 224
f 222 221 225 224
f 225 223 224
