# File exported by Houdini 20.5.410 (www.sidefx.com)
# 472 points
# 1896 vertices
# 500 primitives
# Bounds: [-0.023784034, -0.0191433635, -0.0147654461] to [-0.000784034026, 0.0148566365, 0.0147654461]
g 
v -0.0137840342 0.00975663681 0.0110996673
v -0.0126452716 0.00960589293 0.0110996673
v -0.012775342 0.00912351254 0.00820021518
v -0.0137840342 0.00925616734 0.00820021518
v -0.0147927264 0.00912351254 0.00820021518
v -0.0149227967 0.00960589293 0.0110996673
v -0.0115840342 0.00916658156 0.0110996673
v -0.0130079184 0.008254366 0.00770033291
v -0.0118346997 0.00873330049 0.00820021518
v -0.0122843478 0.0079546012 0.00770033291
v -0.0137840342 0.00835601054 0.00770033291
v -0.01456015 0.008254366 0.00770033291
v -0.0152837206 0.0079546012 0.00770033291
v -0.0157333687 0.00873330049 0.00820021518
v -0.0159840342 0.00916658156 0.0110996673
v -0.0106735406 0.00846713036 0.0110996673
v -0.0110267121 0.00811395887 0.00820021518
v -0.0116632823 0.00747738872 0.00770033291
v -0.0159047861 0.00747738872 0.00770033291
v -0.0165413562 0.00811395887 0.00820021518
v -0.0168945268 0.00846713036 0.0110996673
v -0.00997408945 0.00755577534 0.0110996673
v -0.0104073705 0.00730597135 0.00820021518
v -0.0111860698 0.00685632369 0.00770033291
v -0.0163819976 0.00685632369 0.00770033291
v -0.0171606988 0.00730597135 0.00820021518
v -0.0175939798 0.00755577534 0.0110996673
v -0.00953477807 0.0064953994 0.0110996673
v -0.0100171585 0.00636532903 0.00820021518
v -0.010886305 0.00613275263 0.00770033291
v -0.0166817624 0.00613275263 0.00770033291
v -0.0175509099 0.00636532903 0.00820021518
v -0.0180332903 0.0064953994 0.0110996673
v -0.0093840342 0.00535663683 0.0110996673
v -0.00988450367 0.00535663683 0.00820021518
v -0.0107846605 0.00535663683 0.00770033291
v -0.016783407 0.00535663683 0.00770033291
v -0.0176835638 0.00535663683 0.00820021518
v -0.0181840342 0.00535663683 0.0110996673
v -0.00953477807 0.00421787426 0.0110996673
v -0.0100171585 0.00434794463 0.00820021518
v -0.010886305 0.00458052102 0.00770033291
v -0.0166817624 0.00458052102 0.00770033291
v -0.0175509099 0.00434794463 0.00820021518
v -0.0180332903 0.00421787426 0.0110996673
v -0.00997408945 0.00315663684 0.0110996673
v -0.0104073705 0.00340730255 0.00820021518
v -0.0111860698 0.00385695021 0.00770033291
v -0.0163819976 0.00385695021 0.00770033291
v -0.0175939798 0.00315663684 0.0110996673
v -0.0171606988 0.00340730255 0.00820021518
v -0.0106735406 0.00224614353 0.0110996673
v -0.0110267121 0.00259931502 0.00820021518
v -0.0116632823 0.00323588517 0.00770033291
v -0.0165413562 0.00259931502 0.00820021518
v -0.0159047861 0.00323588517 0.00770033291
v -0.0168945268 0.00224614353 0.0110996673
v -0.0115840342 0.00154669175 0.0110996673
v -0.0118346997 0.00197997293 0.00820021518
v -0.0122843478 0.00275867293 0.00770033291
v -0.0152837206 0.00275867293 0.00770033291
v -0.0157333687 0.00197997293 0.00820021518
v -0.0159840342 0.00154669175 0.0110996673
v -0.0126452716 0.00110738084 0.0110996673
v -0.012775342 0.00158976146 0.00820021518
v -0.0130079184 0.0024589079 0.00770033291
v -0.01456015 0.0024589079 0.00770033291
v -0.0147927264 0.00158976146 0.00820021518
v -0.0149227967 0.00110738084 0.0110996673
v -0.0137840342 0.000956636912 0.0110996673
v -0.0137840342 0.00145710679 0.00820021518
v -0.0137840342 0.00235726335 0.00770033291
v -0.00538403401 0.0105566373 -0.0104499999
v -0.00520286709 0.0105326558 -0.0104499999
v -0.00538403401 0.0105566373 -0.0110999998
v -0.00556520093 0.0105326558 -0.0104499999
v -0.00520286709 0.0105326558 -0.0110999998
v -0.00503417104 0.0104627647 -0.0104499999
v -0.00556520093 0.0105326558 -0.0110999998
v -0.00573389698 0.0104627647 -0.0104499999
v -0.00503417104 0.0104627647 -0.0110999998
v -0.00488918275 0.0103514884 -0.0104499999
v -0.00573389698 0.0104627647 -0.0110999998
v -0.00587888528 0.0103514884 -0.0104499999
v -0.00488918275 0.0103514884 -0.0110999998
v -0.004777906 0.0102065001 -0.0104499999
v -0.00587888528 0.0103514884 -0.0110999998
v -0.00599016203 0.0102065001 -0.0104499999
v -0.004777906 0.0102065001 -0.0110999998
v -0.00470801583 0.010037804 -0.0104499999
v -0.00599016203 0.0102065001 -0.0110999998
v -0.0060600522 0.010037804 -0.0104499999
v -0.00470801583 0.010037804 -0.0110999998
v -0.0046840338 0.00985663757 -0.0104499999
v -0.0060600522 0.010037804 -0.0110999998
v -0.00608403422 0.00985663757 -0.0104499999
v -0.0046840338 0.00985663757 -0.0110999998
v -0.00470801583 0.00967547018 -0.0104499999
v -0.00608403422 0.00985663757 -0.0110999998
v -0.0060600522 0.00967547018 -0.0104499999
v -0.00470801583 0.00967547018 -0.0110999998
v -0.004777906 0.00950677413 -0.0104499999
v -0.0060600522 0.00967547018 -0.0110999998
v -0.00599016203 0.00950677413 -0.0104499999
v -0.004777906 0.00950677413 -0.0110999998
v -0.00488918275 0.00936178584 -0.0104499999
v -0.00599016203 0.00950677413 -0.0110999998
v -0.00587888528 0.00936178584 -0.0104499999
v -0.00488918275 0.00936178584 -0.0110999998
v -0.00503417104 0.00925050955 -0.0104499999
v -0.00587888528 0.00936178584 -0.0110999998
v -0.00573389698 0.00925050955 -0.0104499999
v -0.00503417104 0.00925050955 -0.0110999998
v -0.00520286709 0.00918061845 -0.0104499999
v -0.00573389698 0.00925050955 -0.0110999998
v -0.00556520093 0.00918061845 -0.0104499999
v -0.00520286709 0.00918061845 -0.0110999998
v -0.00538403401 0.00915663689 -0.0104499999
v -0.00556520093 0.00918061845 -0.0110999998
v -0.00538403401 0.00915663689 -0.0110999998
v -0.00888403412 -0.0168433636 -0.0104499999
v -0.00870286766 -0.0168673452 -0.0104499999
v -0.00888403412 -0.0168433636 -0.0110999998
v -0.00906520057 -0.0168673452 -0.0104499999
v -0.00870286766 -0.0168673452 -0.0110999998
v -0.00853403471 -0.0169372354 -0.0104499999
v -0.00906520057 -0.0168673452 -0.0110999998
v -0.00923403352 -0.0169372354 -0.0104499999
v -0.00853403471 -0.0169372354 -0.0110999998
v -0.00838918332 -0.0170485117 -0.0104499999
v -0.00923403352 -0.0169372354 -0.0110999998
v -0.00937888492 -0.0170485117 -0.0104499999
v -0.00838918332 -0.0170485117 -0.0110999998
v -0.00827790704 -0.0171935 -0.0104499999
v -0.00937888492 -0.0170485117 -0.0110999998
v -0.0094901612 -0.0171935 -0.0104499999
v -0.00827790704 -0.0171935 -0.0110999998
v -0.00820801593 -0.017362196 -0.0104499999
v -0.0094901612 -0.0171935 -0.0110999998
v -0.00956005231 -0.017362196 -0.0104499999
v -0.00820801593 -0.017362196 -0.0110999998
v -0.00818403438 -0.0175433643 -0.0104499999
v -0.00956005231 -0.017362196 -0.0110999998
v -0.00958403386 -0.0175433643 -0.0104499999
v -0.00818403438 -0.0175433643 -0.0110999998
v -0.00820801593 -0.0177245308 -0.0104499999
v -0.00958403386 -0.0175433643 -0.0110999998
v -0.00956005231 -0.0177245308 -0.0104499999
v -0.00820801593 -0.0177245308 -0.0110999998
v -0.00827790704 -0.0178932268 -0.0104499999
v -0.00956005231 -0.0177245308 -0.0110999998
v -0.0094901612 -0.0178932268 -0.0104499999
v -0.00827790704 -0.0178932268 -0.0110999998
v -0.00838918332 -0.0180382151 -0.0104499999
v -0.0094901612 -0.0178932268 -0.0110999998
v -0.00937888492 -0.0180382151 -0.0104499999
v -0.00838918332 -0.0180382151 -0.0110999998
v -0.00853403471 -0.0181494914 -0.0104499999
v -0.00937888492 -0.0180382151 -0.0110999998
v -0.00923403352 -0.0181494914 -0.0104499999
v -0.00853403471 -0.0181494914 -0.0110999998
v -0.00870286766 -0.0182193816 -0.0104499999
v -0.00923403352 -0.0181494914 -0.0110999998
v -0.00906520057 -0.0182193816 -0.0104499999
v -0.00870286766 -0.0182193816 -0.0110999998
v -0.00888403412 -0.0182433631 -0.0104499999
v -0.00906520057 -0.0182193816 -0.0110999998
v -0.00888403412 -0.0182433631 -0.0110999998
v -0.0135538168 0.00889914483 -0.0118000004
v -0.0137843089 0.00870634615 -0.0105999997
v -0.0129171843 0.00859191455 -0.0105999997
v -0.0126450369 0.00871813577 -0.0118000004
v -0.0144778695 0.00883742142 -0.0118000004
v -0.0146507397 0.00859191455 -0.0105999997
v -0.0121090719 0.00825763773 -0.0105999997
v -0.0118133193 0.00830895826 -0.0118000004
v -0.0153554082 0.00853920728 -0.0118000004
v -0.0154588521 0.00825763773 -0.0105999997
v -0.0114155114 0.00772501295 -0.0105999997
v -0.0111162877 0.00769796548 -0.0118000004
v -0.0161253363 0.00802392047 -0.0118000004
v -0.0161524136 0.00772501295 -0.0105999997
v -0.0108830174 0.00703149149 -0.0105999997
v -0.0106011499 0.0069281566 -0.0118000004
v -0.016736282 0.00732693169 -0.0118000004
v -0.0166849066 0.00703149149 -0.0105999997
v -0.0105483867 0.00622353889 -0.0105999997
v -0.0103026209 0.00605015829 -0.0118000004
v -0.0171458907 0.00649609277 -0.0118000004
v -0.0170195363 0.00622353889 -0.0105999997
v -0.0104345288 0.00535663683 -0.0105999997
v -0.0102415262 0.00512638781 -0.0118000004
v -0.0173263978 0.00558688585 -0.0118000004
v -0.0171333943 0.00535663683 -0.0105999997
v -0.0105483867 0.00448973477 -0.0105999997
v -0.0104220323 0.00421718089 -0.0118000004
v -0.0173340347 0.00535663683 -0.0118000004
v -0.0172653031 0.00466311537 -0.0118000004
v -0.0170195363 0.00448973477 -0.0105999997
v -0.0108830174 0.0036817824 -0.0105999997
v -0.0108316429 0.0033863422 -0.0118000004
v -0.0169667732 0.00378511706 -0.0118000004
v -0.0166849066 0.0036817824 -0.0105999997
v -0.0114155114 0.00298826071 -0.0105999997
v -0.0114425868 0.00268935296 -0.0118000004
v -0.0164516363 0.00301530818 -0.0118000004
v -0.0161524136 0.00298826071 -0.0105999997
v -0.0121090719 0.00245563616 -0.0105999997
v -0.0122125158 0.00217406661 -0.0118000004
v -0.0157546047 0.00240431563 -0.0118000004
v -0.0154588521 0.00245563616 -0.0105999997
v -0.0129171843 0.00212135888 -0.0105999997
v -0.0130900545 0.00187585223 -0.0118000004
v -0.0149228871 0.00199513789 -0.0118000004
v -0.0146507397 0.00212135888 -0.0105999997
v -0.0137843089 0.00200692774 -0.0105999997
v -0.0140141072 0.00181412883 -0.0118000004
v -0.0228840336 -0.0140433628 -0.0110999998
v -0.0228600521 -0.0142245302 -0.0110999998
v -0.0228840336 -0.0140433628 -0.0104499999
v -0.0228600521 -0.0138621964 -0.0110999998
v -0.0228600521 -0.0142245302 -0.0104499999
v -0.0227901619 -0.0143932262 -0.0110999998
v -0.0228600521 -0.0138621964 -0.0104499999
v -0.0227901619 -0.0136935003 -0.0110999998
v -0.0227901619 -0.0143932262 -0.0104499999
v -0.0226788856 -0.0145382145 -0.0110999998
v -0.0227901619 -0.0136935003 -0.0104499999
v -0.0226788856 -0.013548512 -0.0110999998
v -0.0226788856 -0.0145382145 -0.0104499999
v -0.0225338973 -0.0146494908 -0.0110999998
v -0.0226788856 -0.013548512 -0.0104499999
v -0.0225338973 -0.0134372357 -0.0110999998
v -0.0225338973 -0.0146494908 -0.0104499999
v -0.0223652013 -0.0147193819 -0.0110999998
v -0.0225338973 -0.0134372357 -0.0104499999
v -0.0223652013 -0.0133673446 -0.0110999998
v -0.0223652013 -0.0147193819 -0.0104499999
v -0.0221840329 -0.0147433635 -0.0110999998
v -0.0223652013 -0.0133673446 -0.0104499999
v -0.0221840329 -0.0133433631 -0.0110999998
v -0.0221840329 -0.0147433635 -0.0104499999
v -0.0220028665 -0.0147193819 -0.0110999998
v -0.0221840329 -0.0133433631 -0.0104499999
v -0.0220028665 -0.0133673446 -0.0110999998
v -0.0220028665 -0.0147193819 -0.0104499999
v -0.0218341704 -0.0146494908 -0.0110999998
v -0.0220028665 -0.0133673446 -0.0104499999
v -0.0218341704 -0.0134372357 -0.0110999998
v -0.0218341704 -0.0146494908 -0.0104499999
v -0.0216891821 -0.0145382145 -0.0110999998
v -0.0218341704 -0.0134372357 -0.0104499999
v -0.0216891821 -0.013548512 -0.0110999998
v -0.0216891821 -0.0145382145 -0.0104499999
v -0.0215779059 -0.0143932262 -0.0110999998
v -0.0216891821 -0.013548512 -0.0104499999
v -0.0215779059 -0.0136935003 -0.0110999998
v -0.0215779059 -0.0143932262 -0.0104499999
v -0.0215080157 -0.0142245302 -0.0110999998
v -0.0215779059 -0.0136935003 -0.0104499999
v -0.0215080157 -0.0138621964 -0.0110999998
v -0.0215080157 -0.0142245302 -0.0104499999
v -0.0214840341 -0.0140433628 -0.0110999998
v -0.0215080157 -0.0138621964 -0.0104499999
v -0.0214840341 -0.0140433628 -0.0104499999
v -0.0228840336 0.00985663757 -0.0110999998
v -0.0228600521 0.00967547018 -0.0110999998
v -0.0228840336 0.00985663757 -0.0104499999
v -0.0228600521 0.010037804 -0.0110999998
v -0.0228600521 0.00967547018 -0.0104499999
v -0.0227901619 0.00950677413 -0.0110999998
v -0.0228600521 0.010037804 -0.0104499999
v -0.0227901619 0.0102065001 -0.0110999998
v -0.0227901619 0.00950677413 -0.0104499999
v -0.0226788856 0.00936178584 -0.0110999998
v -0.0227901619 0.0102065001 -0.0104499999
v -0.0226788856 0.0103514884 -0.0110999998
v -0.0226788856 0.00936178584 -0.0104499999
v -0.0225338973 0.00925050955 -0.0110999998
v -0.0226788856 0.0103514884 -0.0104499999
v -0.0225338973 0.0104627647 -0.0110999998
v -0.0225338973 0.00925050955 -0.0104499999
v -0.0223652013 0.00918061845 -0.0110999998
v -0.0225338973 0.0104627647 -0.0104499999
v -0.0223652013 0.0105326558 -0.0110999998
v -0.0223652013 0.00918061845 -0.0104499999
v -0.0221840329 0.00915663689 -0.0110999998
v -0.0223652013 0.0105326558 -0.0104499999
v -0.0221840329 0.0105566373 -0.0110999998
v -0.0221840329 0.00915663689 -0.0104499999
v -0.0220028665 0.00918061845 -0.0110999998
v -0.0221840329 0.0105566373 -0.0104499999
v -0.0220028665 0.0105326558 -0.0110999998
v -0.0220028665 0.00918061845 -0.0104499999
v -0.0218341704 0.00925050955 -0.0110999998
v -0.0220028665 0.0105326558 -0.0104499999
v -0.0218341704 0.0104627647 -0.0110999998
v -0.0218341704 0.00925050955 -0.0104499999
v -0.0216891821 0.00936178584 -0.0110999998
v -0.0218341704 0.0104627647 -0.0104499999
v -0.0216891821 0.0103514884 -0.0110999998
v -0.0216891821 0.00936178584 -0.0104499999
v -0.0215779059 0.00950677413 -0.0110999998
v -0.0216891821 0.0103514884 -0.0104499999
v -0.0215779059 0.0102065001 -0.0110999998
v -0.0215779059 0.00950677413 -0.0104499999
v -0.0215080157 0.00967547018 -0.0110999998
v -0.0215779059 0.0102065001 -0.0104499999
v -0.0215080157 0.010037804 -0.0110999998
v -0.0215080157 0.00967547018 -0.0104499999
v -0.0214840341 0.00985663757 -0.0110999998
v -0.0215080157 0.010037804 -0.0104499999
v -0.0214840341 0.00985663757 -0.0104499999
v -0.0162840337 0.0128566371 -0.0079013845
v -0.0162840337 0.0128566371 -0.00730000017
v -0.0162840337 0.0129626775 -0.00730000017
v -0.0112840338 0.0128566371 -0.0079013845
v -0.0112840338 0.0128566371 -0.00730000017
v -0.0112840338 0.0129626775 -0.00730000017
v -0.00328393606 -0.0181433633 0.00172072591
v -0.0037788949 -0.018138282 0.0017210329
v -0.00228403392 -0.0171435364 0.00229815906
v -0.00328393606 -0.0181433633 0.00485685421
v -0.0037788949 -0.018138282 0.00485685421
v -0.00378403394 -0.0180043671 0.00485685421
v -0.00378403394 -0.0177907925 0.00419070339
v -0.00378403394 -0.0174160842 0.00360037689
v -0.00378403394 -0.0169049203 0.0031236338
v -0.00378403394 -0.0162895992 0.00279117213
v -0.00228403392 -0.0162895992 0.00279117213
v -0.00228403392 -0.0171435364 0.00331580453
v -0.00314503629 -0.0180043671 0.00485685421
v -0.00378403394 0.0120028732 0.00279117213
v -0.00378403394 0.0126181934 0.0031236338
v -0.0037788949 0.0138515569 0.0017210329
v -0.00228403392 0.0120028732 0.00279117213
v -0.00378403394 0.0137176411 0.00485685421
v -0.00378403394 0.0131293582 0.00360037689
v -0.00328393606 0.0138566373 0.00172072591
v -0.00228403392 0.0128568094 0.00229815906
v -0.00378403394 0.0135040665 0.00419070339
v -0.0037788949 0.0138515569 0.00485685421
v -0.00228403392 0.0128568094 0.00331580453
v -0.00314503629 0.0137176411 0.00485685421
v -0.00328393606 0.0138566373 0.00485685421
v -0.00328393606 -0.0181433633 -0.00545685412
v -0.0037788949 -0.018138282 -0.00545685412
v -0.00314503629 -0.0180043671 -0.00545685412
v -0.00228403392 -0.0171435364 -0.00391580444
v -0.00328393606 -0.0181433633 -0.00232072594
v -0.00378403394 -0.0180043671 -0.00545685412
v -0.0037788949 -0.018138282 -0.00232103281
v -0.00228403392 -0.0162895992 -0.00339117227
v -0.00228403392 -0.0171435364 -0.0028981592
v -0.00378403394 -0.0177907925 -0.0047907033
v -0.00378403394 -0.0162895992 -0.00339117227
v -0.00378403394 -0.0169049203 -0.00372363371
v -0.00378403394 -0.0174160842 -0.00420037657
v -0.00378403394 0.0120028732 -0.00339117227
v -0.00228403392 0.0120028732 -0.00339117227
v -0.0037788949 0.0138515569 -0.00232103281
v -0.00378403394 0.0126181934 -0.00372363371
v -0.00378403394 0.0137176411 -0.00545685412
v -0.00314503629 0.0137176411 -0.00545685412
v -0.00228403392 0.0128568094 -0.00391580444
v -0.00228403392 0.0128568094 -0.0028981592
v -0.00328393606 0.0138566373 -0.00232072594
v -0.0037788949 0.0138515569 -0.00545685412
v -0.00378403394 0.0135040665 -0.0047907033
v -0.00378403394 0.0131293582 -0.00420037657
v -0.00328393606 0.0138566373 -0.00545685412
v -0.0137541788 0.00600385666 0.0147654461
v -0.0139230313 0.00603380939 0.0147596644
v -0.0144318417 0.00538149942 0.0147654461
v -0.0131328003 0.00532824965 0.0147654461
v -0.0135853263 0.00602049707 0.0147596644
v -0.00319975452 0.0138548743 0.0139994239
v -0.00383464084 0.0138548743 0.0139994239
v -0.0140198404 0.0131526431 0.0139994239
v -0.0140018295 0.00606376259 0.0147538837
v -0.0144701144 0.00563443592 0.0147538837
v -0.0144476006 0.00555123342 0.0147596644
v -0.0159470141 0.0128497845 0.0139994239
v -0.0144611094 0.00521509396 0.0147596644
v -0.0139793158 0.004689252 0.0147596644
v -0.0138104632 0.00470589241 0.0147654461
v -0.0212670024 0.00755475694 0.0139994239
v -0.0215776917 0.00562777976 0.0139994239
v -0.0214020833 0.00368416193 0.0139994239
v -0.00178589381 0.0124404263 0.0139994239
v -0.0131035326 0.00549465511 0.0147596644
v -0.00319975452 -0.0181416012 0.0139994239
v -0.00178589381 -0.0167271532 0.0139994239
v -0.00278550223 0.0148566365 0.012999258
v -0.000784034026 0.0128564406 0.012999258
v -0.00383464084 0.0148566365 0.012999258
v -0.0140265943 0.0133523298 0.0137999682
v -0.0227821749 0.0148566365 0.010998928
v -0.0169353653 0.012490348 0.0139994239
v -0.0177391041 0.0120776622 0.0139994239
v -0.0192857962 0.0108828703 0.0139994239
v -0.0141436663 0.00615694979 0.0147365397
v -0.0209180396 0.00850659702 0.0139994239
v -0.0204857755 0.00934528187 0.0139994239
v -0.0227011256 0.0146536212 0.0111983828
v -0.0144926282 0.00513521908 0.0147538837
v -0.014060365 0.00466595544 0.0147538837
v -0.0071261446 -0.0151662687 0.0139994239
v -0.00383464084 -0.0181416012 0.0139994239
v -0.0235836618 0.0137716718 0.0111983828
v -0.023784034 0.0138548743 0.010998928
v -0.0217780638 0.005637764 0.0137999682
v -0.023784034 -0.0181416012 0.010998928
v -0.0235836618 -0.0180583987 0.0111983828
v -0.0207491871 0.00184704375 0.0139994239
v -0.00278550223 -0.0191433635 0.012999258
v -0.000784034026 -0.0171431676 0.012999258
v -0.00278550223 0.0148566365 -0.0135976234
v -0.000784034026 0.0128564406 -0.0135976234
v -0.0227821749 0.0148566365 -0.0115972925
v -0.019528944 7.9815858e-05 0.0139994239
v -0.00714190397 -0.0151496278 0.0139994239
v -0.0227011256 -0.0189403482 0.0111983828
v -0.0227821749 -0.0191433635 0.010998928
v -0.00383464084 -0.0191433635 0.012999258
v -0.023784034 0.0138548743 -0.0115972925
v -0.023784034 -0.0181416012 -0.0115972925
v -0.0196640268 0.000229580924 0.0139965331
v -0.00278550223 -0.0191433635 -0.0135976234
v -0.000784034026 -0.0171431676 -0.0135976234
v -0.00319975452 0.0138548743 -0.0145977885
v -0.00383464084 0.0148566365 -0.0135976234
v -0.00178589381 0.0124404263 -0.0145977885
v -0.0227011256 0.0146536212 -0.0117996382
v -0.0235836618 0.0137716718 -0.0117996382
v -0.0154337008 0.0131825954 -0.014499506
v -0.0153909251 0.0129862372 -0.0146989608
v -0.0227821749 -0.0191433635 -0.0115972925
v -0.0215709377 0.00577754481 -0.0146989608
v -0.021771308 0.00578752905 -0.014499506
v -0.0235836618 -0.0180583987 -0.0117996382
v -0.00383464084 -0.0191433635 -0.0135976234
v -0.00319975452 -0.0181416012 -0.0145977885
v -0.00178589381 -0.0167271532 -0.0145977885
v -0.00383464084 0.0138548743 -0.0145977885
v -0.00797941349 0.0105633708 -0.0146989608
v -0.0095261056 0.0118879601 -0.0146989608
v -0.00978501327 0.0120510375 -0.0146989608
v -0.0113609722 0.0127699096 -0.0146989608
v -0.0133601893 0.0131426584 -0.0146989608
v -0.0133511834 0.0133423451 -0.014499506
v -0.00599595672 0.00493220426 -0.0146989608
v -0.00615355233 0.0069623529 -0.0146989608
v -0.00682896376 0.00888267439 -0.0146989608
v -0.0173113439 0.0123106306 -0.0146989608
v -0.0189931169 0.0111591034 -0.0146989608
v -0.020316923 0.00961485878 -0.0146989608
v -0.0211972091 0.00777774071 -0.0146989608
v -0.0137834465 0.00600385666 -0.0147654461
v -0.0227011256 -0.0189403482 -0.0117996382
v -0.00383464084 -0.0181416012 -0.0145977885
v -0.0144318417 0.00535487477 -0.0147654461
v -0.0214155931 0.00374739617 -0.0146989608
v -0.00714190397 -0.0151496278 -0.0145977885
v -0.0071261446 -0.0151662687 -0.0145977885
v -0.0207379293 0.00182707503 -0.0146989608
v -0.0195874795 0.000146378108 -0.0146989608
v -0.0137834465 0.00470589241 -0.0147654461
v -0.0131328003 0.00535487477 -0.0147654461
v -0.00637193536 0.00293200859 -0.0146989608
v -0.0180430394 -0.00117821072 -0.0146989608
v -0.0162059218 -0.00206016074 -0.0146989608
g 
f 3 1 2
f 4 1 3
f 5 1 4
f 6 1 5
f 2 1 6 15 21 27 33 39 45 50 57 63 69 70 64 58 52 46 40 34 28 22 16 7
f 3 2 7
f 4 3 8
f 9 3 7
f 10 3 9
f 8 3 10
f 11 4 8
f 12 4 11
f 5 4 12
f 13 5 12
f 14 5 13
f 15 5 14
f 6 5 15
f 17 7 16
f 9 7 17
f 11 8 10 18 24 30 36 42 48 54 60 66 72 67 61 56 49 43 37 31 25 19 13 12
f 10 9 17
f 18 10 17
f 20 13 19
f 14 13 20
f 15 14 20
f 21 15 20
f 17 16 22
f 23 17 22
f 24 17 23
f 18 17 24
f 20 19 25
f 26 20 25
f 27 20 26
f 21 20 27
f 29 22 28
f 23 22 29
f 24 23 29
f 30 24 29
f 32 25 31
f 26 25 32
f 27 26 32
f 33 27 32
f 29 28 34
f 35 29 34
f 30 29 35
f 36 30 35
f 38 31 37
f 32 31 38
f 39 32 38
f 33 32 39
f 41 34 40
f 35 34 41
f 42 35 41
f 36 35 42
f 38 37 43
f 44 38 43
f 39 38 44
f 45 39 44
f 41 40 46
f 47 41 46
f 48 41 47
f 42 41 48
f 44 43 49
f 45 44 50
f 51 44 49
f 50 44 51
f 53 46 52
f 47 46 53
f 48 47 53
f 54 48 53
f 51 49 55
f 55 49 56
f 55 50 51
f 57 50 55
f 53 52 58
f 59 53 58
f 60 53 59
f 54 53 60
f 61 55 56
f 62 55 61
f 63 55 62
f 57 55 63
f 65 58 64
f 59 58 65
f 60 59 65
f 66 60 65
f 68 61 67
f 62 61 68
f 63 62 68
f 69 63 68
f 65 64 70
f 71 65 70
f 66 65 71
f 72 66 71
f 71 67 72
f 68 67 71
f 70 68 71
f 69 68 70
f 75 73 74 77
f 76 73 75 79
f 74 73 76 80 84 88 92 96 100 104 108 112 116 118 114 110 106 102 98 94 90 86 82 78
f 77 74 78 81
f 79 75 77 81 85 89 93 97 101 105 109 113 117 120 119 115 111 107 103 99 95 91 87 83
f 80 76 79 83
f 81 78 82 85
f 84 80 83 87
f 85 82 86 89
f 88 84 87 91
f 89 86 90 93
f 92 88 91 95
f 93 90 94 97
f 96 92 95 99
f 97 94 98 101
f 100 96 99 103
f 101 98 102 105
f 104 100 103 107
f 105 102 106 109
f 108 104 107 111
f 109 106 110 113
f 112 108 111 115
f 113 110 114 117
f 116 112 115 119
f 117 114 118 120
f 118 116 119 120
f 123 121 122 125
f 124 121 123 127
f 122 121 124 128 132 136 140 144 148 152 156 160 164 166 162 158 154 150 146 142 138 134 130 126
f 125 122 126 129
f 127 123 125 129 133 137 141 145 149 153 157 161 165 168 167 163 159 155 151 147 143 139 135 131
f 128 124 127 131
f 129 126 130 133
f 132 128 131 135
f 133 130 134 137
f 136 132 135 139
f 137 134 138 141
f 140 136 139 143
f 141 138 142 145
f 144 140 143 147
f 145 142 146 149
f 148 144 147 151
f 149 146 150 153
f 152 148 151 155
f 153 150 154 157
f 156 152 155 159
f 157 154 158 161
f 160 156 159 163
f 161 158 162 165
f 164 160 163 167
f 165 162 166 168
f 166 164 167 168
f 171 169 170
f 172 169 171
f 173 169 172 176 180 184 188 192 196 201 205 209 213 217 214 210 206 202 198 197 193 189 185 181 177
f 170 169 173
f 174 170 173
f 171 170 174 178 182 186 190 194 199 203 207 211 215 216 212 208 204 200 195 191 187 183 179 175
f 172 171 175
f 176 172 175
f 174 173 177
f 178 174 177
f 176 175 179
f 180 176 179
f 178 177 181
f 182 178 181
f 180 179 183
f 184 180 183
f 182 181 185
f 186 182 185
f 184 183 187
f 188 184 187
f 186 185 189
f 190 186 189
f 188 187 191
f 192 188 191
f 190 189 193
f 194 190 193
f 192 191 195
f 196 192 195
f 194 193 197
f 198 194 197
f 199 194 198
f 196 195 200
f 201 196 200
f 199 198 202
f 203 199 202
f 201 200 204
f 205 201 204
f 203 202 206
f 207 203 206
f 205 204 208
f 209 205 208
f 207 206 210
f 211 207 210
f 209 208 212
f 213 209 212
f 211 210 214
f 215 211 214
f 213 212 216
f 217 213 216
f 215 214 217
f 216 215 217
f 220 218 219 222
f 221 218 220 224
f 219 218 221 225 229 233 237 241 245 249 253 257 261 263 259 255 251 247 243 239 235 231 227 223
f 222 219 223 226
f 224 220 222 226 230 234 238 242 246 250 254 258 262 265 264 260 256 252 248 244 240 236 232 228
f 225 221 224 228
f 226 223 227 230
f 229 225 228 232
f 230 227 231 234
f 233 229 232 236
f 234 231 235 238
f 237 233 236 240
f 238 235 239 242
f 241 237 240 244
f 242 239 243 246
f 245 241 244 248
f 246 243 247 250
f 249 245 248 252
f 250 247 251 254
f 253 249 252 256
f 254 251 255 258
f 257 253 256 260
f 258 255 259 262
f 261 257 260 264
f 262 259 263 265
f 263 261 264 265
f 268 266 267 270
f 269 266 268 272
f 267 266 269 273 277 281 285 289 293 297 301 305 309 311 307 303 299 295 291 287 283 279 275 271
f 270 267 271 274
f 272 268 270 274 278 282 286 290 294 298 302 306 310 313 312 308 304 300 296 292 288 284 280 276
f 273 269 272 276
f 274 271 275 278
f 277 273 276 280
f 278 275 279 282
f 281 277 280 284
f 282 279 283 286
f 285 281 284 288
f 286 283 287 290
f 289 285 288 292
f 290 287 291 294
f 293 289 292 296
f 294 291 295 298
f 297 293 296 300
f 298 295 299 302
f 301 297 300 304
f 302 299 303 306
f 305 301 304 308
f 306 303 307 310
f 309 305 308 312
f 310 307 311 313
f 311 309 312 313
f 316 314 315
f 317 314 316 319
f 315 314 317 318
f 316 315 318 319
f 318 317 319
f 322 320 321
f 323 320 322 331
f 321 320 323 324
f 325 321 324
f 326 321 325
f 327 321 326
f 328 321 327
f 329 321 328
f 330 321 329
f 322 321 330
f 331 322 330
f 324 323 332 325
f 332 323 331
f 326 325 329 328 327
f 329 325 332 330
f 331 330 332
f 335 333 334
f 336 333 335
f 337 333 336 344
f 334 333 337 341 338
f 335 334 338
f 340 335 339
f 336 335 340
f 341 335 338
f 337 335 341
f 342 335 337
f 339 335 342 345
f 343 336 340
f 344 336 343
f 342 337 344 345
f 340 339 345 343
f 344 343 345
f 348 346 347 351
f 349 346 348
f 350 346 349 354
f 347 346 350 352
f 351 347 352
f 353 348 351 356
f 349 348 353
f 354 349 353
f 352 350 354
f 355 351 352
f 356 351 355 358 357
f 353 352 354
f 356 352 353
f 357 352 356
f 358 352 357
f 355 352 358
f 361 359 360
f 362 359 361
f 363 359 362 370 369
f 360 359 363 364
f 365 360 364
f 366 360 365
f 361 360 366
f 367 361 366
f 368 361 367 371
f 363 361 368
f 369 361 363
f 370 361 369
f 362 361 370
f 364 363 368 371
f 365 364 371
f 366 365 371 367
f 374 372 373
f 375 372 374 386
f 376 372 375
f 377 372 376
f 378 372 377
f 379 372 378
f 373 372 379
f 381 373 380
f 382 373 381
f 374 373 382
f 383 373 379
f 380 373 383
f 385 374 384
f 386 374 385
f 387 374 382
f 388 374 387
f 389 374 388
f 384 374 389
f 391 375 390
f 376 375 391
f 392 375 386
f 393 375 392
f 390 375 393
f 390 376 391
f 377 376 390
f 378 377 394 396
f 395 377 390
f 394 377 395
f 397 378 396
f 379 378 397
f 398 379 397
f 383 379 398
f 399 380 383
f 400 380 399
f 401 380 400
f 402 380 401
f 381 380 402
f 382 381 403
f 401 381 402
f 404 381 401
f 403 381 404
f 387 382 403
f 405 383 398
f 399 383 405
f 385 384 406
f 406 384 389
f 407 385 406
f 408 385 407
f 409 385 408
f 386 385 409
f 392 386 409
f 410 387 403
f 388 387 410
f 411 388 410
f 412 388 411
f 413 388 412
f 414 388 413
f 389 388 414
f 415 389 414
f 406 389 415
f 395 390 393 417
f 416 392 409 425
f 417 392 416
f 393 392 417
f 396 394 418 432 420 398
f 418 394 395 419
f 419 395 417 430
f 397 396 398
f 411 398 420 426
f 410 398 411
f 405 398 410
f 400 399 405
f 401 400 405
f 410 401 405
f 404 401 410
f 410 403 404
f 421 406 415
f 422 406 421
f 407 406 422
f 408 407 422
f 414 408 422
f 423 408 414
f 409 408 423
f 424 409 423
f 425 409 424
f 413 411 426 427
f 412 411 413
f 424 413 427 438
f 414 413 424
f 423 414 424
f 421 414 422
f 428 414 421
f 415 414 428
f 421 415 428
f 429 416 425 424 438 442
f 417 416 429 430
f 432 418 431 445
f 431 418 419
f 431 419 433
f 433 419 430 444
f 435 420 434
f 426 420 435
f 436 420 432
f 437 420 436
f 434 420 437
f 439 426 435
f 440 426 439
f 427 426 440
f 438 427 441
f 439 427 440
f 441 427 439
f 443 429 442 461
f 430 429 443
f 444 430 443
f 446 431 433
f 447 431 446
f 448 431 447
f 449 431 448
f 450 431 449
f 445 431 450
f 450 432 445
f 451 432 450
f 436 432 451
f 453 433 452
f 454 433 453
f 446 433 454
f 452 433 444
f 455 434 437
f 456 434 455
f 435 434 456
f 457 435 456
f 458 435 457
f 439 435 458
f 450 436 451
f 437 436 450
f 459 437 450
f 455 437 459
f 461 438 460
f 442 438 461
f 460 438 441
f 463 439 462
f 441 439 463
f 462 439 458
f 465 441 464
f 460 441 465
f 466 441 463
f 467 441 466
f 464 441 467
f 469 443 468
f 444 443 469
f 468 443 461
f 470 444 469
f 452 444 470
f 469 446 454
f 459 446 469
f 447 446 459
f 448 447 459
f 449 448 459
f 450 449 459
f 453 452 469
f 469 452 470
f 454 453 469
f 456 455 459
f 462 456 459
f 457 456 462
f 458 457 462
f 462 459 469 468
f 461 460 465
f 467 461 465
f 471 461 467
f 472 461 471
f 468 461 472
f 467 462 468
f 466 462 467
f 463 462 466
f 465 464 467
f 471 467 468
f 471 468 472
