# File exported by Houdini 20.5.410 (www.sidefx.com)
# 118 points
# 526 vertices
# 147 primitives
# Bounds: [-0.02196192, -0.0090838708, -0.0173000004] to [-0.00196192088, 0.0158526488, 0.0173000004]
g 
v -0.0129662277 -0.0090838708 -0.0158978477
v -0.0149141522 -0.0085810395 -0.0158978477
v -0.014867167 -0.00857127551 -0.0169985704
v -0.014620495 -0.0085785985 -0.0169985704
v -0.0109576136 -0.0090838708 -0.0158978477
v -0.0129662277 -0.0090838708 0.0158978477
v -0.0151040498 -0.0085029304 -0.0169985704
v -0.0149141522 -0.0085810395 0.0158978477
v -0.0148201818 -0.00827592332 -0.0173000004
v -0.0146479029 -0.00828080531 -0.0173000004
v -0.00930334534 -0.0085785985 -0.0169985704
v -0.00905667432 -0.00857127551 -0.0169985704
v -0.00900968909 -0.0085810395 -0.0158978477
v -0.0109576136 -0.0090838708 0.0158978477
v -0.014620495 -0.0085785985 0.0169985704
v -0.014867167 -0.00857127551 0.0169985704
v -0.0166760944 -0.00760955038 -0.0169985704
v -0.0149865877 -0.00822710525 -0.0173000004
v -0.0151040498 -0.0085029304 0.0169985704
v -0.00927593745 -0.00828080531 -0.0173000004
v -0.00910365861 -0.00827592332 -0.0173000004
v -0.00881979056 -0.0085029304 -0.0169985704
v -0.00900968909 -0.0085810395 0.0158978477
v -0.00905667432 -0.00857127551 0.0169985704
v -0.00930334534 -0.0085785985 0.0169985704
v -0.0146479029 -0.00828080531 0.0173000004
v -0.0148201818 -0.00827592332 0.0173000004
v -0.0181385055 -0.00622798502 -0.0169985704
v -0.0179074965 -0.00603759289 -0.0173000004
v -0.0164998993 -0.00736545771 -0.0173000004
v -0.0166760944 -0.00760955038 0.0169985704
v -0.0149865877 -0.00822710525 0.0173000004
v -0.00893725362 -0.00822710525 -0.0173000004
v -0.00724774692 -0.00760955038 -0.0169985704
v -0.00881979056 -0.0085029304 0.0169985704
v -0.00910365861 -0.00827592332 0.0173000004
v -0.00927593745 -0.00828080531 0.0173000004
v -0.0192113332 -0.00452665845 -0.0169985704
v -0.0181385055 -0.00622798502 0.0169985704
v -0.0189392101 -0.00439973036 -0.0173000004
v -0.0164998993 -0.00736545771 0.0173000004
v -0.0179074965 -0.00603759289 0.0173000004
v -0.00742394105 -0.00736545771 -0.0173000004
v -0.00601634523 -0.00603759289 -0.0173000004
v -0.00578533486 -0.00622798502 -0.0169985704
v -0.00724774692 -0.00760955038 0.0169985704
v -0.00893725362 -0.00822710525 0.0173000004
v -0.0193170495 -0.00428988831 -0.0169985704
v -0.0192113332 -0.00452665845 0.0169985704
v -0.0190410111 -0.00417028274 -0.0173000004
v -0.0189392101 -0.00439973036 0.0173000004
v -0.00498463027 -0.00439973036 -0.0173000004
v -0.00471250806 -0.00452665845 -0.0169985704
v -0.00578533486 -0.00622798502 0.0169985704
v -0.00601634523 -0.00603759289 0.0173000004
v -0.00742394105 -0.00736545771 0.0173000004
v -0.0198260546 -0.00261053001 -0.0157996286
v -0.0193855688 -0.00405311817 -0.0169985704
v -0.019089954 -0.00400674064 -0.0173000004
v -0.0193170495 -0.00428988831 0.0169985704
v -0.0190410111 -0.00417028274 0.0173000004
v -0.00488282926 -0.00417028274 -0.0173000004
v -0.00460679177 -0.00428988831 -0.0169985704
v -0.00471250806 -0.00452665845 0.0169985704
v -0.00498463027 -0.00439973036 0.0173000004
v -0.0218757801 0.0083980551 -0.0169985704
v -0.0205758587 0.00142188289 -0.0169985704
v -0.0198260546 -0.00261053001 0.0157996286
v -0.0202822015 0.00147558341 -0.0173000004
v -0.019089954 -0.00400674064 0.0173000004
v -0.0193855688 -0.00405311817 0.0169985704
v -0.0048338864 -0.00400674064 -0.0173000004
v -0.00453827158 -0.00405311817 -0.0169985704
v -0.00422503753 -0.00317438436 -0.0144990804
v -0.00460679177 -0.00428988831 0.0169985704
v -0.00488282926 -0.00417028274 0.0173000004
v -0.02196192 0.0093134027 -0.0169985704
v -0.0215821229 0.00845175516 -0.0173000004
v -0.0218757801 0.0083980551 0.0169985704
v -0.0205758587 0.00142188289 0.0169985704
v -0.0202822015 0.00147558341 0.0173000004
v -0.0036416389 0.00147558341 -0.0173000004
v -0.00334798195 0.00142188289 -0.0169985704
v -0.00409778627 -0.00261053001 -0.0157996286
v -0.00422503753 -0.00317438436 0.0144990804
v -0.00453827158 -0.00405311817 0.0169985704
v -0.0048338864 -0.00400674064 0.0173000004
v -0.02196192 0.0149275372 -0.0169985704
v -0.0216604322 0.0093134027 -0.0173000004
v -0.02196192 0.0093134027 0.0169985704
v -0.0215821229 0.00845175516 0.0173000004
v -0.00234171725 0.00845175516 -0.0173000004
v -0.0020480603 0.0083980551 -0.0169985704
v -0.00409778627 -0.00261053001 0.0157996286
v -0.00334798195 0.00142188289 0.0169985704
v -0.0036416389 0.00147558341 0.0173000004
v -0.02196192 0.0155524146 -0.0163753927
v -0.0216604322 0.0150520243 -0.0173000004
v -0.0216604322 0.0093134027 0.0173000004
v -0.02196192 0.0149275372 0.0169985704
v -0.00226340862 0.0093134027 -0.0173000004
v -0.00196192088 0.0093134027 -0.0169985704
v -0.0020480603 0.0083980551 0.0169985704
v -0.00234171725 0.00845175516 0.0173000004
v -0.0216604322 0.0158526488 -0.0164973177
v -0.02196192 0.0155524146 0.0163753927
v -0.00226340862 0.0150520243 -0.0173000004
v -0.0216604322 0.0150520243 0.0173000004
v -0.00196192088 0.0149275372 -0.0169985704
v -0.00196192088 0.0093134027 0.0169985704
v -0.00226340862 0.0093134027 0.0173000004
v -0.00226340862 0.0158526488 -0.0164973177
v -0.0216604322 0.0158526488 0.0164973177
v -0.00196192088 0.0155524146 -0.0163753927
v -0.00226340862 0.0150520243 0.0173000004
v -0.00196192088 0.0149275372 0.0169985704
v -0.00226340862 0.0158526488 0.0164973177
v -0.00196192088 0.0155524146 0.0163753927
g 
f 3 1 2
f 4 1 3
f 5 1 4 11
f 6 1 5 14
f 2 1 6 8
f 3 2 7
f 7 2 8 19
f 9 3 7
f 4 3 9
f 10 4 9
f 11 4 10 20
f 12 5 11
f 13 5 12
f 14 5 13 23
f 15 6 14 25
f 16 6 15
f 8 6 16
f 18 7 17
f 9 7 18
f 17 7 19 31
f 19 8 16
f 10 9 18 30 29 40 50 59 69 78 89 98 107 101 92 82 72 62 52 44 43 33 21 20
f 21 11 20
f 12 11 21
f 22 12 21
f 13 12 22
f 23 13 22 35
f 24 14 23
f 25 14 24
f 26 15 25 37
f 27 15 26
f 16 15 27
f 19 16 27
f 29 17 28
f 30 17 29
f 18 17 30
f 28 17 31 39
f 32 19 27
f 31 19 32
f 22 21 33
f 34 22 33
f 35 22 34 46
f 24 23 35
f 36 24 35
f 25 24 36
f 37 25 36
f 27 26 37 36 47 56 55 65 76 87 96 104 111 115 108 99 91 81 70 61 51 42 41 32
f 29 28 38
f 38 28 39 49
f 40 29 38
f 41 31 32
f 42 31 41
f 39 31 42
f 34 33 43
f 44 34 43
f 45 34 44
f 46 34 45 54
f 47 35 46
f 36 35 47
f 40 38 48
f 48 38 49 60
f 49 39 42
f 50 40 48
f 49 42 51
f 53 44 52
f 45 44 53
f 54 45 53 64
f 55 46 54
f 56 46 55
f 47 46 56
f 58 48 57
f 59 48 58
f 50 48 59
f 57 48 60 68
f 60 49 51
f 60 51 61
f 63 52 62
f 53 52 63
f 64 53 63 75
f 55 54 64
f 65 55 64
f 67 57 66
f 58 57 67
f 66 57 68 79
f 69 58 67
f 59 58 69
f 70 60 61
f 71 60 70
f 68 60 71
f 63 62 72
f 73 63 72
f 74 63 73
f 75 63 74 85
f 65 64 75
f 76 65 75
f 78 66 77
f 67 66 78 69
f 77 66 79 90
f 80 68 71
f 79 68 80
f 71 70 81
f 80 71 81
f 73 72 82
f 83 73 82
f 84 73 83
f 74 73 84
f 85 74 84 94
f 86 75 85
f 87 75 86
f 76 75 87
f 89 77 88 98
f 78 77 89
f 88 77 90 100 106 97
f 91 79 80 81
f 90 79 91
f 83 82 92 93
f 84 83 93
f 94 84 93 103
f 86 85 94
f 96 86 95
f 87 86 96
f 95 86 94
f 98 88 97
f 99 90 91
f 100 90 99 108
f 102 92 101
f 93 92 102
f 103 93 102 110
f 95 94 103
f 96 95 103 104
f 98 97 105
f 105 97 106 113
f 107 98 105 112
f 106 100 108
f 102 101 107 109
f 110 102 109 114 118 116
f 104 103 110
f 111 104 110
f 112 105 113 117
f 113 106 108
f 114 107 112
f 109 107 114
f 113 108 115 117
f 111 110 116 115
f 114 112 117 118
f 118 115 116
f 117 115 118
