# File exported by Houdini 20.5.550 (www.sidefx.com)
# 677 points
# 2652 vertices
# 677 primitives
# Bounds: [-0.062468715, -0.0674529523, -0.0229713228] to [-0.0339687169, -0.00341643346, 0.0116286762]
g 
v -0.0439687148 -0.0535529517 0.00572867645
v -0.0428299531 -0.0537036955 0.00572867645
v -0.0429600216 -0.0541860759 0.00282889185
v -0.0439687148 -0.0540534221 0.00282889185
v -0.0449774079 -0.0541860759 0.00282889185
v -0.0451074764 -0.0537036955 0.00572867645
v -0.0417687148 -0.0541430078 0.00572867645
v -0.043192599 -0.0550552234 0.0023286764
v -0.0420193821 -0.0545762889 0.00282889185
v -0.0424690284 -0.0553549863 0.0023286764
v -0.0439687148 -0.0549535789 0.0023286764
v -0.0447448306 -0.0550552234 0.0023286764
v -0.0454684012 -0.0553549863 0.0023286764
v -0.0459180474 -0.0545762889 0.00282889185
v -0.0461687148 -0.0541430078 0.00572867645
v -0.0408582203 -0.0548424572 0.00572867645
v -0.0412113927 -0.0551956296 0.00282889185
v -0.0418479629 -0.0558321998 0.0023286764
v -0.0460894667 -0.0558321998 0.0023286764
v -0.0467260368 -0.0551956296 0.00282889185
v -0.0470792092 -0.0548424572 0.00572867645
v -0.040158771 -0.0557529517 0.00572867645
v -0.040592052 -0.056003619 0.00282889185
v -0.0413707495 -0.0564532652 0.0023286764
v -0.0465666801 -0.0564532652 0.0023286764
v -0.0473453775 -0.056003619 0.00282889185
v -0.0477786586 -0.0557529517 0.00572867645
v -0.0397194587 -0.05681419 0.00572867645
v -0.0402018391 -0.0569442585 0.00282889185
v -0.0410709865 -0.0571768358 0.0023286764
v -0.046866443 -0.0571768358 0.0023286764
v -0.0477355905 -0.0569442585 0.00282889185
v -0.0482179709 -0.05681419 0.00572867645
v -0.0395687148 -0.0579529516 0.00572867645
v -0.0400691852 -0.0579529516 0.00282889185
v -0.040969342 -0.0579529516 0.0023286764
v -0.0469680876 -0.0579529516 0.0023286764
v -0.0478682443 -0.0579529516 0.00282889185
v -0.0483687147 -0.0579529516 0.00572867645
v -0.0397194587 -0.0590917133 0.00572867645
v -0.0402018391 -0.0589616448 0.00282889185
v -0.0410709865 -0.0587290674 0.0023286764
v -0.046866443 -0.0587290674 0.0023286764
v -0.0477355905 -0.0589616448 0.00282889185
v -0.0482179709 -0.0590917133 0.00572867645
v -0.040158771 -0.0601529516 0.00572867645
v -0.040592052 -0.0599022843 0.00282889185
v -0.0413707495 -0.059452638 0.0023286764
v -0.0465666801 -0.059452638 0.0023286764
v -0.0477786586 -0.0601529516 0.00572867645
v -0.0473453775 -0.0599022843 0.00282889185
v -0.0408582203 -0.0610634461 0.00572867645
v -0.0412113927 -0.0607102737 0.00282889185
v -0.0418479629 -0.0600737035 0.0023286764
v -0.0467260368 -0.0607102737 0.00282889185
v -0.0460894667 -0.0600737035 0.0023286764
v -0.0470792092 -0.0610634461 0.00572867645
v -0.0417687148 -0.0617628954 0.00572867645
v -0.0420193821 -0.0613296144 0.00282889185
v -0.0424690284 -0.0605509169 0.0023286764
v -0.0454684012 -0.0605509169 0.0023286764
v -0.0459180474 -0.0613296144 0.00282889185
v -0.0461687148 -0.0617628954 0.00572867645
v -0.0428299531 -0.0622022077 0.00572867645
v -0.0429600216 -0.0617198274 0.00282889185
v -0.043192599 -0.0608506799 0.0023286764
v -0.0447448306 -0.0608506799 0.0023286764
v -0.0449774079 -0.0617198274 0.00282889185
v -0.0451074764 -0.0622022077 0.00572867645
v -0.0439687148 -0.0623529516 0.00572867645
v -0.0439687148 -0.0618524812 0.00282889185
v -0.0439687148 -0.0609523244 0.0023286764
v -0.0523687154 -0.0617529526 -0.0158213228
v -0.0521875471 -0.0617769361 -0.0158213228
v -0.0523687154 -0.0617529526 -0.0164713226
v -0.0525498837 -0.0617769361 -0.0158213228
v -0.0521875471 -0.0617769361 -0.0164713226
v -0.052018851 -0.0618468262 -0.0158213228
v -0.0525498837 -0.0617769361 -0.0164713226
v -0.0527185798 -0.0618468262 -0.0158213228
v -0.052018851 -0.0618468262 -0.0164713226
v -0.0518738627 -0.0619581006 -0.0158213228
v -0.0527185798 -0.0618468262 -0.0164713226
v -0.0528635681 -0.0619581006 -0.0158213228
v -0.0518738627 -0.0619581006 -0.0164713226
v -0.0517625883 -0.0621030889 -0.0158213228
v -0.0528635681 -0.0619581006 -0.0164713226
v -0.0529748425 -0.0621030889 -0.0158213228
v -0.0517625883 -0.0621030889 -0.0164713226
v -0.0516926982 -0.062271785 -0.0158213228
v -0.0529748425 -0.0621030889 -0.0164713226
v -0.0530447327 -0.062271785 -0.0158213228
v -0.0516926982 -0.062271785 -0.0164713226
v -0.0516687147 -0.0624529533 -0.0158213228
v -0.0530447327 -0.062271785 -0.0164713226
v -0.0530687161 -0.0624529533 -0.0158213228
v -0.0516687147 -0.0624529533 -0.0164713226
v -0.0516926982 -0.0626341179 -0.0158213228
v -0.0530687161 -0.0624529533 -0.0164713226
v -0.0530447327 -0.0626341179 -0.0158213228
v -0.0516926982 -0.0626341179 -0.0164713226
v -0.0517625883 -0.0628029555 -0.0158213228
v -0.0530447327 -0.0626341179 -0.0164713226
v -0.0529748425 -0.0628029555 -0.0158213228
v -0.0517625883 -0.0628029555 -0.0164713226
v -0.0518738627 -0.0629478022 -0.0158213228
v -0.0529748425 -0.0628029555 -0.0164713226
v -0.0528635681 -0.0629478022 -0.0158213228
v -0.0518738627 -0.0629478022 -0.0164713226
v -0.052018851 -0.0630590841 -0.0158213228
v -0.0528635681 -0.0629478022 -0.0164713226
v -0.0527185798 -0.0630590841 -0.0158213228
v -0.052018851 -0.0630590841 -0.0164713226
v -0.0521875471 -0.0631289706 -0.0158213228
v -0.0527185798 -0.0630590841 -0.0164713226
v -0.0525498837 -0.0631289706 -0.0158213228
v -0.0521875471 -0.0631289706 -0.0164713226
v -0.0523687154 -0.063152954 -0.0158213228
v -0.0525498837 -0.0631289706 -0.0164713226
v -0.0523687154 -0.063152954 -0.0164713226
v -0.0488687158 -0.0343529545 -0.0158213228
v -0.0486875474 -0.0343769379 -0.0158213228
v -0.0488687158 -0.0343529545 -0.0164713226
v -0.0490498841 -0.0343769379 -0.0158213228
v -0.0486875474 -0.0343769379 -0.0164713226
v -0.0485188514 -0.0344468281 -0.0158213228
v -0.0490498841 -0.0343769379 -0.0164713226
v -0.0492185801 -0.0344468281 -0.0158213228
v -0.0485188514 -0.0344468281 -0.0164713226
v -0.0483738631 -0.0345581025 -0.0158213228
v -0.0492185801 -0.0344468281 -0.0164713226
v -0.0493635684 -0.0345581025 -0.0158213228
v -0.0483738631 -0.0345581025 -0.0164713226
v -0.0482625887 -0.034702953 -0.0158213228
v -0.0493635684 -0.0345581025 -0.0164713226
v -0.0494748428 -0.034702953 -0.0158213228
v -0.0482625887 -0.034702953 -0.0164713226
v -0.0481926985 -0.0348717868 -0.0158213228
v -0.0494748428 -0.034702953 -0.0164713226
v -0.049544733 -0.0348717868 -0.0158213228
v -0.0481926985 -0.0348717868 -0.0164713226
v -0.0481687151 -0.0350529552 -0.0158213228
v -0.049544733 -0.0348717868 -0.0164713226
v -0.0495687164 -0.0350529552 -0.0158213228
v -0.0481687151 -0.0350529552 -0.0164713226
v -0.0481926985 -0.0352341197 -0.0158213228
v -0.0495687164 -0.0350529552 -0.0164713226
v -0.049544733 -0.0352341197 -0.0158213228
v -0.0481926985 -0.0352341197 -0.0164713226
v -0.0482625887 -0.0354029536 -0.0158213228
v -0.049544733 -0.0352341197 -0.0164713226
v -0.0494748428 -0.0354029536 -0.0158213228
v -0.0482625887 -0.0354029536 -0.0164713226
v -0.0483738631 -0.0355478041 -0.0158213228
v -0.0494748428 -0.0354029536 -0.0164713226
v -0.0493635684 -0.0355478041 -0.0158213228
v -0.0483738631 -0.0355478041 -0.0164713226
v -0.0485188514 -0.0356590785 -0.0158213228
v -0.0493635684 -0.0355478041 -0.0164713226
v -0.0492185801 -0.0356590785 -0.0158213228
v -0.0485188514 -0.0356590785 -0.0164713226
v -0.0486875474 -0.0357289687 -0.0158213228
v -0.0492185801 -0.0356590785 -0.0164713226
v -0.0490498841 -0.0357289687 -0.0158213228
v -0.0486875474 -0.0357289687 -0.0164713226
v -0.0488687158 -0.0357529521 -0.0158213228
v -0.0490498841 -0.0357289687 -0.0164713226
v -0.0488687158 -0.0357529521 -0.0164713226
v -0.0519687161 -0.0304532479 -0.0128713232
v -0.0517616682 -0.0304532479 -0.012898731
v -0.052175764 -0.0304532479 -0.012898731
v -0.0519687161 -0.0334526598 -0.0128713232
v -0.0517616682 -0.0334526598 -0.012898731
v -0.0515687168 -0.0304532479 -0.0129786059
v -0.0523687154 -0.0304532479 -0.0129786059
v -0.052175764 -0.0334526598 -0.012898731
v -0.0515687168 -0.0334526598 -0.0129786059
v -0.0514031723 -0.0304532479 -0.013105779
v -0.0525342599 -0.0304532479 -0.013105779
v -0.0523687154 -0.0334526598 -0.0129786059
v -0.0514031723 -0.0334526598 -0.013105779
v -0.0512759984 -0.0304532479 -0.0132714799
v -0.0526614338 -0.0304532479 -0.0132714799
v -0.0525342599 -0.0334526598 -0.013105779
v -0.0512759984 -0.0334526598 -0.0132714799
v -0.0511961244 -0.0304532479 -0.0134642757
v -0.0527413078 -0.0304532479 -0.0134642757
v -0.0526614338 -0.0334526598 -0.0132714799
v -0.0511961244 -0.0334526598 -0.0134642757
v -0.0511687174 -0.0304532479 -0.0136713237
v -0.0527687147 -0.0304532479 -0.0136713237
v -0.0527413078 -0.0334526598 -0.0134642757
v -0.0511687174 -0.0334526598 -0.0136713237
v -0.0511961244 -0.0304532479 -0.0138783706
v -0.0527413078 -0.0304532479 -0.0138783706
v -0.0527687147 -0.0334526598 -0.0136713237
v -0.0511961244 -0.0334526598 -0.0138783706
v -0.0512759984 -0.0304532479 -0.014071323
v -0.0526614338 -0.0304532479 -0.014071323
v -0.0527413078 -0.0334526598 -0.0138783706
v -0.0512759984 -0.0334526598 -0.014071323
v -0.0514031723 -0.0304532479 -0.0142368674
v -0.0525342599 -0.0304532479 -0.0142368674
v -0.0526614338 -0.0334526598 -0.014071323
v -0.0514031723 -0.0334526598 -0.0142368674
v -0.0515687168 -0.0304532479 -0.0143640405
v -0.0523687154 -0.0304532479 -0.0143640405
v -0.0525342599 -0.0334526598 -0.0142368674
v -0.0515687168 -0.0334526598 -0.0143640405
v -0.0517616682 -0.0304532479 -0.0144439153
v -0.052175764 -0.0304532479 -0.0144439153
v -0.0523687154 -0.0334526598 -0.0143640405
v -0.0517616682 -0.0334526598 -0.0144439153
v -0.0519687161 -0.0304532479 -0.0144713232
v -0.052175764 -0.0334526598 -0.0144439153
v -0.0519687161 -0.0334526598 -0.0144713232
v -0.0367687158 -0.0334526598 -0.0136713237
v -0.0367413089 -0.0334526598 -0.0138783706
v -0.0367413089 -0.0334526598 -0.0134642757
v -0.0367687158 -0.0304532479 -0.0136713237
v -0.0367413089 -0.0304532479 -0.0138783706
v -0.0366614349 -0.0334526598 -0.014071323
v -0.0366614349 -0.0334526598 -0.0132714799
v -0.0367413089 -0.0304532479 -0.0134642757
v -0.0366614349 -0.0304532479 -0.014071323
v -0.036534261 -0.0334526598 -0.0142368674
v -0.036534261 -0.0334526598 -0.013105779
v -0.0366614349 -0.0304532479 -0.0132714799
v -0.036534261 -0.0304532479 -0.0142368674
v -0.0363687165 -0.0334526598 -0.0143640405
v -0.0363687165 -0.0334526598 -0.0129786059
v -0.036534261 -0.0304532479 -0.013105779
v -0.0363687165 -0.0304532479 -0.0143640405
v -0.0361757614 -0.0334526598 -0.0144439153
v -0.0361757614 -0.0334526598 -0.012898731
v -0.0363687165 -0.0304532479 -0.0129786059
v -0.0361757614 -0.0304532479 -0.0144439153
v -0.0359687135 -0.0334526598 -0.0144713232
v -0.0359687135 -0.0334526598 -0.0128713232
v -0.0361757614 -0.0304532479 -0.012898731
v -0.0359687135 -0.0304532479 -0.0144713232
v -0.0357616693 -0.0334526598 -0.0144439153
v -0.0357616693 -0.0334526598 -0.012898731
v -0.0359687135 -0.0304532479 -0.0128713232
v -0.0357616693 -0.0304532479 -0.0144439153
v -0.0355687141 -0.0334526598 -0.0143640405
v -0.0355687141 -0.0334526598 -0.0129786059
v -0.0357616693 -0.0304532479 -0.012898731
v -0.0355687141 -0.0304532479 -0.0143640405
v -0.0354031697 -0.0334526598 -0.0142368674
v -0.0354031697 -0.0334526598 -0.013105779
v -0.0355687141 -0.0304532479 -0.0129786059
v -0.0354031697 -0.0304532479 -0.0142368674
v -0.0352759957 -0.0334526598 -0.014071323
v -0.0352759957 -0.0334526598 -0.0132714799
v -0.0354031697 -0.0304532479 -0.013105779
v -0.0352759957 -0.0304532479 -0.014071323
v -0.0351961218 -0.0334526598 -0.0138783706
v -0.0351961218 -0.0334526598 -0.0134642757
v -0.0352759957 -0.0304532479 -0.0132714799
v -0.0351961218 -0.0304532479 -0.0138783706
v -0.0351687148 -0.0334526598 -0.0136713237
v -0.0351961218 -0.0304532479 -0.0134642757
v -0.0351687148 -0.0304532479 -0.0136713237
v -0.0437386408 -0.0544104464 -0.0171713233
v -0.0439684391 -0.0546032451 -0.0159713235
v -0.0431020111 -0.0547176749 -0.0159713235
v -0.0428298637 -0.0545914546 -0.0171713233
v -0.0446626954 -0.0544721708 -0.0171713233
v -0.0448355637 -0.0547176749 -0.0159713235
v -0.0422938988 -0.0550519526 -0.0159713235
v -0.0419981442 -0.055000633 -0.0171713233
v -0.0455402322 -0.054770384 -0.0171713233
v -0.0456436761 -0.0550519526 -0.0159713235
v -0.0416003354 -0.0555845797 -0.0159713235
v -0.0413011126 -0.0556116253 -0.0171713233
v -0.046310164 -0.0552856699 -0.0171713233
v -0.0463372394 -0.0555845797 -0.0159713235
v -0.0410678424 -0.0562780984 -0.0159713235
v -0.0407859758 -0.0563814342 -0.0171713233
v -0.0469211079 -0.0559826605 -0.0171713233
v -0.0468697324 -0.0562780984 -0.0159713235
v -0.0407332107 -0.0570860505 -0.0159713235
v -0.0404874459 -0.057259433 -0.0171713233
v -0.0473307185 -0.0568134971 -0.0171713233
v -0.0472043641 -0.0570860505 -0.0159713235
v -0.0406193547 -0.0579529554 -0.0159713235
v -0.0404187143 -0.0579529554 -0.0171713233
v -0.0475112237 -0.0577227026 -0.0171713233
v -0.0473182201 -0.0579529554 -0.0159713235
v -0.0404263511 -0.0581832044 -0.0171713233
v -0.0407332107 -0.0588198565 -0.0159713235
v -0.0474501289 -0.058646474 -0.0171713233
v -0.0472043641 -0.0588198565 -0.0159713235
v -0.0406068563 -0.0590924099 -0.0171713233
v -0.0410678424 -0.0596278086 -0.0159713235
v -0.0471515991 -0.0595244728 -0.0171713233
v -0.0468697324 -0.0596278086 -0.0159713235
v -0.0410164669 -0.0599232465 -0.0171713233
v -0.0416003354 -0.0603213273 -0.0159713235
v -0.0466364622 -0.0602942817 -0.0171713233
v -0.0463372394 -0.0603213273 -0.0159713235
v -0.0416274108 -0.0606202371 -0.0171713233
v -0.0422938988 -0.0608539544 -0.0159713235
v -0.0459394306 -0.060905274 -0.0171713233
v -0.0456436761 -0.0608539544 -0.0159713235
v -0.0423973426 -0.061135523 -0.0171713233
v -0.0431020111 -0.0611882322 -0.0159713235
v -0.0451077111 -0.0613144524 -0.0171713233
v -0.0448355637 -0.0611882322 -0.0159713235
v -0.0432748795 -0.0614337362 -0.0171713233
v -0.0439684391 -0.0613026619 -0.0159713235
v -0.044198934 -0.0614954606 -0.0171713233
v -0.0355687141 -0.0378529541 -0.0158213228
v -0.0353875495 -0.0378769375 -0.0158213228
v -0.0355687141 -0.0378529541 -0.0164713226
v -0.0357498825 -0.0378769375 -0.0158213228
v -0.0353875495 -0.0378769375 -0.0164713226
v -0.0352187157 -0.0379468277 -0.0158213228
v -0.0357498825 -0.0378769375 -0.0164713226
v -0.0359187163 -0.0379468277 -0.0158213228
v -0.0352187157 -0.0379468277 -0.0164713226
v -0.0350738652 -0.0380581021 -0.0158213228
v -0.0359187163 -0.0379468277 -0.0164713226
v -0.0360635668 -0.0380581021 -0.0158213228
v -0.0350738652 -0.0380581021 -0.0164713226
v -0.0349625908 -0.0382029526 -0.0158213228
v -0.0360635668 -0.0380581021 -0.0164713226
v -0.0361748412 -0.0382029526 -0.0158213228
v -0.0349625908 -0.0382029526 -0.0164713226
v -0.0348927006 -0.0383717865 -0.0158213228
v -0.0361748412 -0.0382029526 -0.0164713226
v -0.0362447314 -0.0383717865 -0.0158213228
v -0.0348927006 -0.0383717865 -0.0164713226
v -0.0348687172 -0.0385529548 -0.0158213228
v -0.0362447314 -0.0383717865 -0.0164713226
v -0.0362687148 -0.0385529548 -0.0158213228
v -0.0348687172 -0.0385529548 -0.0164713226
v -0.0348927006 -0.0387341194 -0.0158213228
v -0.0362687148 -0.0385529548 -0.0164713226
v -0.0362447314 -0.0387341194 -0.0158213228
v -0.0348927006 -0.0387341194 -0.0164713226
v -0.0349625908 -0.0389029533 -0.0158213228
v -0.0362447314 -0.0387341194 -0.0164713226
v -0.0361748412 -0.0389029533 -0.0158213228
v -0.0349625908 -0.0389029533 -0.0164713226
v -0.0350738652 -0.0390478037 -0.0158213228
v -0.0361748412 -0.0389029533 -0.0164713226
v -0.0360635668 -0.0390478037 -0.0158213228
v -0.0350738652 -0.0390478037 -0.0164713226
v -0.0352187157 -0.0391590782 -0.0158213228
v -0.0360635668 -0.0390478037 -0.0164713226
v -0.0359187163 -0.0391590782 -0.0158213228
v -0.0352187157 -0.0391590782 -0.0164713226
v -0.0353875495 -0.0392289683 -0.0158213228
v -0.0359187163 -0.0391590782 -0.0164713226
v -0.0357498825 -0.0392289683 -0.0158213228
v -0.0353875495 -0.0392289683 -0.0164713226
v -0.0355687141 -0.0392529517 -0.0158213228
v -0.0357498825 -0.0392289683 -0.0164713226
v -0.0355687141 -0.0392529517 -0.0164713226
v -0.0362687148 -0.0624529533 -0.0164713226
v -0.0362447314 -0.0626341179 -0.0164713226
v -0.0362687148 -0.0624529533 -0.0158213228
v -0.0362447314 -0.062271785 -0.0164713226
v -0.0362447314 -0.0626341179 -0.0158213228
v -0.0361748412 -0.0628029555 -0.0164713226
v -0.0362447314 -0.062271785 -0.0158213228
v -0.0361748412 -0.0621030889 -0.0164713226
v -0.0361748412 -0.0628029555 -0.0158213228
v -0.0360635668 -0.0629478022 -0.0164713226
v -0.0361748412 -0.0621030889 -0.0158213228
v -0.0360635668 -0.0619581006 -0.0164713226
v -0.0360635668 -0.0629478022 -0.0158213228
v -0.0359187163 -0.0630590841 -0.0164713226
v -0.0360635668 -0.0619581006 -0.0158213228
v -0.0359187163 -0.0618468262 -0.0164713226
v -0.0359187163 -0.0630590841 -0.0158213228
v -0.0357498825 -0.0631289706 -0.0164713226
v -0.0359187163 -0.0618468262 -0.0158213228
v -0.0357498825 -0.0617769361 -0.0164713226
v -0.0357498825 -0.0631289706 -0.0158213228
v -0.0355687141 -0.063152954 -0.0164713226
v -0.0357498825 -0.0617769361 -0.0158213228
v -0.0355687141 -0.0617529526 -0.0164713226
v -0.0355687141 -0.063152954 -0.0158213228
v -0.0353875495 -0.0631289706 -0.0164713226
v -0.0355687141 -0.0617529526 -0.0158213228
v -0.0353875495 -0.0617769361 -0.0164713226
v -0.0353875495 -0.0631289706 -0.0158213228
v -0.0352187157 -0.0630590841 -0.0164713226
v -0.0353875495 -0.0617769361 -0.0158213228
v -0.0352187157 -0.0618468262 -0.0164713226
v -0.0352187157 -0.0630590841 -0.0158213228
v -0.0350738652 -0.0629478022 -0.0164713226
v -0.0352187157 -0.0618468262 -0.0158213228
v -0.0350738652 -0.0619581006 -0.0164713226
v -0.0350738652 -0.0629478022 -0.0158213228
v -0.0349625908 -0.0628029555 -0.0164713226
v -0.0350738652 -0.0619581006 -0.0158213228
v -0.0349625908 -0.0621030889 -0.0164713226
v -0.0349625908 -0.0628029555 -0.0158213228
v -0.0348927006 -0.0626341179 -0.0164713226
v -0.0349625908 -0.0621030889 -0.0158213228
v -0.0348927006 -0.062271785 -0.0164713226
v -0.0348927006 -0.0626341179 -0.0158213228
v -0.0348687172 -0.0624529533 -0.0164713226
v -0.0348927006 -0.062271785 -0.0158213228
v -0.0348687172 -0.0624529533 -0.0158213228
v -0.0464687161 -0.0654529557 -0.0132727083
v -0.0464687161 -0.0655589923 -0.0126713235
v -0.0464687161 -0.0654529557 -0.0126713235
v -0.0414687172 -0.0654529557 -0.0132727083
v -0.0414687172 -0.0655589923 -0.0126713235
v -0.0414687172 -0.0654529557 -0.0126713235
v -0.050614953 -0.0319529548 -0.00258018472
v -0.050614953 -0.0334529541 -0.00258018472
v -0.0529636443 -0.033447817 -0.00393833872
v -0.0529687144 -0.0319529548 -0.00393927284
v -0.0523143783 -0.0319529548 0.000562064059
v -0.0511868037 -0.0334529541 -0.00227800966
v -0.0523143783 -0.0334529541 0.000562064059
v -0.0516722575 -0.0334529541 -0.00185113447
v -0.0520443507 -0.0334529541 -0.00132291159
v -0.0522830449 -0.0334529541 -0.000721830467
v -0.0526549108 -0.0334529541 0.00066434592
v -0.0529636443 -0.033447817 0.000831079436
v -0.0529687144 -0.0319529548 0.000832013495
v -0.0349687152 -0.0319529548 0.000832013495
v -0.0356230512 -0.0319529548 0.000562064059
v -0.0349737853 -0.033447817 0.000831079436
v -0.0349687152 -0.0319529548 -0.00393927284
v -0.0356230512 -0.0334529541 0.000562064059
v -0.0373224802 -0.0319529548 -0.00258018472
v -0.0352825187 -0.0334529541 0.00066434592
v -0.0349737853 -0.033447817 -0.00393833872
v -0.0373224802 -0.0334529541 -0.00258018472
v -0.0356543846 -0.0334529541 -0.000721830467
v -0.0358930789 -0.0334529541 -0.00132291159
v -0.0362651758 -0.0334529541 -0.00185113447
v -0.0367506295 -0.0334529541 -0.00227800966
v -0.0439420417 -0.0573028736 0.00939412322
v -0.0446199477 -0.0579229034 0.00939412322
v -0.0433199294 -0.0579803102 0.00939412322
v -0.0341695771 -0.0314530917 0.00862810109
v -0.0537675098 -0.0314530917 0.00862810109
v -0.0516975224 -0.0589983799 0.00862810109
v -0.0446478464 -0.0580913052 0.00938834157
v -0.0441680104 -0.0586156473 0.00938834157
v -0.0439978354 -0.05860034 0.00939412322
v -0.0537675098 -0.0332060084 0.00862810109
v -0.0438304543 -0.0586309582 0.00938834157
v -0.0433059819 -0.0581487156 0.00938834157
v -0.036487855 -0.0601504073 0.00862810109
v -0.0361754037 -0.0582252592 0.00862810109
v -0.0341695771 -0.0332060084 0.00862810109
v -0.0339687169 -0.0315372907 0.00842864532
v -0.0339687169 -0.0304541569 0.00831012893
v -0.0539683737 -0.0304541569 0.00831012893
v -0.0617266446 -0.0283529535 0.00629245443
v -0.0617266446 -0.0524498187 0.00629245443
v -0.0511953682 -0.0608852543 0.00862810109
v -0.0446785353 -0.0581678525 0.00938256085
v -0.0442489125 -0.0586386137 0.00938256085
v -0.0471139774 -0.0650914907 0.00862810109
v -0.0456772633 -0.0655622482 0.00862810109
v -0.0437328108 -0.0657459646 0.00862810109
v -0.0437523387 -0.0586615764 0.00938256085
v -0.0432808734 -0.0582290888 0.00938256085
v -0.0418050997 -0.0654436052 0.00862810109
v -0.036836572 -0.061103411 0.00862810109
v -0.0341695771 -0.0663698167 0.0058270595
v -0.0339687169 -0.0664501935 0.00562760467
v -0.0359745398 -0.0582329147 0.00842864532
v -0.0339687169 -0.0332060084 0.00842864532
v -0.0539683737 -0.0283529535 0.00632714247
v -0.0339687169 -0.0304541569 -0.0196684841
v -0.0614671968 -0.0283529535 0.00632714247
v -0.0619665608 -0.0283529535 0.00619417243
v -0.0619665608 -0.0524498187 0.00619417243
v -0.051106099 -0.0610919297 0.00862810109
v -0.0447705947 -0.0583132878 0.00936521683
v -0.0502440669 -0.0625845864 0.00862521026
v -0.0500599444 -0.06282188 0.00862521026
v -0.0443995595 -0.0587189868 0.00936521683
v -0.0493429825 -0.0636026561 0.00862521026
v -0.0491225906 -0.0638055056 0.00862521026
v -0.0475129113 -0.0649001226 0.00862810109
v -0.0528831631 -0.0672501028 0.0058270595
v -0.0529668555 -0.0674529523 0.00562760467
v -0.0457191095 -0.065757446 0.00842864532
v -0.043727234 -0.0659488142 0.00842864532
v -0.0349702351 -0.0674529523 0.00562760467
v -0.0436072722 -0.0587534308 0.00936521683
v -0.0400140882 -0.0646743104 0.00862810109
v -0.0384685695 -0.0634801835 0.00862810109
v -0.0372689813 -0.0619415976 0.00862810109
v -0.0350539275 -0.0672501028 0.0058270595
v -0.0339687169 -0.0664501935 -0.0169686154
v -0.0539683737 -0.0283529535 -0.018671209
v -0.0339687169 -0.0315372907 -0.0197696574
v -0.0341695771 -0.0314530917 -0.0199691113
v -0.0539683737 -0.0304541569 -0.0196684841
v -0.0621757917 -0.0283529535 0.00603518635
v -0.0621757917 -0.0524498187 0.00603518635
v -0.0537675098 -0.0663698167 0.0058270595
v -0.0529668555 -0.0674529523 -0.0169686154
v -0.0539683737 -0.0664501935 0.00562760467
v -0.0349702351 -0.0674529523 -0.0169686154
v -0.0341695771 -0.0663698167 -0.0171709619
v -0.0361809805 -0.0583745278 -0.0200702846
v -0.0359829105 -0.0583821796 -0.0198708307
v -0.0339687169 -0.0332060084 -0.0197696574
v -0.062468715 -0.0283529535 -0.018671209
v -0.0341695771 -0.0332060084 -0.0199691113
v -0.036337208 -0.0563422143 -0.0200702846
v -0.037015114 -0.0544208959 -0.0200702846
v -0.0433199294 -0.057949692 -0.0201367699
v -0.0439699404 -0.0573028736 -0.0201367699
v -0.0537675098 -0.0314530917 -0.0199691113
v -0.0623320192 -0.0283529535 0.0058270595
v -0.0623320192 -0.0524498187 0.0058270595
v -0.0528831631 -0.0672501028 -0.0171709619
v -0.0463942252 -0.0653632283 -0.0200702846
v -0.0443911925 -0.0657383054 -0.0200702846
v -0.0444023497 -0.065941155 -0.0198708307
v -0.0539683737 -0.0664501935 -0.0169686154
v -0.0537675098 -0.0663698167 -0.0171709619
v -0.0624324493 -0.0524498187 0.00558713544
v -0.062468715 -0.0524498187 0.005326977
v -0.0423212014 -0.0657804087 -0.0198708307
v -0.0423602574 -0.0655852184 -0.0200702846
v -0.0350539275 -0.0672501028 -0.0171709619
v -0.0387614928 -0.0637557507 -0.0200702846
v -0.0374363661 -0.0622095093 -0.0200702846
v -0.0365548059 -0.0603723936 -0.0200702846
v -0.062468715 -0.0283529535 0.005326977
v -0.062468715 -0.0304541569 -0.018671209
v -0.0439699404 -0.05860034 -0.0201367699
v -0.0446199477 -0.057949692 -0.0201367699
v -0.0513822809 -0.0555269942 -0.0200702846
v -0.0517561063 -0.0575286858 -0.0200702846
v -0.0537675098 -0.0332060084 -0.0199691113
v -0.0624324493 -0.0283529535 0.00558713544
v -0.0497726016 -0.0631586909 -0.0200702846
v -0.0482270867 -0.0644867718 -0.0200702846
v -0.0479704291 -0.0646475181 -0.0200702846
v -0.062468715 -0.0524498187 -0.0106698871
v -0.0624324493 -0.0524498187 -0.0109300455
v -0.0623320192 -0.0524498187 -0.01116997
v -0.0621757917 -0.0524498187 -0.0113780964
v -0.0515998825 -0.0595609993 -0.0200702846
v -0.0509219766 -0.0614784919 -0.0200702846
v -0.040440917 -0.0649077818 -0.0200702846
v -0.061727535 -0.0283529535 0.00629460206
v -0.0619687513 -0.0283529535 0.00619465485
v -0.0624346398 -0.0283529535 0.0055874954
v -0.0621757731 -0.0283529535 0.00603573583
v -0.062334694 -0.0283529535 0.00582871167
v -0.0539687164 -0.0304529537 -0.0196691491
v -0.0539687164 -0.0274280179 -0.0226698928
v -0.0536672287 -0.0275524035 -0.0229713228
v -0.0536672287 -0.0283516422 -0.02216864
v -0.0339687169 -0.0304529537 -0.0196691491
v -0.0539687164 -0.0304529537 0.00830956921
v -0.0539687164 -0.0218121707 -0.0226698928
v -0.0536672287 -0.0218121707 -0.0229713228
v -0.0342702046 -0.0275524035 -0.0229713228
v -0.0342702046 -0.0283516422 -0.02216864
v -0.0339687169 -0.0274280179 -0.0226698928
v -0.0339687169 -0.0304529537 0.00830956921
v -0.0536672287 -0.0283516422 0.0108259944
v -0.0536672287 -0.0275524035 0.0116286762
v -0.0539687164 -0.0274280179 0.0113272471
v -0.0538825765 -0.0208964851 -0.0226698928
v -0.0535889193 -0.0209520627 -0.0229713228
v -0.0539687164 -0.0218121707 0.0113272471
v -0.0342702046 -0.0218121707 -0.0229713228
v -0.0339687169 -0.0218121707 -0.0226698928
v -0.0339687169 -0.0274280179 0.0113272471
v -0.0342702046 -0.0275524035 0.0116286762
v -0.0342702046 -0.0283516422 0.0108259944
v -0.0536672287 -0.0218121707 0.0116286762
v -0.051832851 -0.00988974236 -0.0214709509
v -0.0525826551 -0.0139203435 -0.0226698928
v -0.0538825765 -0.0208964851 0.0113272471
v -0.0522889979 -0.0139759202 -0.0229713228
v -0.0535889193 -0.0209520627 0.0116286762
v -0.0343485139 -0.0209520627 -0.0229713228
v -0.0340548567 -0.0208964851 -0.0226698928
v -0.0339687169 -0.0218121707 0.0113272471
v -0.0342702046 -0.0218121707 0.0116286762
v -0.0517055988 -0.00932604074 -0.0201704036
v -0.0513923652 -0.00844740681 -0.0226698928
v -0.051832851 -0.00988974236 0.0101283044
v -0.0525826551 -0.0139203435 0.0113272471
v -0.0510967523 -0.00849504396 -0.0229713228
v -0.0522889979 -0.0139759202 0.0116286762
v -0.0356484354 -0.0139759202 -0.0229713228
v -0.0353547782 -0.0139203435 -0.0226698928
v -0.0361045823 -0.00988974236 -0.0214709509
v -0.0340548567 -0.0208964851 0.0113272471
v -0.0343485139 -0.0209520627 0.0116286762
v -0.051323846 -0.00821186975 -0.0226698928
v -0.0517055988 -0.00932604074 0.00882775616
v -0.0513923652 -0.00844740681 0.0113272471
v -0.0510478094 -0.00832831487 -0.0229713228
v -0.0510967523 -0.00849504396 0.0116286762
v -0.036840681 -0.00849504396 -0.0229713228
v -0.036545068 -0.00844740681 -0.0226698928
v -0.0366135873 -0.00821186975 -0.0226698928
v -0.0361045823 -0.00988974236 0.0101283044
v -0.0353547782 -0.0139203435 0.0113272471
v -0.0356484354 -0.0139759202 0.0116286762
v -0.0512181297 -0.00797368586 -0.0226698928
v -0.051323846 -0.00821186975 0.0113272471
v -0.0509460084 -0.00810071733 -0.0229713228
v -0.0510478094 -0.00832831487 0.0116286762
v -0.0368896239 -0.00832831487 -0.0229713228
v -0.0367193036 -0.00797368586 -0.0226698928
v -0.0366135873 -0.00821186975 0.0113272471
v -0.036545068 -0.00844740681 0.0113272471
v -0.036840681 -0.00849504396 0.0116286762
v -0.050145302 -0.00627199374 -0.0226698928
v -0.049914293 -0.00646254094 -0.0229713228
v -0.0512181297 -0.00797368586 0.0113272471
v -0.0509460084 -0.00810071733 0.0116286762
v -0.0369914249 -0.00810071733 -0.0229713228
v -0.0380231403 -0.00646254094 -0.0229713228
v -0.0377921313 -0.00627199374 -0.0226698928
v -0.0367193036 -0.00797368586 0.0113272471
v -0.0368896239 -0.00832831487 0.0116286762
v -0.0486828908 -0.00489052711 -0.0226698928
v -0.050145302 -0.00627199374 0.0113272471
v -0.0485066958 -0.00513400417 -0.0229713228
v -0.049914293 -0.00646254094 0.0116286762
v -0.0394307375 -0.00513400417 -0.0229713228
v -0.0392545424 -0.00489052711 -0.0226698928
v -0.0377921313 -0.00627199374 0.0113272471
v -0.0380231403 -0.00646254094 0.0116286762
v -0.0369914249 -0.00810071733 0.0116286762
v -0.0471108481 -0.00399866095 -0.0226698928
v -0.0469933823 -0.00427389564 -0.0229713228
v -0.0486828908 -0.00489052711 0.0113272471
v -0.0485066958 -0.00513400417 0.0116286762
v -0.040944051 -0.00427389564 -0.0229713228
v -0.0408265851 -0.00399866095 -0.0226698928
v -0.0392545424 -0.00489052711 0.0113272471
v -0.0394307375 -0.00513400417 0.0116286762
v -0.0469209477 -0.00391926616 -0.0215691701
v -0.0468739644 -0.00392985204 -0.0226698928
v -0.0471108481 -0.00399866095 0.0113272471
v -0.0468269773 -0.00422625896 -0.0229713228
v -0.0469933823 -0.00427389564 0.0116286762
v -0.041110456 -0.00422625896 -0.0229713228
v -0.0410634689 -0.00392985204 -0.0226698928
v -0.0410164855 -0.00391926616 -0.0215691701
v -0.0408265851 -0.00399866095 0.0113272471
v -0.040944051 -0.00427389564 0.0116286762
v -0.0449730232 -0.00341643346 -0.0215691701
v -0.0469209477 -0.00391926616 0.0102265226
v -0.0466272905 -0.00392191252 -0.0226698928
v -0.0468739644 -0.00392985204 0.0113272471
v -0.0466546975 -0.00422096578 -0.0229713228
v -0.0468269773 -0.00422625896 0.0116286762
v -0.0412827358 -0.00422096578 -0.0229713228
v -0.0413101427 -0.00392191252 -0.0226698928
v -0.04296441 -0.00341643346 -0.0215691701
v -0.0410164855 -0.00391926616 0.0102265226
v -0.0410634689 -0.00392985204 0.0113272471
v -0.041110456 -0.00422625896 0.0116286762
v -0.0449730232 -0.00341643346 0.0102265226
v -0.0466272905 -0.00392191252 0.0113272471
v -0.0466546975 -0.00422096578 0.0116286762
v -0.04296441 -0.00341643346 0.0102265226
v -0.0413101427 -0.00392191252 0.0113272471
v -0.0412827358 -0.00422096578 0.0116286762
g 
f 3 1 2
f 4 1 3
f 5 1 4
f 6 1 5
f 2 1 6 15 21 27 33 39 45 50 57 63 69 70 64 58 52 46 40 34 28 22 16 7
f 3 2 7
f 4 3 8
f 9 3 7
f 10 3 9
f 8 3 10
f 11 4 8
f 12 4 11
f 5 4 12
f 13 5 12
f 14 5 13
f 15 5 14
f 6 5 15
f 17 7 16
f 9 7 17
f 11 8 10 18 24 30 36 42 48 54 60 66 72 67 61 56 49 43 37 31 25 19 13 12
f 10 9 17
f 18 10 17
f 20 13 19
f 14 13 20
f 15 14 20
f 21 15 20
f 17 16 22
f 23 17 22
f 24 17 23
f 18 17 24
f 20 19 25
f 26 20 25
f 27 20 26
f 21 20 27
f 29 22 28
f 23 22 29
f 24 23 29
f 30 24 29
f 32 25 31
f 26 25 32
f 27 26 32
f 33 27 32
f 29 28 34
f 35 29 34
f 30 29 35
f 36 30 35
f 38 31 37
f 32 31 38
f 39 32 38
f 33 32 39
f 41 34 40
f 35 34 41
f 42 35 41
f 36 35 42
f 38 37 43
f 44 38 43
f 39 38 44
f 45 39 44
f 41 40 46
f 47 41 46
f 48 41 47
f 42 41 48
f 44 43 49
f 45 44 50
f 51 44 49
f 50 44 51
f 53 46 52
f 47 46 53
f 48 47 53
f 54 48 53
f 51 49 55
f 55 49 56
f 55 50 51
f 57 50 55
f 53 52 58
f 59 53 58
f 60 53 59
f 54 53 60
f 61 55 56
f 62 55 61
f 63 55 62
f 57 55 63
f 65 58 64
f 59 58 65
f 60 59 65
f 66 60 65
f 68 61 67
f 62 61 68
f 63 62 68
f 69 63 68
f 65 64 70
f 71 65 70
f 66 65 71
f 72 66 71
f 71 67 72
f 68 67 71
f 70 68 71
f 69 68 70
f 75 73 74 77
f 76 73 75 79
f 74 73 76 80 84 88 92 96 100 104 108 112 116 118 114 110 106 102 98 94 90 86 82 78
f 77 74 78 81
f 79 75 77 81 85 89 93 97 101 105 109 113 117 120 119 115 111 107 103 99 95 91 87 83
f 80 76 79 83
f 81 78 82 85
f 84 80 83 87
f 85 82 86 89
f 88 84 87 91
f 89 86 90 93
f 92 88 91 95
f 93 90 94 97
f 96 92 95 99
f 97 94 98 101
f 100 96 99 103
f 101 98 102 105
f 104 100 103 107
f 105 102 106 109
f 108 104 107 111
f 109 106 110 113
f 112 108 111 115
f 113 110 114 117
f 116 112 115 119
f 117 114 118 120
f 118 116 119 120
f 123 121 122 125
f 124 121 123 127
f 122 121 124 128 132 136 140 144 148 152 156 160 164 166 162 158 154 150 146 142 138 134 130 126
f 125 122 126 129
f 127 123 125 129 133 137 141 145 149 153 157 161 165 168 167 163 159 155 151 147 143 139 135 131
f 128 124 127 131
f 129 126 130 133
f 132 128 131 135
f 133 130 134 137
f 136 132 135 139
f 137 134 138 141
f 140 136 139 143
f 141 138 142 145
f 144 140 143 147
f 145 142 146 149
f 148 144 147 151
f 149 146 150 153
f 152 148 151 155
f 153 150 154 157
f 156 152 155 159
f 157 154 158 161
f 160 156 159 163
f 161 158 162 165
f 164 160 163 167
f 165 162 166 168
f 166 164 167 168
f 171 169 170 174 178 182 186 190 194 198 202 206 210 214 211 207 203 199 195 191 187 183 179 175
f 172 169 171 176
f 170 169 172 173
f 174 170 173 177
f 176 171 175 180
f 173 172 176 180 184 188 192 196 200 204 208 212 215 216 213 209 205 201 197 193 189 185 181 177
f 178 174 177 181
f 180 175 179 184
f 182 178 181 185
f 184 179 183 188
f 186 182 185 189
f 188 183 187 192
f 190 186 189 193
f 192 187 191 196
f 194 190 193 197
f 196 191 195 200
f 198 194 197 201
f 200 195 199 204
f 202 198 201 205
f 204 199 203 208
f 206 202 205 209
f 208 203 207 212
f 210 206 209 213
f 212 207 211 215
f 214 210 213 216
f 215 211 214 216
f 219 217 218 222 226 230 234 238 242 246 250 254 258 262 259 255 251 247 243 239 235 231 227 223
f 220 217 219 224
f 218 217 220 221
f 222 218 221 225
f 224 219 223 228
f 221 220 224 228 232 236 240 244 248 252 256 260 263 264 261 257 253 249 245 241 237 233 229 225
f 226 222 225 229
f 228 223 227 232
f 230 226 229 233
f 232 227 231 236
f 234 230 233 237
f 236 231 235 240
f 238 234 237 241
f 240 235 239 244
f 242 238 241 245
f 244 239 243 248
f 246 242 245 249
f 248 243 247 252
f 250 246 249 253
f 252 247 251 256
f 254 250 253 257
f 256 251 255 260
f 258 254 257 261
f 260 255 259 263
f 262 258 261 264
f 263 259 262 264
f 267 265 266
f 268 265 267
f 269 265 268 272 276 280 284 288 291 295 299 303 307 311 313 309 305 301 297 293 289 285 281 277 273
f 266 265 269
f 270 266 269
f 267 266 270 274 278 282 286 290 294 298 302 306 310 312 308 304 300 296 292 287 283 279 275 271
f 268 267 271
f 272 268 271
f 270 269 273
f 274 270 273
f 272 271 275
f 276 272 275
f 274 273 277
f 278 274 277
f 276 275 279
f 280 276 279
f 278 277 281
f 282 278 281
f 280 279 283
f 284 280 283
f 282 281 285
f 286 282 285
f 284 283 287
f 288 284 287
f 286 285 289
f 290 286 289
f 288 287 291
f 291 287 292
f 290 289 293
f 294 290 293
f 295 291 292
f 295 292 296
f 294 293 297
f 298 294 297
f 299 295 296
f 299 296 300
f 298 297 301
f 302 298 301
f 303 299 300
f 303 300 304
f 302 301 305
f 306 302 305
f 307 303 304
f 307 304 308
f 306 305 309
f 310 306 309
f 311 307 308
f 311 308 312
f 310 309 313
f 312 310 313
f 313 311 312
f 316 314 315 318
f 317 314 316 320
f 315 314 317 321 325 329 333 337 341 345 349 353 357 359 355 351 347 343 339 335 331 327 323 319
f 318 315 319 322
f 320 316 318 322 326 330 334 338 342 346 350 354 358 361 360 356 352 348 344 340 336 332 328 324
f 321 317 320 324
f 322 319 323 326
f 325 321 324 328
f 326 323 327 330
f 329 325 328 332
f 330 327 331 334
f 333 329 332 336
f 334 331 335 338
f 337 333 336 340
f 338 335 339 342
f 341 337 340 344
f 342 339 343 346
f 345 341 344 348
f 346 343 347 350
f 349 345 348 352
f 350 347 351 354
f 353 349 352 356
f 354 351 355 358
f 357 353 356 360
f 358 355 359 361
f 359 357 360 361
f 364 362 363 366
f 365 362 364 368
f 363 362 365 369 373 377 381 385 389 393 397 401 405 407 403 399 395 391 387 383 379 375 371 367
f 366 363 367 370
f 368 364 366 370 374 378 382 386 390 394 398 402 406 409 408 404 400 396 392 388 384 380 376 372
f 369 365 368 372
f 370 367 371 374
f 373 369 372 376
f 374 371 375 378
f 377 373 376 380
f 378 375 379 382
f 381 377 380 384
f 382 379 383 386
f 385 381 384 388
f 386 383 387 390
f 389 385 388 392
f 390 387 391 394
f 393 389 392 396
f 394 391 395 398
f 397 393 396 400
f 398 395 399 402
f 401 397 400 404
f 402 399 403 406
f 405 401 404 408
f 406 403 407 409
f 407 405 408 409
f 412 410 411
f 413 410 412 415
f 411 410 413 414
f 412 411 414 415
f 414 413 415
f 418 416 417
f 419 416 418
f 420 416 419 428
f 417 416 420 422
f 418 417 421
f 421 417 422 426 425 424 423
f 423 418 421
f 424 418 423
f 425 418 424
f 426 418 425
f 427 418 426
f 419 418 427 428
f 427 420 428
f 422 420 427
f 426 422 427
f 431 429 430
f 432 429 431 436
f 430 429 432 434
f 431 430 433
f 433 430 434 437
f 435 431 433
f 436 431 435
f 434 432 436
f 435 433 437 441 440 439 438
f 437 434 436
f 436 435 438
f 439 436 438
f 440 436 439
f 441 436 440
f 437 436 441
f 444 442 443 450
f 445 442 444
f 446 442 445
f 443 442 446
f 448 443 447
f 449 443 448
f 450 443 449
f 451 443 446
f 447 443 451
f 452 444 450
f 453 444 452
f 454 444 453
f 455 444 454
f 456 444 455
f 445 444 456
f 457 445 456 475
f 458 445 457
f 446 445 458 459
f 460 446 459
f 451 446 460 461
f 462 447 461
f 448 447 462
f 461 447 451
f 463 448 462
f 464 448 463
f 449 448 464
f 465 449 464
f 466 449 465
f 450 449 466
f 467 450 466
f 452 450 467
f 469 452 468
f 453 452 469
f 470 452 467
f 468 452 470
f 471 453 469
f 454 453 471
f 472 454 471
f 455 454 472
f 473 455 472
f 474 455 473
f 456 455 474
f 475 456 474
f 458 457 475 473 499 513 501 477
f 459 458 476 478
f 476 458 477 500
f 460 459 478
f 479 460 478 476 500 514 537 544 521 504
f 461 460 479 480
f 481 461 480
f 462 461 481
f 463 462 481
f 464 463 482
f 483 463 481
f 484 463 483
f 482 463 484
f 486 464 485
f 487 464 486
f 488 464 487
f 465 464 488
f 485 464 482
f 489 465 488
f 466 465 489
f 490 466 489
f 491 466 490
f 492 466 491
f 467 466 492
f 493 467 492
f 470 467 493
f 469 468 494
f 495 468 470
f 496 468 495
f 494 468 496
f 496 469 494
f 497 469 496
f 471 469 497
f 498 470 493
f 495 470 498
f 472 471 497
f 498 472 496
f 493 472 498
f 473 472 493
f 496 472 497
f 499 473 493 509
f 474 473 475
f 502 477 501
f 503 477 502 520
f 500 477 503 514
f 480 479 504 505
f 506 480 505
f 483 480 506
f 481 480 483
f 485 482 484
f 484 483 506
f 486 484 506
f 485 484 486
f 489 486 506
f 487 486 489
f 488 487 489
f 490 489 506
f 493 490 507 509
f 492 490 493
f 491 490 492
f 508 490 506
f 507 490 508 527
f 496 495 498
f 510 499 509
f 511 499 510
f 512 499 511
f 513 499 512
f 502 501 513 515
f 511 502 515
f 516 502 511
f 517 502 516
f 518 502 517
f 519 502 518
f 520 502 519
f 514 503 520
f 505 504 521 522
f 508 505 522
f 506 505 508
f 524 507 523
f 525 507 524
f 526 507 525
f 509 507 526
f 528 507 527
f 523 507 528
f 529 508 522
f 530 508 529
f 527 508 530 548
f 531 509 526
f 532 509 531
f 533 509 532
f 510 509 533
f 534 510 533
f 535 510 534
f 536 510 535
f 511 510 536
f 518 511 536
f 516 511 518
f 513 511 515
f 512 511 513
f 538 514 520 543
f 537 514 538 548 530
f 517 516 518
f 535 518 536
f 534 518 535
f 539 518 534
f 519 518 539 540
f 520 519 540
f 541 520 540
f 542 520 541
f 543 520 542
f 522 521 544 529
f 545 523 528
f 546 523 545
f 547 523 546
f 524 523 547
f 539 524 547
f 525 524 539
f 532 525 539
f 526 525 532
f 531 526 532
f 549 527 548
f 550 527 549
f 551 527 550
f 538 527 551
f 528 527 538
f 553 528 552
f 545 528 553
f 552 528 538
f 530 529 544 537
f 554 532 539
f 533 532 554
f 534 533 554
f 539 534 554
f 542 538 543
f 552 538 542
f 550 538 551
f 549 538 550
f 548 538 549
f 546 539 547
f 545 539 546
f 540 539 545
f 553 540 545
f 552 540 553
f 542 540 552
f 541 540 542
f 557 555 556 558 559
f 556 555 557 559 558
f 562 560 561
f 563 560 562
f 564 560 563 569
f 565 560 564 571
f 561 560 565 574 577 566
f 562 561 566 567
f 568 562 567 576 587 597 607 617 625 635 643 653 664 666 655 646 637 629 628 619 609 599 589 578
f 563 562 568 569
f 568 564 569
f 570 564 568
f 571 564 570 579 591 580
f 572 565 571 582
f 573 565 572
f 574 565 573
f 576 566 575
f 567 566 576
f 575 566 577 586
f 570 568 578 579
f 581 571 580
f 582 571 581
f 573 572 582 581
f 583 573 581 592 603 614 623 632 641 640 649 659 671 677 674 665 654 645 636 627 618 608 598 588
f 574 573 583 577
f 585 575 584
f 576 575 585 587
f 584 575 586 595
f 588 577 583
f 586 577 588
f 579 578 589
f 590 579 589
f 591 579 590 602
f 581 580 591 592
f 594 584 593
f 585 584 594
f 593 584 595 605
f 587 585 594
f 596 586 588 598
f 595 586 596
f 597 587 594
f 590 589 599 600
f 601 590 600
f 602 590 601 612
f 603 591 602
f 592 591 603
f 594 593 604
f 604 593 605 616
f 597 594 604
f 606 595 596
f 605 595 606
f 606 596 598
f 607 597 604
f 606 598 608
f 610 599 609
f 600 599 610
f 601 600 610
f 611 601 610
f 612 601 611 621
f 613 602 612
f 603 602 613 614
f 607 604 615
f 615 604 616 626
f 616 605 606
f 616 606 608
f 617 607 615
f 616 608 618
f 611 609 619
f 610 609 611
f 620 611 619
f 621 611 620 631
f 622 612 621
f 613 612 622
f 614 613 622
f 623 614 622
f 625 615 624
f 617 615 625
f 624 615 626 634
f 626 616 618
f 626 618 627
f 620 619 628
f 629 620 628
f 630 620 629
f 631 620 630 639
f 632 621 631
f 623 621 632
f 622 621 623
f 625 624 633
f 633 624 634 644
f 635 625 633
f 636 626 627
f 634 626 636
f 638 629 637
f 630 629 638
f 639 630 638 648
f 640 631 639
f 641 631 640
f 632 631 641
f 643 633 642
f 635 633 643
f 642 633 644 652
f 644 634 636
f 644 636 645
f 638 637 646
f 647 638 646
f 648 638 647 658
f 640 639 648
f 649 640 648
f 651 642 650
f 643 642 651
f 650 642 652 661
f 653 643 651
f 654 644 645
f 652 644 654
f 656 646 655
f 647 646 656
f 657 647 656
f 658 647 657 669
f 659 648 658
f 649 648 659
f 651 650 660
f 660 650 661 672
f 653 651 662
f 662 651 660
f 663 652 654
f 661 652 663
f 664 653 662
f 663 654 665
f 667 655 666
f 656 655 667
f 668 656 667
f 657 656 668
f 669 657 668 675
f 670 658 669
f 659 658 670
f 671 659 670
f 662 660 668 667
f 668 660 672 675
f 672 661 663
f 664 662 667 666
f 672 663 673
f 673 663 665
f 673 665 674
f 670 669 675
f 676 670 675
f 671 670 676
f 677 671 676
f 675 672 673 676
f 676 673 674 677
