# File exported by Houdini 20.5.410 (www.sidefx.com)
# 1477 points
# 7616 vertices
# 2373 primitives
# Bounds: [-0.0737000257, -0.140586868, -0.0797929093] to [-0.0440595374, -0.0689596832, -0.0467929132]
g 
v -0.0617425032 -0.110618778 -0.0513158068
v -0.0601771735 -0.110629 -0.0513633117
v -0.0583175272 -0.110581666 -0.0518212691
v -0.0607767515 -0.129448384 -0.0513244383
v -0.0591825917 -0.129968107 -0.0515207611
v -0.0689097196 -0.110686578 -0.0512921363
v -0.056318827 -0.110589631 -0.0528913811
v -0.0578048453 -0.12906754 -0.0519659147
v -0.0562385842 -0.130072564 -0.0528543107
v -0.0595765933 -0.131631881 -0.0514999852
v -0.057912901 -0.131186783 -0.0519711636
v -0.0683246925 -0.1300347 -0.0512686186
v -0.0614062436 -0.131787375 -0.0513532534
v -0.054828994 -0.110573679 -0.0543464012
v -0.0581582189 -0.133079901 -0.0522157997
v -0.070220612 -0.130117998 -0.0515685081
v -0.0538426675 -0.11057552 -0.0559225865
v -0.0548371486 -0.129634231 -0.0542498082
v -0.0542320386 -0.130895942 -0.0551910624
v -0.0565117374 -0.132454917 -0.0529401414
v -0.069127351 -0.13197352 -0.0513841398
v -0.0623276122 -0.133531839 -0.0517226197
v -0.0600381419 -0.133697346 -0.0518636256
v -0.0536580868 -0.129449397 -0.0561857447
v -0.0551331528 -0.131628349 -0.0540214218
v -0.0567835383 -0.134332284 -0.0534778647
v -0.0583742596 -0.134609088 -0.0527187511
v -0.0709544718 -0.110677958 -0.0746122226
v -0.0614377782 -0.134853736 -0.0522564203
v -0.0597205348 -0.135546714 -0.052795358
v -0.0530917048 -0.110599518 -0.0596206039
v -0.0532642938 -0.130782709 -0.0575925969
v -0.0530825555 -0.129757091 -0.0585498065
v -0.0536961555 -0.131674379 -0.056425903
v -0.0552631989 -0.133526236 -0.0544474982
v -0.0721315667 -0.112795256 -0.0739713609
v -0.0732325912 -0.113197498 -0.0723426491
v -0.0736112148 -0.112514354 -0.0708134174
v -0.0695051923 -0.110618606 -0.075119704
v -0.0713032335 -0.13195163 -0.074530609
v -0.0737000257 -0.135252178 -0.0565843508
v -0.0733342767 -0.135273665 -0.0545818806
v -0.0727957189 -0.13396807 -0.0535446741
v -0.071752511 -0.133580148 -0.0523740798
v -0.0719972551 -0.135279685 -0.0527622066
v -0.0701291934 -0.134188503 -0.0519433022
v -0.0707473904 -0.136047453 -0.0529179871
v -0.0598895699 -0.137123942 -0.0539422669
v -0.053085845 -0.11058262 -0.0673611015
v -0.0531658009 -0.132101431 -0.0592952743
v -0.054292839 -0.132285804 -0.0553172939
v -0.0535768308 -0.133044049 -0.0576413237
v -0.05427064 -0.133641928 -0.0561007485
v -0.0556613207 -0.135429248 -0.0553837232
v -0.0576780178 -0.136032775 -0.0539855622
v -0.0715545937 -0.115086474 -0.074286744
v -0.0678537786 -0.110606134 -0.0752987191
v -0.069752872 -0.131292462 -0.0751392245
v -0.0707923844 -0.129791841 -0.0748099685
v -0.0736648217 -0.136245087 -0.0701993108
v -0.0736876205 -0.137369677 -0.0577805042
v -0.0618172102 -0.13609986 -0.0529551879
v -0.0533037335 -0.110586107 -0.0691713095
v -0.0530864373 -0.131478652 -0.0667521879
v -0.0533175208 -0.132759169 -0.0673594028
v -0.0544747673 -0.135153651 -0.0574100055
v -0.0558871999 -0.137088358 -0.0574994721
v -0.058250431 -0.137434632 -0.0550821088
v -0.0595983118 -0.138398841 -0.0555525459
v -0.0729760602 -0.134248808 -0.0728782266
v -0.0686197802 -0.130540028 -0.0752767175
v -0.0701447502 -0.133650959 -0.0748047978
v -0.0719484091 -0.133559957 -0.074092187
v -0.0728355348 -0.136452377 -0.0538877249
v -0.0623991564 -0.137325063 -0.0538995862
v -0.0611810274 -0.138163865 -0.054796353
v -0.0538273863 -0.110614516 -0.0706862956
v -0.0530493818 -0.129618704 -0.0670269653
v -0.0532846376 -0.12959078 -0.069152005
v -0.0531884842 -0.131534308 -0.068362616
v -0.0541951321 -0.135180578 -0.0607907921
v -0.0538163781 -0.134393916 -0.0592383705
v -0.0537551939 -0.134202525 -0.067152448
v -0.0537060313 -0.13343291 -0.0690399632
v -0.0568980426 -0.136966437 -0.0556370653
v -0.0570130274 -0.138419524 -0.0587306544
v -0.0734676272 -0.135737404 -0.0718406662
v -0.061259523 -0.110602267 -0.0752822012
v -0.0616268069 -0.130338803 -0.0753062665
v -0.0736618415 -0.138755396 -0.0649335384
v -0.0734400973 -0.138493374 -0.0573267192
v -0.0734360665 -0.139685452 -0.0608041994
v -0.0735318437 -0.139061898 -0.058882907
v -0.0735320598 -0.137158155 -0.0555828512
v -0.0726774484 -0.138314128 -0.0552871078
v -0.0710354447 -0.137424931 -0.0539448634
v -0.0540550202 -0.129384696 -0.0712617934
v -0.0536563322 -0.131568551 -0.0701389238
v -0.0543517619 -0.132954836 -0.0711017102
v -0.0547987968 -0.136203513 -0.0592944697
v -0.0545400828 -0.135856941 -0.0665365681
v -0.0546584763 -0.134526893 -0.0705297366
v -0.0578515343 -0.138365701 -0.0568941981
v -0.0586773865 -0.139382601 -0.0588095784
v -0.059931457 -0.139449596 -0.057356257
v -0.0593405478 -0.110585429 -0.0750762299
v -0.0683841929 -0.132239282 -0.0751846135
v -0.0706632808 -0.138763636 -0.0555677265
v -0.0631270856 -0.138408333 -0.0550616607
v -0.0615674406 -0.139096275 -0.0560844243
v -0.0559700727 -0.110645995 -0.0734285191
v -0.055195611 -0.129748538 -0.0727581978
v -0.0544328243 -0.131282747 -0.0717003122
v -0.0560547635 -0.13768065 -0.0597581416
v -0.0557666831 -0.137374699 -0.0677776486
v -0.0607567169 -0.140112013 -0.0590503067
v -0.0595568232 -0.139940739 -0.0605914891
v -0.0577018969 -0.13899371 -0.0602130629
v -0.0576619394 -0.110590033 -0.0744868964
v -0.0587870218 -0.129542813 -0.0749768019
v -0.0599993058 -0.129985094 -0.0752509758
v -0.060523469 -0.132445723 -0.0750895888
v -0.0619825795 -0.133933857 -0.0747019425
v -0.0715299696 -0.135294273 -0.0739874318
v -0.072377637 -0.139514759 -0.0570767783
v -0.0709571987 -0.140317261 -0.0589260496
v -0.0703362301 -0.139692277 -0.0571511015
v -0.0564681031 -0.130028695 -0.0738778263
v -0.0554146692 -0.131871834 -0.072815828
v -0.0546721146 -0.135657907 -0.068892017
v -0.0564176589 -0.137280717 -0.0697456002
v -0.0595475323 -0.13994889 -0.0650514662
v -0.0583895035 -0.139378592 -0.0660417974
v -0.0622627959 -0.139884457 -0.0576343201
v -0.0629170835 -0.140389845 -0.0593717024
v -0.0733019039 -0.137640491 -0.0712325573
v -0.0577006936 -0.130247727 -0.0745585412
v -0.060444627 -0.134598047 -0.0743930042
v -0.0607712641 -0.136308581 -0.0734354705
v -0.0697264299 -0.135610551 -0.073981002
v -0.0723451674 -0.136539489 -0.073064059
v -0.0731423423 -0.139850304 -0.0669063628
v -0.0725343972 -0.14010416 -0.0591216199
v -0.0570358075 -0.13855806 -0.0668831766
v -0.0558659323 -0.134139344 -0.0724697709
v -0.0574062802 -0.135705918 -0.0726602376
v -0.0634002909 -0.140571713 -0.0614325553
v -0.0611012466 -0.14036648 -0.0649755672
v -0.0614168048 -0.140434518 -0.0609944239
v -0.0584952943 -0.139264539 -0.0680983067
v -0.0586599708 -0.131460205 -0.0748948157
v -0.06236412 -0.135515466 -0.0740012303
v -0.0703770444 -0.137143418 -0.072830826
v -0.0720206946 -0.138330117 -0.0715634227
v -0.0716683418 -0.140289396 -0.0676224753
v -0.0716948584 -0.140565142 -0.0612275153
v -0.0727981329 -0.140293792 -0.0652889833
v -0.0706375241 -0.140552267 -0.0656265095
v -0.0569635183 -0.132322609 -0.0739732832
v -0.0574198887 -0.134220317 -0.0735605732
v -0.0572135895 -0.138307914 -0.0686395913
v -0.0559486486 -0.135904387 -0.0710841268
v -0.0577818453 -0.137217924 -0.0714901909
v -0.0632378757 -0.140579745 -0.0650668293
v -0.0586011931 -0.133498475 -0.0744494125
v -0.0589365959 -0.135267764 -0.0737082213
v -0.0626051128 -0.13716118 -0.0728522241
v -0.0700627565 -0.138807684 -0.0709596947
v -0.0714951307 -0.139553636 -0.0697548017
v -0.0582566932 -0.138474226 -0.069897756
v -0.0595958903 -0.138308302 -0.0711616799
v -0.0619990304 -0.140444815 -0.0666156411
v -0.059346512 -0.136880234 -0.0726493001
v -0.0610522702 -0.137869582 -0.0720825717
v -0.0620539598 -0.139916465 -0.0688570589
v -0.0637314022 -0.140384138 -0.0672491714
v -0.0599792674 -0.139386386 -0.0693533421
v -0.0611122437 -0.139016896 -0.0705634505
v -0.0631622672 -0.138780341 -0.0710311159
v -0.0736576542 -0.124688126 -0.0631419271
v -0.0639078841 -0.11055968 -0.0630200282
v -0.073664248 -0.124872573 -0.0576599389
v -0.0736609399 -0.123975955 -0.0693004057
v -0.0736408457 -0.123761371 -0.0560178012
v -0.0735016167 -0.122495763 -0.0714502484
v -0.0734475031 -0.1230378 -0.0548928827
v -0.0732774064 -0.125376925 -0.0721962228
v -0.0620493293 -0.11055968 -0.0663071945
v -0.0712009892 -0.120741293 -0.052051723
v -0.0728884488 -0.123410061 -0.0537162647
v -0.0608238801 -0.11055968 -0.0673908368
v -0.0712429509 -0.1105626 -0.0636943281
v -0.0703966394 -0.12246906 -0.0516971499
v -0.0718565285 -0.123153418 -0.0740520954
v -0.0725407749 -0.123596385 -0.0733770356
v -0.070281446 -0.122630872 -0.0749394596
v -0.0712826326 -0.121809326 -0.0744751766
v -0.0713254586 -0.123325408 -0.0521098413
v -0.0715806931 -0.121999122 -0.0742719471
v -0.0697329491 -0.121342547 -0.075119257
v -0.0698321536 -0.120910749 -0.0514962561
v -0.0530595481 -0.120720863 -0.063206993
v -0.0694255829 -0.121485725 -0.0514084995
v -0.0691862777 -0.12027958 -0.0513587631
v -0.0688349679 -0.12129996 -0.0752712265
v -0.0534727685 -0.120291866 -0.0696689337
v -0.0568161234 -0.121092483 -0.07405705
v -0.0541897826 -0.120691203 -0.0552521572
v -0.0540702082 -0.120541155 -0.0711178184
v -0.053095255 -0.121180795 -0.0678545535
v -0.0609782897 -0.119904697 -0.0512987524
v -0.0593162999 -0.119235381 -0.0750791579
v -0.0531982891 -0.12011946 -0.0578126758
v -0.0549260415 -0.120574161 -0.0541595928
v -0.0557301044 -0.120388784 -0.0732454434
v -0.0551001206 -0.121302687 -0.0726082996
v -0.0557408556 -0.120850839 -0.0533366054
v -0.0580909215 -0.120454058 -0.0747218132
v -0.053072039 -0.121653177 -0.0589134321
v -0.0565835126 -0.121295981 -0.0526742637
v -0.0545857102 -0.120907992 -0.0719908103
v -0.0596221164 -0.121395461 -0.0751626343
v -0.0531828851 -0.12062221 -0.068677552
v -0.0682037622 -0.120058626 -0.0753024146
v -0.0682730824 -0.120558523 -0.0512794107
v -0.053045731 -0.120699055 -0.0665880367
v -0.0536546297 -0.120864339 -0.0562914088
v -0.0537395328 -0.119696878 -0.0705101117
v -0.0577836931 -0.120751008 -0.0519980304
v -0.0608763434 -0.120066963 -0.0752963349
v -0.0530564487 -0.120648295 -0.0599036552
v -0.0726205409 -0.111461453 -0.0609579459
v -0.0566066131 -0.110559694 -0.0675985068
v -0.0636393875 -0.110561527 -0.0525359027
v -0.0678993091 -0.110559583 -0.0587757528
v -0.0736570284 -0.119174182 -0.0677572265
v -0.0736576542 -0.117632084 -0.0664159805
v -0.0736576542 -0.118651517 -0.0600991696
v -0.0736576617 -0.130851582 -0.0602582544
v -0.0653837323 -0.110559843 -0.0531249791
v -0.0736321583 -0.112481117 -0.0637130663
v -0.0736576542 -0.130950481 -0.0667297915
v -0.0596277639 -0.11055968 -0.0582445115
v -0.0588583611 -0.11055968 -0.0597470105
v -0.0664429441 -0.110559762 -0.0694899857
v -0.0736607462 -0.11842005 -0.069291234
v -0.0736631304 -0.130384967 -0.0568182059
v -0.0736626536 -0.118395999 -0.056927979
v -0.0736786947 -0.130537316 -0.0702035651
v -0.0736394823 -0.118723616 -0.0705882311
v -0.0736576542 -0.115579613 -0.0615053438
v -0.0735710487 -0.129731074 -0.0553065948
v -0.0730877444 -0.117648646 -0.0725725368
v -0.0563856028 -0.110559724 -0.0613648184
v -0.0731426626 -0.129578173 -0.0542151071
v -0.0719770342 -0.128026634 -0.0740345418
v -0.058673799 -0.110559762 -0.0711723417
v -0.0718742162 -0.118555777 -0.052508533
v -0.0568902567 -0.110559687 -0.0641244724
v -0.0713580102 -0.110543549 -0.0583528653
v -0.0630193204 -0.11055968 -0.0575050749
v -0.0710780993 -0.110590756 -0.0685813949
v -0.0705019087 -0.114816114 -0.0748481676
v -0.0727108866 -0.128919154 -0.0534358211
v -0.0712088123 -0.12659058 -0.0745172799
v -0.0728641003 -0.119420208 -0.0729431733
v -0.0709636584 -0.116106242 -0.0746564791
v -0.0663269088 -0.110557891 -0.0523016006
v -0.0718113109 -0.118128344 -0.074085921
v -0.0702898428 -0.126035303 -0.0516583398
v -0.0530601516 -0.125561252 -0.0653944984
v -0.0530598499 -0.125514954 -0.0615117587
v -0.071437791 -0.116999917 -0.074375011
v -0.0630456805 -0.115229368 -0.0512951501
v -0.066387549 -0.115609966 -0.0512957796
v -0.066316098 -0.1251688 -0.05129591
v -0.0664865077 -0.115616433 -0.0752907246
v -0.0635073557 -0.115151927 -0.0752901062
v -0.0663559362 -0.125222966 -0.0752898008
v -0.0633840039 -0.126413018 -0.0752899051
v -0.0692502782 -0.126206011 -0.0513767228
v -0.0695546269 -0.115166865 -0.0751438141
v -0.0693457872 -0.116828769 -0.0751965865
v -0.0691256598 -0.115742236 -0.0513421968
v -0.0661449805 -0.139280766 -0.0564336143
v -0.0677815601 -0.126657575 -0.0512806252
v -0.0565703101 -0.110559717 -0.0699182823
v -0.0690614209 -0.126254365 -0.0752497017
v -0.0678737685 -0.116017744 -0.0753148347
v -0.0650751665 -0.110562354 -0.0514179207
v -0.0663660541 -0.137374207 -0.0726257637
v -0.0679010078 -0.12440718 -0.0753108785
v -0.0554640032 -0.115732402 -0.0729500428
v -0.0551065132 -0.116357304 -0.0539664514
v -0.0586202592 -0.115661062 -0.0748664066
v -0.0571596473 -0.115650602 -0.0523652099
v -0.0563341938 -0.115411766 -0.0737391859
v -0.0545801036 -0.116231933 -0.0719792843
v -0.0543533787 -0.115786806 -0.05500542
v -0.0583652109 -0.115763605 -0.0517825633
v -0.0533057451 -0.116322063 -0.0691598281
v -0.0530541651 -0.114780709 -0.0593331568
v -0.0533245094 -0.125241891 -0.0691836402
v -0.0586465895 -0.125479832 -0.0517119691
v -0.0575857311 -0.116374791 -0.0744963661
v -0.0569011308 -0.124497101 -0.0741133243
v -0.0543632582 -0.1251304 -0.0549352802
v -0.0538931601 -0.125266269 -0.05576111
v -0.0573967434 -0.125584513 -0.052193258
v -0.0538175739 -0.124968521 -0.0706809834
v -0.0531229451 -0.114773721 -0.0680245236
v -0.0530501865 -0.125039592 -0.067482993
v -0.0615037046 -0.116495453 -0.0512795523
v -0.0590640157 -0.125645816 -0.0750331879
v -0.0550003201 -0.125668138 -0.0540792979
v -0.0560377501 -0.125173256 -0.0735061094
v -0.0552876852 -0.125569552 -0.0728167444
v -0.0559286885 -0.126220569 -0.0531670004
v -0.0534525178 -0.125511095 -0.0568398088
v -0.0579833426 -0.125167295 -0.0746716112
v -0.0531585068 -0.124875866 -0.0579947904
v -0.0617043599 -0.115455702 -0.0753075257
v -0.0617254749 -0.125257045 -0.075303711
v -0.0560725778 -0.11559052 -0.0530414917
v -0.0564720519 -0.124736197 -0.0527471378
v -0.0545705706 -0.125338525 -0.0719725639
v -0.0532495603 -0.126544908 -0.0575657636
v -0.0680504888 -0.115083732 -0.0512846671
v -0.0599940233 -0.115869448 -0.0752234608
v -0.0604203157 -0.125796631 -0.0752631724
v -0.0599243566 -0.115967169 -0.0513792187
v -0.0599313974 -0.125345975 -0.0513752252
v -0.0680810511 -0.124364145 -0.0512753166
v -0.0530478321 -0.115976505 -0.0668000802
v -0.0537602194 -0.115966186 -0.0705606192
v -0.0612563379 -0.125092864 -0.0512904413
v -0.0530558936 -0.125630438 -0.0597757362
v -0.0664276332 -0.136551291 -0.0532891825
v -0.0669329241 -0.13757503 -0.0541793518
v -0.0666852295 -0.135900393 -0.0737384707
v -0.0669060722 -0.140034929 -0.0581290685
v -0.0668117851 -0.138621211 -0.0711947829
v -0.0672169998 -0.138459668 -0.0551927164
v -0.0659703389 -0.139877826 -0.0689168349
v -0.0658467636 -0.135132879 -0.0524008572
v -0.0672452748 -0.13948983 -0.0697849244
v -0.0673103705 -0.140559196 -0.063412711
v -0.0658339709 -0.134433329 -0.0745186731
v -0.0661117882 -0.133547112 -0.0517470054
v -0.0567804091 -0.110558555 -0.0721048936
v -0.0677177384 -0.140223652 -0.0678105429
v -0.0671142191 -0.140552387 -0.0656480417
v -0.0713562518 -0.110535569 -0.0567311198
v -0.0736473501 -0.112488844 -0.0659753829
v -0.0723509714 -0.111175701 -0.0569408536
v -0.0675831288 -0.140420005 -0.059674345
v -0.0674262717 -0.140560061 -0.0613326877
v -0.065256834 -0.131759182 -0.0513508581
v -0.0649883077 -0.132166132 -0.0751722232
v -0.0532599278 -0.132562816 -0.0635478273
v -0.0608950406 -0.11055968 -0.0709190592
v -0.0530807599 -0.110578112 -0.0630754903
v -0.0653257594 -0.111507796 -0.0512742065
v -0.0540430173 -0.134929955 -0.0628267601
v -0.0674607307 -0.110559672 -0.0636806786
v -0.0596765056 -0.110552892 -0.0531724282
v -0.053059686 -0.113753781 -0.0624706447
v -0.0658891872 -0.110610619 -0.0752492473
v -0.0640987605 -0.113364406 -0.0752908364
v -0.0641983598 -0.12825045 -0.0752917379
v -0.0551876538 -0.110566735 -0.0716774166
v -0.0724439621 -0.111532666 -0.0670604929
v -0.0553071201 -0.136904389 -0.0631703362
v -0.06988848 -0.110558882 -0.055507537
v -0.0618353225 -0.11055968 -0.0558633991
v -0.0736576542 -0.128297538 -0.0628992692
v -0.073659189 -0.115625605 -0.0686232448
v -0.0736584663 -0.12737973 -0.0687696412
v -0.0736576617 -0.127775788 -0.0614893399
v -0.0736577958 -0.13426435 -0.0585578755
v -0.0736576542 -0.1217186 -0.0616628081
v -0.0736577213 -0.115834914 -0.0652503818
v -0.0736576542 -0.121892437 -0.0652751401
v -0.0736576617 -0.115379341 -0.058059793
v -0.0736573115 -0.121536136 -0.0586047694
v -0.0617220514 -0.110558778 -0.0527709313
v -0.0736576542 -0.118844114 -0.0635662377
v -0.0736576691 -0.124494068 -0.0598628707
v -0.0736518949 -0.112529464 -0.0596411936
v -0.0568600968 -0.138410583 -0.0634889454
v -0.0583756007 -0.139399543 -0.0640518591
v -0.0736576244 -0.133643791 -0.0681559443
v -0.0736631528 -0.122322313 -0.0687284097
v -0.0736576542 -0.127801478 -0.0648086369
v -0.0695539713 -0.110559195 -0.0715354308
v -0.0653014258 -0.110559672 -0.066069752
v -0.0616460107 -0.11055968 -0.0612071492
v -0.0584152676 -0.110559687 -0.0562632494
v -0.0658945516 -0.110559672 -0.0556393936
v -0.0562315322 -0.110560209 -0.0559510551
v -0.0683568344 -0.110552914 -0.0524854846
v -0.0599642992 -0.11055968 -0.0610079169
v -0.0681430101 -0.110556826 -0.0736990049
v -0.0736554489 -0.136536688 -0.0616667829
v -0.0736576542 -0.131230325 -0.0646695122
v -0.0736552328 -0.121752396 -0.0564016514
v -0.073664926 -0.126899987 -0.0571211614
v -0.073670432 -0.12835516 -0.0703381449
v -0.0736650899 -0.128512412 -0.0576991998
v -0.0736557469 -0.116456799 -0.0567976423
v -0.0736678615 -0.116462193 -0.0699209869
v -0.0735475868 -0.133842617 -0.0713855177
v -0.0736575872 -0.122561283 -0.0702997223
v -0.0736731887 -0.12034671 -0.0694666728
v -0.0736576542 -0.117467493 -0.0644148365
v -0.0736576542 -0.120292582 -0.0639443696
v -0.0736585781 -0.114344545 -0.0659995228
v -0.0736576766 -0.126453549 -0.0589079149
v -0.0736580491 -0.123372808 -0.0586650148
v -0.0736087933 -0.114993818 -0.0555640049
v -0.0735872984 -0.114760742 -0.0710935742
v -0.0735884085 -0.133657202 -0.0555055998
v -0.0731951371 -0.132814586 -0.0542386472
v -0.0734283552 -0.127536103 -0.0717133582
v -0.0549933948 -0.110558674 -0.060493134
v -0.0732406154 -0.115540244 -0.0722137541
v -0.0733049288 -0.115456894 -0.0545536652
v -0.0732519329 -0.118921801 -0.0542938039
v -0.0715475008 -0.130061507 -0.0522770435
v -0.05883044 -0.110559672 -0.0638062581
v -0.0730523914 -0.127139285 -0.0726235509
v -0.0732065439 -0.121383123 -0.054208003
v -0.0714104474 -0.126241088 -0.0521755964
v -0.0725734979 -0.126022264 -0.0733083561
v -0.0698065534 -0.124167606 -0.0751081109
v -0.0731923133 -0.130907848 -0.0541389212
v -0.0731207058 -0.121402204 -0.0725099519
v -0.0719110668 -0.126093149 -0.0526083857
v -0.072271131 -0.121885695 -0.052895125
v -0.0721659884 -0.131986558 -0.0737666786
v -0.069958657 -0.114541531 -0.0750502422
v -0.0702998638 -0.119917147 -0.0516504161
v -0.0547733866 -0.110560261 -0.0622518286
v -0.0664907768 -0.110557213 -0.0733771101
v -0.0713781342 -0.11056301 -0.0602951236
v -0.0676977932 -0.11055968 -0.0607189462
v -0.0716348588 -0.110560395 -0.0551280417
v -0.0678834394 -0.110559657 -0.0555667467
v -0.0633416995 -0.11055968 -0.0612212196
v -0.0706571862 -0.110538565 -0.0730675086
v -0.0598897077 -0.110559471 -0.055095274
v -0.072341457 -0.119985767 -0.0529462434
v -0.07248272 -0.126132712 -0.0531446636
v -0.0717310384 -0.120081194 -0.0741637051
v -0.070218794 -0.116091222 -0.0749920085
v -0.0725241601 -0.114800632 -0.0734240636
v -0.0634905472 -0.110614575 -0.0513155311
v -0.0600966066 -0.140104905 -0.0629356951
v -0.0722270086 -0.121129245 -0.0737380758
v -0.0712325647 -0.125023887 -0.0745074823
v -0.0713915229 -0.119940154 -0.0744051561
v -0.0727752969 -0.126972824 -0.0535390563
v -0.073657766 -0.123306759 -0.0671914369
v -0.0736576542 -0.132853821 -0.0636695176
v -0.0736576542 -0.129696175 -0.0636098608
v -0.0736576542 -0.126498833 -0.0660610273
v -0.0704179406 -0.125515923 -0.0749025419
v -0.0710299835 -0.114331238 -0.0746279731
v -0.0530595258 -0.123706438 -0.0626228973
v -0.0530597679 -0.123752609 -0.0607862063
v -0.053048633 -0.118721314 -0.0597520769
v -0.0530592129 -0.112268716 -0.0639300868
v -0.0530529767 -0.112374313 -0.0659917817
v -0.0530569665 -0.128992826 -0.0648694858
v -0.0736384019 -0.138290763 -0.0622890778
v -0.0624117292 -0.123866796 -0.0512797832
v -0.064137347 -0.118617319 -0.0512952246
v -0.0661387518 -0.117645271 -0.0512950271
v -0.0637725368 -0.122366995 -0.0512954369
v -0.0660050437 -0.122953579 -0.0512952134
v -0.0636648685 -0.112992518 -0.0512962155
v -0.0621055365 -0.128065303 -0.0512952395
v -0.0639547855 -0.127949893 -0.0512955524
v -0.064062342 -0.118299432 -0.0752903223
v -0.0659503937 -0.123626254 -0.0752905533
v -0.0637756586 -0.122683838 -0.0752906576
v -0.0618646853 -0.118542425 -0.0752922222
v -0.0657885522 -0.112648398 -0.0752931982
v -0.0663134158 -0.128592893 -0.075290218
v -0.0697876289 -0.1190539 -0.051493492
v -0.0689532682 -0.128252819 -0.0513159446
v -0.0702658966 -0.114475146 -0.0516130663
v -0.0695961639 -0.12335448 -0.0514306501
v -0.0700394586 -0.127799541 -0.0750283524
v -0.0691621751 -0.113268949 -0.0752388686
v -0.0553181879 -0.110558681 -0.058762785
v -0.0696373433 -0.119598493 -0.0751666352
v -0.0694913641 -0.129620135 -0.0751688331
v -0.0692377463 -0.117836714 -0.0513814464
v -0.0703619495 -0.124017008 -0.0516822301
v -0.0596733317 -0.113737732 -0.051415924
v -0.0533991978 -0.114028044 -0.0695916414
v -0.0639000461 -0.139242977 -0.056390848
v -0.0685332045 -0.139318556 -0.0564236604
v -0.0575039461 -0.114237346 -0.0744171962
v -0.0539689064 -0.112595282 -0.0708936006
v -0.053621918 -0.127436936 -0.070168674
v -0.059256427 -0.127767369 -0.0515248738
v -0.0687586442 -0.119028181 -0.0513065234
v -0.0586699061 -0.110558935 -0.0731367022
v -0.0725317597 -0.111353815 -0.0589892678
v -0.0537236109 -0.114185736 -0.0560803637
v -0.0555309318 -0.11294397 -0.0730048716
v -0.0688962042 -0.12273331 -0.0752720982
v -0.0682872087 -0.128563225 -0.0753195435
v -0.0620511994 -0.140497059 -0.0630671829
v -0.0567269735 -0.127520904 -0.0525774099
v -0.0531143732 -0.112670459 -0.0680507123
v -0.0531066135 -0.127439588 -0.0682335421
v -0.0669017732 -0.110575542 -0.0513109006
v -0.0531167015 -0.112409532 -0.0586927459
v -0.0609617494 -0.11330691 -0.075286217
v -0.0684626848 -0.13797456 -0.0720023215
v -0.0549416915 -0.127604127 -0.0724235997
v -0.0552964509 -0.11776872 -0.0728150159
v -0.0555005223 -0.123096667 -0.0730220824
v -0.0553552061 -0.118559495 -0.0537398122
v -0.0553587377 -0.12237034 -0.0537063032
v -0.0532295406 -0.117940672 -0.0577332303
v -0.0532514937 -0.122243106 -0.0574955828
v -0.0586998686 -0.123085111 -0.0749173686
v -0.0570890009 -0.12313588 -0.0523741022
v -0.0566225648 -0.117042355 -0.0526658073
v -0.0564799048 -0.113297902 -0.0527699962
v -0.056969963 -0.117249779 -0.0741162151
v -0.0564283915 -0.112963527 -0.0738000274
v -0.0542618632 -0.123074204 -0.0714544505
v -0.054418169 -0.118070595 -0.0548374802
v -0.0540891849 -0.123244591 -0.0554227941
v -0.0549955741 -0.114051752 -0.0540475845
v -0.0530735366 -0.12760663 -0.0588372275
v -0.0609623529 -0.128260091 -0.0752926767
v -0.0590302274 -0.117349781 -0.0516106039
v -0.0594104305 -0.123685107 -0.0514717735
v -0.053263545 -0.118582159 -0.0689311996
v -0.0579048321 -0.127903134 -0.0746512786
v -0.0532152876 -0.113815412 -0.0577922575
v -0.0612301603 -0.116928943 -0.0752989352
v -0.0590071939 -0.113633811 -0.0750190318
v -0.0542880036 -0.12711066 -0.0715236738
v -0.0569619015 -0.126322836 -0.0741504356
v -0.0543383509 -0.12728332 -0.0549400374
v -0.0535730124 -0.118007921 -0.0700286478
v -0.0537982956 -0.122864626 -0.0706263855
v -0.053489957 -0.123183712 -0.0697274357
v -0.0582356527 -0.123288237 -0.0518344678
v -0.0577482954 -0.114013471 -0.0520128869
v -0.0578919873 -0.127226755 -0.0519569255
v -0.0562635362 -0.118325353 -0.0736832097
v -0.0575842783 -0.118255064 -0.0744800568
v -0.0577792004 -0.118030608 -0.0520022511
v -0.0540214702 -0.118018061 -0.071032837
v -0.053086482 -0.116912708 -0.0678635761
v -0.0530592389 -0.12288934 -0.0672787949
v -0.0602378286 -0.11797484 -0.0513530746
v -0.0607151128 -0.123560444 -0.0513249151
v -0.0688890591 -0.137981951 -0.0546092466
v -0.0598274134 -0.123537526 -0.0751880258
v -0.0592328161 -0.117310531 -0.0750568658
v -0.0545125194 -0.118695319 -0.071858719
v -0.0558827668 -0.117387481 -0.0532187782
v -0.0561034642 -0.122936055 -0.0530113354
v -0.0546427295 -0.11320173 -0.0720680654
v -0.0536876731 -0.118998587 -0.0561970063
v -0.0536022186 -0.123839438 -0.0564333573
v -0.0535924435 -0.127017289 -0.05646687
v -0.0575912781 -0.122921094 -0.0744892433
v -0.0584358536 -0.117909983 -0.0748225302
v -0.0674225464 -0.113968261 -0.0753051266
v -0.0688508227 -0.113337897 -0.0512965024
v -0.0530663691 -0.123420887 -0.0591489114
v -0.0602367707 -0.11812529 -0.0752405375
v -0.053053569 -0.127772719 -0.060865853
v -0.0595608279 -0.127752364 -0.0751447752
v -0.0609647073 -0.127069905 -0.0512812212
v -0.0548466332 -0.123034939 -0.0723307952
v -0.0554952323 -0.127782062 -0.0535514727
v -0.0562228709 -0.122914009 -0.0736603066
v -0.0568638556 -0.1228154 -0.0740726814
v -0.0547072627 -0.123225085 -0.0544332042
v -0.0560797341 -0.127622619 -0.0735702813
v -0.0530599914 -0.116839416 -0.0589068905
v -0.0532588698 -0.128566131 -0.0575175583
v -0.0681049079 -0.118269421 -0.0753049552
v -0.0688343719 -0.122170001 -0.0513005592
v -0.0609476529 -0.124055818 -0.0753012747
v -0.0531729646 -0.122822165 -0.0685709938
v -0.0675811917 -0.122195855 -0.0512973666
v -0.0530459918 -0.114120461 -0.0664553791
v -0.0687907934 -0.13683328 -0.0535087772
v -0.0683655292 -0.138912559 -0.0707167387
v -0.0643326789 -0.137645364 -0.0723442808
v -0.0646175966 -0.13618207 -0.0735675171
v -0.0646227822 -0.139962316 -0.0578969307
v -0.0650992841 -0.138427034 -0.0714567378
v -0.0641131476 -0.136336878 -0.0531280041
v -0.0683240891 -0.13651374 -0.0733345374
v -0.0646866113 -0.137480274 -0.0540844724
v -0.0653734058 -0.138474241 -0.0551883727
v -0.0643428564 -0.139830202 -0.0690432861
v -0.0633657873 -0.13499105 -0.0523231626
v -0.0683565661 -0.135544509 -0.052630052
v -0.0654913709 -0.139270425 -0.0701890662
v -0.0727500021 -0.111589953 -0.055207409
v -0.0694235042 -0.140570387 -0.0623503402
v -0.0692017525 -0.140558526 -0.0642711148
v -0.0653475672 -0.140558302 -0.0622283556
v -0.0654337108 -0.140558735 -0.0642917678
v -0.0696661621 -0.14033182 -0.0673956946
v -0.0688656196 -0.13971293 -0.0693179667
v -0.0637728721 -0.134284511 -0.074571982
v -0.068037726 -0.13448903 -0.0744932443
v -0.0693796203 -0.140479818 -0.0603896677
v -0.0724665299 -0.111732021 -0.0728164464
v -0.0550468862 -0.110557564 -0.0702401772
v -0.0657646582 -0.140289158 -0.0675757825
v -0.0736567974 -0.138408646 -0.0672903135
v -0.0643548071 -0.133584261 -0.0517473742
v -0.0688597634 -0.140503079 -0.066042304
v -0.0725374371 -0.11145734 -0.0628846288
v -0.0736477375 -0.112538904 -0.0683705881
v -0.0653961003 -0.140479505 -0.0599480122
v -0.0677930117 -0.133824036 -0.0518197529
v -0.0560959913 -0.110560097 -0.0656323507
v -0.0531183816 -0.110581852 -0.0612838939
v -0.05813374 -0.11055968 -0.0690411925
v -0.0605160035 -0.110559724 -0.0724240765
v -0.0548879243 -0.11055214 -0.0641964972
v -0.0729971752 -0.112236775 -0.0539446995
v -0.0637575313 -0.140573591 -0.0632084757
v -0.0597118586 -0.11055968 -0.0697415769
v -0.0627508461 -0.132356763 -0.0751293004
v -0.0650324002 -0.140512571 -0.0660370514
v -0.0531093851 -0.131496727 -0.0613661259
v -0.0633815974 -0.131736025 -0.0513625816
v -0.0668823794 -0.132761315 -0.0750381723
v -0.0671789944 -0.131894603 -0.0513777286
v -0.053544689 -0.133542746 -0.0611933731
v -0.0530678332 -0.130895823 -0.0651831552
v -0.0532896668 -0.132607475 -0.0658819824
v -0.0634688213 -0.130340546 -0.0752933845
v -0.073220998 -0.139974535 -0.0630459636
v -0.0713583529 -0.140586868 -0.0636290535
v -0.0546947308 -0.110560641 -0.0664841235
v -0.0614514686 -0.11055968 -0.0693309754
v -0.0578458384 -0.11055968 -0.0656061247
v -0.0646911263 -0.110565342 -0.0740424916
v -0.0530595332 -0.115922049 -0.062952742
v -0.0530595295 -0.125379726 -0.06343925
v -0.0530601665 -0.120634839 -0.0648945868
v -0.0537413582 -0.134223625 -0.06510178
v -0.065529801 -0.11055968 -0.06403438
v -0.0621638484 -0.11055968 -0.0591983162
v -0.0650960505 -0.11055968 -0.0574522018
v -0.0530598648 -0.119141117 -0.0656040311
v -0.053059414 -0.114062913 -0.0644405335
v -0.0530594215 -0.127062857 -0.0642500147
v -0.0530599356 -0.121909223 -0.0617892668
v -0.0530582182 -0.112040326 -0.0621949621
v -0.0530514084 -0.129619628 -0.0615294389
v -0.0627212375 -0.129841089 -0.0512822568
v -0.0664104968 -0.129929781 -0.0512801409
v -0.055030629 -0.136552036 -0.0612751395
v -0.0668487772 -0.121019691 -0.0512956232
v -0.0624747612 -0.110559657 -0.0721059442
v -0.0669049397 -0.130672216 -0.0752975047
v -0.0586899854 -0.11055968 -0.067276001
v -0.0630219951 -0.120310642 -0.0512953959
v -0.0645971596 -0.116582759 -0.0512952618
v -0.0643568337 -0.124375872 -0.0512966812
v -0.0646852553 -0.126167253 -0.0512952395
v -0.0616712421 -0.112488069 -0.051289171
v -0.0646917894 -0.116428092 -0.0752906725
v -0.0673748851 -0.122069702 -0.0752893239
v -0.0653239042 -0.126761898 -0.0752903968
v -0.0666181594 -0.119985044 -0.0752898604
v -0.062533997 -0.112096719 -0.0752897933
v -0.062580578 -0.128528193 -0.0752898604
v -0.0545594506 -0.135829911 -0.0646547079
v -0.0724441335 -0.11148341 -0.0649419203
v -0.0721444935 -0.111430466 -0.0705817118
v -0.072604157 -0.111701548 -0.0689954683
v -0.0736578405 -0.13606815 -0.0584975779
v -0.0557714105 -0.137409717 -0.0653308704
v -0.0702151135 -0.110560991 -0.0535446964
v -0.0684982538 -0.110558547 -0.0685797408
v -0.0692906678 -0.110559084 -0.0573986433
v -0.066214554 -0.110559687 -0.0593449734
v -0.0693992674 -0.110559687 -0.0644276589
v -0.0653093234 -0.11055968 -0.0615466461
v -0.0609113686 -0.11055968 -0.0571588464
v -0.0628027394 -0.110559911 -0.0540417805
v -0.0682793632 -0.110559605 -0.062523745
v -0.0696874708 -0.110561706 -0.0699457377
v -0.058183603 -0.110559277 -0.0539745614
v -0.0736577064 -0.132549897 -0.0596284941
v -0.0736576244 -0.129511848 -0.061608091
v -0.0736576542 -0.123745106 -0.0650204495
v -0.0736576542 -0.132840693 -0.0662387908
v -0.0736576542 -0.126553819 -0.0629218668
v -0.0736491457 -0.132654294 -0.0699998066
v -0.0736574382 -0.136138201 -0.0648079365
v -0.0736576542 -0.117280148 -0.0682323053
v -0.0736576542 -0.119462594 -0.0656834617
v -0.0736568794 -0.132143244 -0.0579535328
v -0.073657155 -0.117306948 -0.0585980676
v -0.0736576542 -0.117591985 -0.0622225776
v -0.0736584589 -0.120724156 -0.0570925251
v -0.073657468 -0.114055589 -0.0624955967
v -0.0736563057 -0.114064679 -0.06764061
v -0.0736576915 -0.126516655 -0.0605929941
v -0.0736575872 -0.113956362 -0.0605905652
v -0.0736554638 -0.114016406 -0.0643607602
v -0.0736576542 -0.122885793 -0.0634949952
v -0.0736589953 -0.114233226 -0.0569160506
v -0.0567795336 -0.110559039 -0.0548430011
v -0.0736579299 -0.128435865 -0.0596462451
v -0.0736576468 -0.115592621 -0.0596292801
v -0.0736577138 -0.115821242 -0.0633011013
v -0.0736576468 -0.115881413 -0.0669465736
v -0.0736576542 -0.12136922 -0.0632607862
v -0.0736576542 -0.122504286 -0.060115058
v -0.0736576542 -0.124976292 -0.0617301129
v -0.0736503452 -0.112529598 -0.0616822243
v -0.0736570656 -0.130394831 -0.0585388169
v -0.073657468 -0.119486734 -0.058483202
v -0.0736424997 -0.11247693 -0.0573142804
v -0.0596021339 -0.11055968 -0.0684909821
v -0.0736573488 -0.129509076 -0.0683303177
v -0.0736577585 -0.131677032 -0.0683621094
v -0.0736578554 -0.135801375 -0.0600162223
v -0.073654905 -0.13570942 -0.0684380904
v -0.0736576542 -0.125892758 -0.064573139
v -0.0736576542 -0.129556268 -0.0659083128
v -0.073657535 -0.137036279 -0.0633248985
v -0.0736576542 -0.132903665 -0.0615401864
v -0.0736579299 -0.125721321 -0.0679627284
v -0.0695004314 -0.110559657 -0.0596170574
v -0.0611022711 -0.110559747 -0.0541887134
v -0.0674538761 -0.110559851 -0.0654561669
v -0.066771172 -0.11055968 -0.0624401867
v -0.0698086917 -0.110561468 -0.0617923811
v -0.0681357235 -0.110559516 -0.0706223324
v -0.067013815 -0.110559911 -0.0674233809
v -0.064746201 -0.110559717 -0.0541172884
v -0.0574094169 -0.110559732 -0.0580902658
v -0.0621923693 -0.11055968 -0.0629883707
v -0.0605060793 -0.11055968 -0.0599449351
v -0.0642186031 -0.11055968 -0.0595183559
v -0.0691586509 -0.110552981 -0.0666568503
v -0.0633029267 -0.11055968 -0.0650441349
v -0.068627432 -0.110559665 -0.0540883243
v -0.0670146346 -0.110559687 -0.0572613776
v -0.0571754053 -0.138649702 -0.0651471093
v -0.0565077551 -0.138133585 -0.0615785755
v -0.0611504726 -0.11055968 -0.064431861
v -0.0552230813 -0.110562973 -0.0573957786
v -0.067165412 -0.110559784 -0.0717270821
v -0.0652902797 -0.110559717 -0.0680929795
v -0.073658064 -0.134941295 -0.0629180595
v -0.0736576542 -0.127940491 -0.0669433177
v -0.0736576617 -0.134476066 -0.0607312806
v -0.0736576542 -0.131085113 -0.0624664426
v -0.0736576542 -0.125001818 -0.0661862046
v -0.0736579448 -0.121138416 -0.0673419312
v -0.0736578628 -0.134925976 -0.0665663257
v -0.0689378455 -0.110557348 -0.0726305991
v -0.0643916056 -0.110559687 -0.0694958866
v -0.0569088794 -0.110559382 -0.0598522946
v -0.0736620501 -0.122732006 -0.057340011
v -0.0736806765 -0.126072854 -0.0702856034
v -0.0736658871 -0.134677351 -0.0700800568
v -0.0736633614 -0.133288741 -0.0568438768
v -0.0736689568 -0.114307374 -0.0695049837
v -0.0584985465 -0.11055968 -0.0617222153
v -0.0736576542 -0.120555893 -0.0599476509
v -0.0736576244 -0.11689657 -0.0602023117
v -0.0736576542 -0.12351492 -0.0616379008
v -0.0736576542 -0.119703017 -0.0619357973
v -0.0736576095 -0.113897406 -0.0586103015
v -0.0736425146 -0.125895903 -0.0559982583
v -0.0735659674 -0.12199685 -0.0555179343
v -0.0736410245 -0.128381386 -0.0562663674
v -0.0734020397 -0.113911085 -0.0545726195
v -0.0736252666 -0.119982131 -0.0556939803
v -0.0735673383 -0.120857403 -0.0711723864
v -0.0735204592 -0.11690639 -0.0714052767
v -0.0736008212 -0.124023125 -0.0708842278
v -0.0734871775 -0.127350897 -0.0551566407
v -0.0636496469 -0.11055968 -0.0670358241
v -0.0602752343 -0.11055968 -0.0626499578
v -0.0715462118 -0.112791859 -0.0523135327
v -0.0583448 -0.139397815 -0.0621146187
v -0.0735841095 -0.131885633 -0.0557912774
v -0.0730327442 -0.116786778 -0.0539322868
v -0.0726864338 -0.114540473 -0.0532849878
v -0.0734212697 -0.118971959 -0.0717632324
v -0.0729489103 -0.129080042 -0.0728114843
v -0.0735694915 -0.117347874 -0.0553520285
v -0.0642881766 -0.110559925 -0.072462596
v -0.0598489046 -0.11055968 -0.0658159032
v -0.0735182762 -0.132051423 -0.0715207607
v -0.0725545734 -0.116708271 -0.0733837113
v -0.0717093274 -0.114973478 -0.0523875952
v -0.0732558295 -0.123465337 -0.0722344369
v -0.0732735321 -0.128247157 -0.0543619581
v -0.070209749 -0.112287968 -0.0515950024
v -0.0733316541 -0.125220433 -0.0544824637
v -0.0726350546 -0.118112944 -0.0533360727
v -0.0707433522 -0.132095024 -0.0517577715
v -0.0707118735 -0.116065741 -0.0518052876
v -0.0709138364 -0.118787743 -0.0519066527
v -0.0705767348 -0.110604987 -0.0517613254
v -0.0553878918 -0.112028837 -0.0537417047
v -0.0535208322 -0.112186134 -0.0567860343
v -0.0728206784 -0.131717294 -0.0729996786
v -0.072131671 -0.130450159 -0.0738246664
v -0.0704301 -0.112853654 -0.0748969391
v -0.0604208112 -0.110558249 -0.0739536062
v -0.0549152568 -0.11055845 -0.0685657933
v -0.0653968602 -0.11055965 -0.0712879077
v -0.0734198913 -0.129829749 -0.0718118399
v -0.0577436462 -0.112181723 -0.0745228454
v -0.0543526672 -0.112179585 -0.0550349429
v -0.0716473013 -0.1276813 -0.0522953384
v -0.0723477304 -0.116646893 -0.0530214608
v -0.0723289698 -0.124882124 -0.0529397912
v -0.0625860393 -0.11055968 -0.068412289
v -0.0721757486 -0.131730124 -0.0528193489
v -0.0723152682 -0.130113125 -0.0529490113
v -0.0715044737 -0.116956264 -0.0522337891
v -0.0580725782 -0.112290964 -0.0519424565
v -0.0534683801 -0.112093963 -0.0695993677
v -0.071380876 -0.110593401 -0.0619875416
v -0.0557061806 -0.110558107 -0.0631359965
v -0.0711223781 -0.110558935 -0.065920271
v -0.0639238879 -0.110559687 -0.0560077019
v -0.0668004602 -0.110560238 -0.0538436919
v -0.0709204525 -0.11056459 -0.0711191148
v -0.070413731 -0.117741466 -0.0516784973
v -0.0700256005 -0.121865533 -0.0515601076
v -0.0709761381 -0.125290617 -0.0519814454
v -0.0720775723 -0.110729314 -0.0528650656
v -0.070762001 -0.121068113 -0.07475885
v -0.0719085708 -0.124825194 -0.0740561187
v -0.0719067752 -0.116368406 -0.0740074962
v -0.0689423233 -0.140141279 -0.0584982373
v -0.0631304756 -0.11055968 -0.0705228597
v -0.0625156239 -0.110558711 -0.0735773519
v -0.0707772598 -0.123417012 -0.0747334212
v -0.0708092302 -0.118130676 -0.07468196
v -0.0714921504 -0.121015541 -0.0743383765
v -0.0736576468 -0.134321854 -0.0646666363
v -0.0530596413 -0.123865061 -0.0645754635
v -0.0530595966 -0.117356464 -0.0641050413
v -0.0530595891 -0.122191079 -0.0639120713
v -0.0530598722 -0.119803108 -0.0616726279
v -0.053058695 -0.114804178 -0.0611120947
v -0.0530600548 -0.126866952 -0.0623993725
v -0.053059537 -0.117891744 -0.0619550049
v -0.0530578531 -0.11672242 -0.0605935976
v -0.0530599318 -0.115848683 -0.0651106089
v -0.0530574918 -0.117491446 -0.0662266389
v -0.0530566387 -0.123975642 -0.0663502961
v -0.0530603305 -0.12731196 -0.0662401766
v -0.0530595332 -0.119232222 -0.0635113195
v -0.0530705974 -0.119217172 -0.0674572363
v -0.0530584343 -0.122362018 -0.0658259392
v -0.0530578718 -0.1221385 -0.0601992868
v -0.0530763231 -0.110621855 -0.0652463809
v -0.053049136 -0.112789825 -0.0606194548
v -0.0530499816 -0.130380183 -0.0631789938
v -0.0530606806 -0.128582329 -0.0627634153
v -0.0703371465 -0.139835238 -0.0689307451
v -0.0736885965 -0.137545452 -0.0689297989
v -0.0736605525 -0.137638196 -0.0600162409
v -0.061573036 -0.114432603 -0.0512958318
v -0.0629757419 -0.117116816 -0.0512971319
v -0.0617514327 -0.121900499 -0.0513010956
v -0.0620094314 -0.118421189 -0.0512821749
v -0.0648495331 -0.120829821 -0.0512952581
v -0.0658235252 -0.11938116 -0.0512955077
v -0.0673864856 -0.113851793 -0.0512958206
v -0.065761596 -0.113212705 -0.0512944646
v -0.0658819154 -0.1276315 -0.051295083
v -0.067431733 -0.118920378 -0.051285889
v -0.0628163815 -0.126053989 -0.0512953699
v -0.0647239536 -0.114779763 -0.0512951091
v -0.067214787 -0.112068303 -0.0512931645
v -0.0645405352 -0.129764378 -0.0512998886
v -0.0674958378 -0.128452942 -0.0512986891
v -0.0645820126 -0.124776833 -0.0752905905
v -0.066283606 -0.117700547 -0.0752877817
v -0.0672786534 -0.126620665 -0.0753010437
v -0.0656700134 -0.121802166 -0.0752905607
v -0.0648865476 -0.119345821 -0.0752905905
v -0.0647359192 -0.121019803 -0.0752905235
v -0.0624027811 -0.113870949 -0.0752879232
v -0.0627988353 -0.116851918 -0.0752892196
v -0.0614374392 -0.122206852 -0.0752985403
v -0.0625791848 -0.124150954 -0.0752910823
v -0.0616223551 -0.126754627 -0.0752848908
v -0.0629323572 -0.120437808 -0.0752906427
v -0.0653155074 -0.114436641 -0.0752907917
v -0.067803666 -0.111842453 -0.0752899051
v -0.0635615811 -0.110591516 -0.0752443746
v -0.0644780397 -0.111810602 -0.0752907395
v -0.0651382059 -0.130070046 -0.0752923265
v -0.0702714473 -0.128047213 -0.0516291
v -0.0688209459 -0.114913344 -0.0752628669
v -0.0715687573 -0.12406864 -0.0742831379
v -0.0699070394 -0.116283476 -0.0515192263
v -0.0599917285 -0.111739196 -0.051372081
v -0.0533239953 -0.12172018 -0.0691587999
v -0.0537024289 -0.121512376 -0.0704089925
v -0.0680389255 -0.117118582 -0.0512826741
v -0.0549706258 -0.114420667 -0.0723874122
v -0.0594854653 -0.111804016 -0.0751152784
v -0.0592773482 -0.119351149 -0.051514443
v -0.0537473075 -0.122049056 -0.0560595579
v -0.0546647459 -0.111009754 -0.0720914528
v -0.0736311302 -0.11292991 -0.0554256067
v -0.0572994612 -0.110559568 -0.0626094267
v -0.0532472469 -0.115662239 -0.0576408729
v -0.0601984933 -0.140073329 -0.0670926198
v -0.0564088933 -0.119057797 -0.0527848005
v -0.0731213093 -0.139131978 -0.0692235976
v -0.0537063479 -0.116757005 -0.0561522543
v -0.0550151356 -0.119568549 -0.0724948049
v -0.0722663328 -0.118693016 -0.0736619458
v -0.0596254319 -0.1216463 -0.0514247939
v -0.0541914478 -0.114335567 -0.0712989122
v -0.056647379 -0.126092091 -0.0526508838
v -0.0555494241 -0.124309249 -0.0535223596
v -0.053017132 -0.129828185 -0.05995306
v -0.073657468 -0.136927232 -0.0667308345
v -0.0571177043 -0.119013719 -0.0742048621
v -0.0532843657 -0.110610373 -0.0576806739
v -0.0558365732 -0.116807744 -0.0733252242
v -0.0625595376 -0.0740596801 -0.0518929102
v -0.0614207759 -0.0742104277 -0.0518929102
v -0.0615508445 -0.0746928081 -0.0547926947
v -0.0625595376 -0.0745601505 -0.0547926947
v -0.063568227 -0.0746928081 -0.0547926947
v -0.0636982992 -0.0742104277 -0.0518929102
v -0.0603595376 -0.0746497363 -0.0518929102
v -0.0617834218 -0.0755619481 -0.0552929118
v -0.0606102049 -0.0750830173 -0.0547926947
v -0.0610598512 -0.0758617148 -0.0552929118
v -0.0625595376 -0.0754603073 -0.0552929118
v -0.0633356571 -0.0755619481 -0.0552929118
v -0.0640592277 -0.0758617148 -0.0552929118
v -0.0645088702 -0.0750830173 -0.0547926947
v -0.0647595376 -0.0746497363 -0.0518929102
v -0.0594490431 -0.0753491893 -0.0518929102
v -0.0646802858 -0.0763389319 -0.0552929118
v -0.0653168559 -0.0757023618 -0.0547926947
v -0.0656700283 -0.0753491893 -0.0518929102
v -0.0587495938 -0.0762596801 -0.0518929102
v -0.0591828749 -0.0765103474 -0.0547926947
v -0.0599615723 -0.07695999 -0.0552929118
v -0.0651575029 -0.07695999 -0.0552929118
v -0.0659362003 -0.0765103474 -0.0547926947
v -0.0663694814 -0.0762596801 -0.0518929102
v -0.0583102815 -0.0773209184 -0.0518929102
v -0.0587926619 -0.0774509907 -0.0547926947
v -0.0596618094 -0.0776835606 -0.0552929118
v -0.0654572695 -0.0776835606 -0.0552929118
v -0.0663264096 -0.0774509907 -0.0547926947
v -0.06680879 -0.0773209184 -0.0518929102
v -0.0581595376 -0.0784596801 -0.0518929102
v -0.058660008 -0.0784596801 -0.0547926947
v -0.0595601648 -0.0784596801 -0.0552929118
v -0.0655589104 -0.0784596801 -0.0552929118
v -0.0664590672 -0.0784596801 -0.0547926947
v -0.0669595376 -0.0784596801 -0.0518929102
v -0.0583102815 -0.0795984417 -0.0518929102
v -0.0587926619 -0.0794683695 -0.0547926947
v -0.0596618094 -0.0792357996 -0.0552929118
v -0.0654572695 -0.0792357996 -0.0552929118
v -0.0663264096 -0.0794683695 -0.0547926947
v -0.06680879 -0.0795984417 -0.0518929102
v -0.0587495938 -0.0806596801 -0.0518929102
v -0.0591828749 -0.0804090127 -0.0547926947
v -0.0599615723 -0.0799593702 -0.0552929118
v -0.0651575029 -0.0799593702 -0.0552929118
v -0.0663694814 -0.0806596801 -0.0518929102
v -0.0659362003 -0.0804090127 -0.0547926947
v -0.0594490431 -0.0815701708 -0.0518929102
v -0.0598022155 -0.0812169984 -0.0547926947
v -0.0604387857 -0.0805804282 -0.0552929118
v -0.0653168559 -0.0812169984 -0.0547926947
v -0.0646802858 -0.0805804282 -0.0552929118
v -0.0656700283 -0.0815701708 -0.0518929102
v -0.0603595376 -0.0822696239 -0.0518929102
v -0.0606102049 -0.0818363428 -0.0547926947
v -0.0610598512 -0.0810576454 -0.0552929118
v -0.0640592277 -0.0810576454 -0.0552929118
v -0.0645088702 -0.0818363428 -0.0547926947
v -0.0647595376 -0.0822696239 -0.0518929102
v -0.0614207759 -0.0827089325 -0.0518929102
v -0.0615508445 -0.0822265521 -0.0547926947
v -0.0617834218 -0.081357412 -0.0552929118
v -0.0633356571 -0.081357412 -0.0552929118
v -0.063568227 -0.0822265521 -0.0547926947
v -0.0636982992 -0.0827089325 -0.0518929102
v -0.0625595376 -0.0828596801 -0.0518929102
v -0.0625595376 -0.0823592097 -0.0547926947
v -0.0625595376 -0.0814590529 -0.0552929118
v -0.0548595376 -0.0739596784 -0.0740929097
v -0.0548355542 -0.0741408467 -0.0740929097
v -0.0548595376 -0.0739596784 -0.0734429136
v -0.0548355542 -0.0737785175 -0.0740929097
v -0.0548355542 -0.0741408467 -0.0734429136
v -0.054765664 -0.0743096843 -0.0740929097
v -0.0548355542 -0.0737785175 -0.0734429136
v -0.054765664 -0.0736096799 -0.0740929097
v -0.054765664 -0.0743096843 -0.0734429136
v -0.0546543896 -0.0744545311 -0.0740929097
v -0.054765664 -0.0736096799 -0.0734429136
v -0.0546543896 -0.0734648332 -0.0740929097
v -0.0546543896 -0.0744545311 -0.0734429136
v -0.0545095392 -0.0745658129 -0.0740929097
v -0.0546543896 -0.0734648332 -0.0734429136
v -0.0545095392 -0.0733535513 -0.0740929097
v -0.0545095392 -0.0745658129 -0.0734429136
v -0.0543407053 -0.0746356994 -0.0740929097
v -0.0545095392 -0.0733535513 -0.0734429136
v -0.0543407053 -0.0732836649 -0.0740929097
v -0.0543407053 -0.0746356994 -0.0734429136
v -0.054159537 -0.0746596828 -0.0740929097
v -0.0543407053 -0.0732836649 -0.0734429136
v -0.054159537 -0.0732596815 -0.0740929097
v -0.054159537 -0.0746596828 -0.0734429136
v -0.0539783724 -0.0746356994 -0.0740929097
v -0.054159537 -0.0732596815 -0.0734429136
v -0.0539783724 -0.0732836649 -0.0740929097
v -0.0539783724 -0.0746356994 -0.0734429136
v -0.0538095385 -0.0745658129 -0.0740929097
v -0.0539783724 -0.0732836649 -0.0734429136
v -0.0538095385 -0.0733535513 -0.0740929097
v -0.0538095385 -0.0745658129 -0.0734429136
v -0.053664688 -0.0744545311 -0.0740929097
v -0.0538095385 -0.0733535513 -0.0734429136
v -0.053664688 -0.0734648332 -0.0740929097
v -0.053664688 -0.0744545311 -0.0734429136
v -0.0535534136 -0.0743096843 -0.0740929097
v -0.053664688 -0.0734648332 -0.0734429136
v -0.0535534136 -0.0736096799 -0.0740929097
v -0.0535534136 -0.0743096843 -0.0734429136
v -0.0534835234 -0.0741408467 -0.0740929097
v -0.0535534136 -0.0736096799 -0.0734429136
v -0.0534835234 -0.0737785175 -0.0740929097
v -0.0534835234 -0.0741408467 -0.0734429136
v -0.05345954 -0.0739596784 -0.0740929097
v -0.0534835234 -0.0737785175 -0.0734429136
v -0.05345954 -0.0739596784 -0.0734429136
v -0.0583595373 -0.10135968 -0.0740929097
v -0.0583355539 -0.101540849 -0.0740929097
v -0.0583595373 -0.10135968 -0.0734429136
v -0.0583355539 -0.101178519 -0.0740929097
v -0.0583355539 -0.101540849 -0.0734429136
v -0.0582656637 -0.101709686 -0.0740929097
v -0.0583355539 -0.101178519 -0.0734429136
v -0.0582656637 -0.101009682 -0.0740929097
v -0.0582656637 -0.101709686 -0.0734429136
v -0.0581543893 -0.101854533 -0.0740929097
v -0.0582656637 -0.101009682 -0.0734429136
v -0.0581543893 -0.100864835 -0.0740929097
v -0.0581543893 -0.101854533 -0.0734429136
v -0.0580095388 -0.101965815 -0.0740929097
v -0.0581543893 -0.100864835 -0.0734429136
v -0.0580095388 -0.100753553 -0.0740929097
v -0.0580095388 -0.101965815 -0.0734429136
v -0.0578407049 -0.102035701 -0.0740929097
v -0.0580095388 -0.100753553 -0.0734429136
v -0.0578407049 -0.100683667 -0.0740929097
v -0.0578407049 -0.102035701 -0.0734429136
v -0.0576595366 -0.102059685 -0.0740929097
v -0.0578407049 -0.100683667 -0.0734429136
v -0.0576595366 -0.100659683 -0.0740929097
v -0.0576595366 -0.102059685 -0.0734429136
v -0.057478372 -0.102035701 -0.0740929097
v -0.0576595366 -0.100659683 -0.0734429136
v -0.057478372 -0.100683667 -0.0740929097
v -0.057478372 -0.102035701 -0.0734429136
v -0.0573095381 -0.101965815 -0.0740929097
v -0.057478372 -0.100683667 -0.0734429136
v -0.0573095381 -0.100753553 -0.0740929097
v -0.0573095381 -0.101965815 -0.0734429136
v -0.0571646877 -0.101854533 -0.0740929097
v -0.0573095381 -0.100753553 -0.0734429136
v -0.0571646877 -0.100864835 -0.0740929097
v -0.0571646877 -0.101854533 -0.0734429136
v -0.0570534132 -0.101709686 -0.0740929097
v -0.0571646877 -0.100864835 -0.0734429136
v -0.0570534132 -0.101009682 -0.0740929097
v -0.0570534132 -0.101709686 -0.0734429136
v -0.0569835231 -0.101540849 -0.0740929097
v -0.0570534132 -0.101009682 -0.0734429136
v -0.0569835231 -0.101178519 -0.0740929097
v -0.0569835231 -0.101540849 -0.0734429136
v -0.0569595397 -0.10135968 -0.0740929097
v -0.0569835231 -0.101178519 -0.0734429136
v -0.0569595397 -0.10135968 -0.0734429136
v -0.0545595363 -0.102959685 -0.0704930648
v -0.0543524921 -0.102959685 -0.070520319
v -0.0547665842 -0.102959685 -0.070520319
v -0.0545595363 -0.105959684 -0.0704930648
v -0.0543524921 -0.105959684 -0.070520319
v -0.054159537 -0.102959685 -0.0706001893
v -0.0549595393 -0.102959685 -0.0706001893
v -0.0547665842 -0.105959684 -0.070520319
v -0.054159537 -0.105959684 -0.0706001893
v -0.0539939925 -0.102959685 -0.0707273632
v -0.0551250838 -0.102959685 -0.0707273632
v -0.0549595393 -0.105959684 -0.0706001893
v -0.0539939925 -0.105959684 -0.0707273632
v -0.0538668185 -0.102959685 -0.0708930641
v -0.0552522577 -0.102959685 -0.0708930641
v -0.0551250838 -0.105959684 -0.0707273632
v -0.0538668185 -0.105959684 -0.0708930641
v -0.0537869446 -0.102959685 -0.0710858628
v -0.0553321317 -0.102959685 -0.0710858628
v -0.0552522577 -0.105959684 -0.0708930641
v -0.0537869446 -0.105959684 -0.0710858628
v -0.0537595376 -0.102959685 -0.071292907
v -0.0553595386 -0.102959685 -0.071292907
v -0.0553321317 -0.105959684 -0.0710858628
v -0.0537595376 -0.105959684 -0.071292907
v -0.0537869446 -0.102959685 -0.0714999586
v -0.0553321317 -0.102959685 -0.0714999586
v -0.0553595386 -0.105959684 -0.071292907
v -0.0537869446 -0.105959684 -0.0714999586
v -0.0538668185 -0.102959685 -0.0716929138
v -0.0552522577 -0.102959685 -0.0716929138
v -0.0553321317 -0.105959684 -0.0714999586
v -0.0538668185 -0.105959684 -0.0716929138
v -0.0539939925 -0.102959685 -0.0718584582
v -0.0551250838 -0.102959685 -0.0718584582
v -0.0552522577 -0.105959684 -0.0716929138
v -0.0539939925 -0.105959684 -0.0718584582
v -0.054159537 -0.102959685 -0.0719856322
v -0.0549595393 -0.102959685 -0.0719856322
v -0.0551250838 -0.105959684 -0.0718584582
v -0.054159537 -0.105959684 -0.0719856322
v -0.0543524921 -0.102959685 -0.0720655024
v -0.0547665842 -0.102959685 -0.0720655024
v -0.0549595393 -0.105959684 -0.0719856322
v -0.0543524921 -0.105959684 -0.0720655024
v -0.0545595363 -0.102959685 -0.0720927566
v -0.0547665842 -0.105959684 -0.0720655024
v -0.0545595363 -0.105959684 -0.0720927566
v -0.0705595389 -0.102959685 -0.0704930648
v -0.0703524947 -0.102959685 -0.070520319
v -0.0707665831 -0.102959685 -0.070520319
v -0.0705595389 -0.105959684 -0.0704930648
v -0.0703524947 -0.105959684 -0.070520319
v -0.0701595396 -0.102959685 -0.0706001893
v -0.0709595382 -0.102959685 -0.0706001893
v -0.0707665831 -0.105959684 -0.070520319
v -0.0701595396 -0.105959684 -0.0706001893
v -0.0699939951 -0.102959685 -0.0707273632
v -0.0711250827 -0.102959685 -0.0707273632
v -0.0709595382 -0.105959684 -0.0706001893
v -0.0699939951 -0.105959684 -0.0707273632
v -0.0698668212 -0.102959685 -0.0708930641
v -0.0712522566 -0.102959685 -0.0708930641
v -0.0711250827 -0.105959684 -0.0707273632
v -0.0698668212 -0.105959684 -0.0708930641
v -0.0697869509 -0.102959685 -0.0710858628
v -0.0713321269 -0.102959685 -0.0710858628
v -0.0712522566 -0.105959684 -0.0708930641
v -0.0697869509 -0.105959684 -0.0710858628
v -0.0697595403 -0.102959685 -0.071292907
v -0.0713595375 -0.102959685 -0.071292907
v -0.0713321269 -0.105959684 -0.0710858628
v -0.0697595403 -0.105959684 -0.071292907
v -0.0697869509 -0.102959685 -0.0714999586
v -0.0713321269 -0.102959685 -0.0714999586
v -0.0713595375 -0.105959684 -0.071292907
v -0.0697869509 -0.105959684 -0.0714999586
v -0.0698668212 -0.102959685 -0.0716929138
v -0.0712522566 -0.102959685 -0.0716929138
v -0.0713321269 -0.105959684 -0.0714999586
v -0.0698668212 -0.105959684 -0.0716929138
v -0.0699939951 -0.102959685 -0.0718584582
v -0.0711250827 -0.102959685 -0.0718584582
v -0.0712522566 -0.105959684 -0.0716929138
v -0.0699939951 -0.105959684 -0.0718584582
v -0.0701595396 -0.102959685 -0.0719856322
v -0.0709595382 -0.102959685 -0.0719856322
v -0.0711250827 -0.105959684 -0.0718584582
v -0.0701595396 -0.105959684 -0.0719856322
v -0.0703524947 -0.102959685 -0.0720655024
v -0.0707665831 -0.102959685 -0.0720655024
v -0.0709595382 -0.105959684 -0.0719856322
v -0.0703524947 -0.105959684 -0.0720655024
v -0.0705595389 -0.102959685 -0.0720927566
v -0.0707665831 -0.105959684 -0.0720655024
v -0.0705595389 -0.105959684 -0.0720927566
v -0.0623293184 -0.0749171749 -0.0747929141
v -0.0625598133 -0.0751099735 -0.0735929087
v -0.0616926886 -0.075224407 -0.0735929087
v -0.0614205413 -0.0750981867 -0.0747929141
v -0.0632533729 -0.0749788955 -0.0747929141
v -0.0634262413 -0.075224407 -0.0735929087
v -0.0608845763 -0.0755586848 -0.0735929087
v -0.0605888218 -0.0755073652 -0.0747929141
v -0.0641309097 -0.0752771124 -0.0747929141
v -0.0642343536 -0.0755586848 -0.0735929087
v -0.0601910129 -0.0760913044 -0.0735929087
v -0.0598917902 -0.0761183575 -0.0747929141
v -0.0649008378 -0.075792402 -0.0747929141
v -0.0649279132 -0.0760913044 -0.0735929087
v -0.0596585199 -0.0767848268 -0.0735929087
v -0.0593766533 -0.0768881664 -0.0747929141
v -0.0655117854 -0.0764893889 -0.0747929141
v -0.0654604062 -0.0767848268 -0.0735929087
v -0.0593238883 -0.0775927827 -0.0735929087
v -0.0590781234 -0.0777661651 -0.0747929141
v -0.065921396 -0.0773202255 -0.0747929141
v -0.0657950416 -0.0775927827 -0.0735929087
v -0.0592100322 -0.0784596801 -0.0735929087
v -0.0590170287 -0.0786899328 -0.0747929141
v -0.0661019012 -0.0782294348 -0.0747929141
v -0.0659089014 -0.0784596801 -0.0735929087
v -0.0593238883 -0.0793265849 -0.0735929087
v -0.0591975339 -0.0795991421 -0.0747929141
v -0.0661095381 -0.0784596801 -0.0747929141
v -0.0660408065 -0.0791532025 -0.0747929141
v -0.0657950416 -0.0793265849 -0.0735929087
v -0.0596585199 -0.0801345408 -0.0735929087
v -0.0596071444 -0.0804299787 -0.0747929141
v -0.0657422766 -0.0800312012 -0.0747929141
v -0.0654604062 -0.0801345408 -0.0735929087
v -0.0601910129 -0.0808280632 -0.0735929087
v -0.0602180883 -0.0811269656 -0.0747929141
v -0.0652271435 -0.0808010101 -0.0747929141
v -0.0649279132 -0.0808280632 -0.0735929087
v -0.0608845763 -0.0813606828 -0.0735929087
v -0.0609880202 -0.0816422552 -0.0747929141
v -0.0645301044 -0.0814120024 -0.0747929141
v -0.0642343536 -0.0813606828 -0.0735929087
v -0.0616926886 -0.0816949606 -0.0735929087
v -0.061865557 -0.0819404721 -0.0747929141
v -0.0636983886 -0.0818211809 -0.0747929141
v -0.0634262413 -0.0816949606 -0.0735929087
v -0.0625598133 -0.0818093941 -0.0735929087
v -0.0627896115 -0.0820021927 -0.0747929141
v -0.0716595352 -0.0978596807 -0.0740929097
v -0.0716355518 -0.098040849 -0.0740929097
v -0.0716595352 -0.0978596807 -0.0734429136
v -0.0716355518 -0.0976785198 -0.0740929097
v -0.0716355518 -0.098040849 -0.0734429136
v -0.0715656653 -0.0982096866 -0.0740929097
v -0.0716355518 -0.0976785198 -0.0734429136
v -0.0715656653 -0.0975096822 -0.0740929097
v -0.0715656653 -0.0982096866 -0.0734429136
v -0.0714543909 -0.0983545333 -0.0740929097
v -0.0715656653 -0.0975096822 -0.0734429136
v -0.0714543909 -0.0973648354 -0.0740929097
v -0.0714543909 -0.0983545333 -0.0734429136
v -0.0713095367 -0.0984658152 -0.0740929097
v -0.0714543909 -0.0973648354 -0.0734429136
v -0.0713095367 -0.0972535536 -0.0740929097
v -0.0713095367 -0.0984658152 -0.0734429136
v -0.0711407065 -0.0985357016 -0.0740929097
v -0.0713095367 -0.0972535536 -0.0734429136
v -0.0711407065 -0.0971836671 -0.0740929097
v -0.0711407065 -0.0985357016 -0.0734429136
v -0.0709595382 -0.0985596851 -0.0740929097
v -0.0711407065 -0.0971836671 -0.0734429136
v -0.0709595382 -0.0971596837 -0.0740929097
v -0.0709595382 -0.0985596851 -0.0734429136
v -0.0707783699 -0.0985357016 -0.0740929097
v -0.0709595382 -0.0971596837 -0.0734429136
v -0.0707783699 -0.0971836671 -0.0740929097
v -0.0707783699 -0.0985357016 -0.0734429136
v -0.0706095397 -0.0984658152 -0.0740929097
v -0.0707783699 -0.0971836671 -0.0734429136
v -0.0706095397 -0.0972535536 -0.0740929097
v -0.0706095397 -0.0984658152 -0.0734429136
v -0.0704646856 -0.0983545333 -0.0740929097
v -0.0706095397 -0.0972535536 -0.0734429136
v -0.0704646856 -0.0973648354 -0.0740929097
v -0.0704646856 -0.0983545333 -0.0734429136
v -0.0703534111 -0.0982096866 -0.0740929097
v -0.0704646856 -0.0973648354 -0.0734429136
v -0.0703534111 -0.0975096822 -0.0740929097
v -0.0703534111 -0.0982096866 -0.0734429136
v -0.0702835247 -0.098040849 -0.0740929097
v -0.0703534111 -0.0975096822 -0.0734429136
v -0.0702835247 -0.0976785198 -0.0740929097
v -0.0702835247 -0.098040849 -0.0734429136
v -0.0702595413 -0.0978596807 -0.0740929097
v -0.0702835247 -0.0976785198 -0.0734429136
v -0.0702595413 -0.0978596807 -0.0734429136
v -0.0716595352 -0.0739596784 -0.0740929097
v -0.0716355518 -0.0741408467 -0.0740929097
v -0.0716595352 -0.0739596784 -0.0734429136
v -0.0716355518 -0.0737785175 -0.0740929097
v -0.0716355518 -0.0741408467 -0.0734429136
v -0.0715656653 -0.0743096843 -0.0740929097
v -0.0716355518 -0.0737785175 -0.0734429136
v -0.0715656653 -0.0736096799 -0.0740929097
v -0.0715656653 -0.0743096843 -0.0734429136
v -0.0714543909 -0.0744545311 -0.0740929097
v -0.0715656653 -0.0736096799 -0.0734429136
v -0.0714543909 -0.0734648332 -0.0740929097
v -0.0714543909 -0.0744545311 -0.0734429136
v -0.0713095367 -0.0745658129 -0.0740929097
v -0.0714543909 -0.0734648332 -0.0734429136
v -0.0713095367 -0.0733535513 -0.0740929097
v -0.0713095367 -0.0745658129 -0.0734429136
v -0.0711407065 -0.0746356994 -0.0740929097
v -0.0713095367 -0.0733535513 -0.0734429136
v -0.0711407065 -0.0732836649 -0.0740929097
v -0.0711407065 -0.0746356994 -0.0734429136
v -0.0709595382 -0.0746596828 -0.0740929097
v -0.0711407065 -0.0732836649 -0.0734429136
v -0.0709595382 -0.0732596815 -0.0740929097
v -0.0709595382 -0.0746596828 -0.0734429136
v -0.0707783699 -0.0746356994 -0.0740929097
v -0.0709595382 -0.0732596815 -0.0734429136
v -0.0707783699 -0.0732836649 -0.0740929097
v -0.0707783699 -0.0746356994 -0.0734429136
v -0.0706095397 -0.0745658129 -0.0740929097
v -0.0707783699 -0.0732836649 -0.0734429136
v -0.0706095397 -0.0733535513 -0.0740929097
v -0.0706095397 -0.0745658129 -0.0734429136
v -0.0704646856 -0.0744545311 -0.0740929097
v -0.0706095397 -0.0733535513 -0.0734429136
v -0.0704646856 -0.0734648332 -0.0740929097
v -0.0704646856 -0.0744545311 -0.0734429136
v -0.0703534111 -0.0743096843 -0.0740929097
v -0.0704646856 -0.0734648332 -0.0734429136
v -0.0703534111 -0.0736096799 -0.0740929097
v -0.0703534111 -0.0743096843 -0.0734429136
v -0.0702835247 -0.0741408467 -0.0740929097
v -0.0703534111 -0.0736096799 -0.0734429136
v -0.0702835247 -0.0737785175 -0.0740929097
v -0.0702835247 -0.0741408467 -0.0734429136
v -0.0702595413 -0.0739596784 -0.0740929097
v -0.0702835247 -0.0737785175 -0.0734429136
v -0.0702595413 -0.0739596784 -0.0734429136
v -0.0650595352 -0.0709596798 -0.0708942935
v -0.0650595352 -0.0709596798 -0.0702929124
v -0.0650595352 -0.0708536431 -0.0702929124
v -0.06005954 -0.0709596798 -0.0708942935
v -0.06005954 -0.0709596798 -0.0702929124
v -0.06005954 -0.0708536431 -0.0702929124
v -0.0692057759 -0.102959834 -0.0602017716
v -0.0692057759 -0.104459532 -0.0602017716
v -0.0715544745 -0.102964826 -0.0615603961
v -0.0697776303 -0.102959834 -0.0598995984
v -0.0709052086 -0.102959834 -0.0570595227
v -0.0715595409 -0.104459532 -0.0615608618
v -0.0709052086 -0.104459532 -0.0570595227
v -0.0702630803 -0.102959834 -0.0594727211
v -0.0715544745 -0.102964826 -0.0567900389
v -0.0712457374 -0.102959834 -0.0569572411
v -0.0708738714 -0.102959834 -0.0583434179
v -0.0706351772 -0.102959834 -0.058944501
v -0.0715595409 -0.104459532 -0.0567895733
v -0.053559538 -0.104459532 -0.0567895733
v -0.0535646081 -0.102964826 -0.0567900389
v -0.054213874 -0.104459532 -0.0570595227
v -0.053559538 -0.104459532 -0.0615608618
v -0.0538733415 -0.102959834 -0.0569572411
v -0.054213874 -0.102959834 -0.0570595227
v -0.0535646081 -0.102964826 -0.0615603961
v -0.055913303 -0.104459532 -0.0602017716
v -0.0542452075 -0.102959834 -0.0583434179
v -0.055913303 -0.102959834 -0.0602017716
v -0.0553414524 -0.102959834 -0.0598995984
v -0.0548559986 -0.102959834 -0.0594727211
v -0.0544839017 -0.102959834 -0.058944501
v -0.0530620329 -0.108059444 -0.0467929132
v -0.0720573813 -0.108059444 -0.0467929132
v -0.0530620329 -0.11055968 -0.0512958504
v -0.0445616916 -0.108059444 -0.0514282882
v -0.0445616916 -0.0839610919 -0.0514282882
v -0.0448016077 -0.0839610919 -0.0513281524
v -0.0553328842 -0.0755278915 -0.048995927
v -0.0554221533 -0.075320214 -0.048995927
v -0.0562841855 -0.0738298446 -0.048995927
v -0.056468308 -0.0735895932 -0.048995927
v -0.0618078709 -0.0781706423 -0.0482465141
v -0.0622012243 -0.0777390078 -0.0482465141
v -0.062360242 -0.0777960196 -0.0482335947
v -0.0624467246 -0.0778123066 -0.0482303649
v -0.0626141056 -0.0778041631 -0.0482303649
v -0.0725595355 -0.103209645 -0.0491929725
v -0.0725595355 -0.10487511 -0.0491929725
v -0.0725595355 -0.108059444 -0.0493092611
v -0.0720573813 -0.11055968 -0.0512958504
v -0.062697798 -0.0777838007 -0.0482335947
v -0.0628512353 -0.0777105018 -0.0482465141
v -0.0632808581 -0.0781054944 -0.0482465141
v -0.0680596828 -0.0729339942 -0.048995927
v -0.069259271 -0.074473232 -0.048995927
v -0.0696916804 -0.0753080025 -0.048995927
v -0.0700403973 -0.0762608573 -0.048995927
v -0.0703528523 -0.0781869367 -0.048995927
v -0.0723586753 -0.0700428486 -0.0517933033
v -0.0725595355 -0.0699614063 -0.0519935787
v -0.0530620329 -0.11055968 -0.0752899721
v -0.0440595374 -0.108059444 -0.0522939898
v -0.0440958031 -0.108059444 -0.0520355701
v -0.0441962332 -0.108059444 -0.0517933033
v -0.0443524607 -0.108059444 -0.0515865684
v -0.0443524607 -0.0839610919 -0.0515865684
v -0.0527607426 -0.0700428486 -0.0517933033
v -0.0571852699 -0.0728077665 -0.048995927
v -0.0574056618 -0.0726082325 -0.048995927
v -0.0590153411 -0.0715128556 -0.048995927
v -0.059414275 -0.0713214651 -0.048995927
v -0.0608509891 -0.0708491132 -0.048995927
v -0.0627954379 -0.0706658661 -0.048995927
v -0.0725595355 -0.108059444 -0.0772927105
v -0.0720573813 -0.11055968 -0.0752899721
v -0.0647231489 -0.0709671974 -0.048995927
v -0.0665141642 -0.0717408881 -0.048995927
v -0.0714743286 -0.0691632852 -0.0517933033
v -0.071558021 -0.0689596832 -0.0519935787
v -0.0725595355 -0.0699614063 -0.0745922476
v -0.0530620329 -0.108059444 -0.0797929093
v -0.0440595374 -0.108059444 -0.0762913451
v -0.0440595374 -0.0839610919 -0.0522939898
v -0.0440958031 -0.0839610919 -0.0520355701
v -0.0441962332 -0.0839610919 -0.0517933033
v -0.0525598787 -0.0699614063 -0.0519935787
v -0.0535613969 -0.0689596832 -0.0519935787
v -0.0536450893 -0.0691632852 -0.0517933033
v -0.0608091429 -0.0706536546 -0.0491929725
v -0.0628010184 -0.0704663396 -0.0491929725
v -0.0720573813 -0.108059444 -0.0797929093
v -0.0725595355 -0.10487511 -0.0773928538
v -0.071558021 -0.0689596832 -0.0745922476
v -0.0723586753 -0.0700428486 -0.0747925192
v -0.0703472719 -0.0780403391 -0.0776900351
v -0.0725595355 -0.103209645 -0.0773928538
v -0.0621370599 -0.0706740171 -0.0776900351
v -0.0601340272 -0.0710486397 -0.0776900351
v -0.0585578233 -0.0717653185 -0.0776900351
v -0.0583011657 -0.0719282031 -0.0776900351
v -0.0567556508 -0.0732516199 -0.0776900351
v -0.0556062758 -0.0749333724 -0.0776900351
v -0.0549283698 -0.0768513009 -0.0776900351
v -0.0440595374 -0.105958268 -0.0762913451
v -0.0440595374 -0.0839610919 -0.0682900697
v -0.0525598787 -0.0699614063 -0.0745922476
v -0.0535613969 -0.0689596832 -0.0745922476
v -0.0699734464 -0.0760368928 -0.0776900351
v -0.0690918863 -0.0742004067 -0.0776900351
v -0.0677667633 -0.0726571009 -0.0776900351
v -0.0660873353 -0.0715047121 -0.0776900351
v -0.0641679913 -0.0708287507 -0.0776900351
v -0.0621259026 -0.0704744831 -0.077489756
v -0.0642070472 -0.0706332922 -0.077489756
v -0.0714743286 -0.0691632852 -0.0747925192
v -0.0536450893 -0.0691632852 -0.0747925192
v -0.0527607426 -0.0700428486 -0.0747925192
v -0.0443524607 -0.0839610919 -0.0689974949
v -0.0441962332 -0.0839610919 -0.0687907562
v -0.0440958031 -0.0839610919 -0.0685517192
g 
f 10 4 13
f 5 4 10
f 11 5 10
f 8 5 11
f 13 671 645
f 10 13 23
f 534 824 7
f 11 9 8
f 9 11 20
f 11 10 15
f 15 10 23
f 20 11 15
f 21 12 16
f 22 645 628
f 23 13 22
f 540 834 824
f 512 299 938
f 9 20 25
f 18 9 25
f 27 15 23
f 20 15 26
f 16 820 21
f 46 820 44
f 21 820 46
f 512 825 834
f 25 19 18
f 19 25 51
f 24 19 34
f 35 25 20
f 26 15 27
f 35 20 26
f 614 853 447
f 639 853 614
f 802 639 806
f 29 22 611
f 23 22 29
f 30 23 29
f 27 23 30
f 547 825 512
f 34 19 51
f 32 24 34
f 35 51 25
f 53 51 35
f 55 26 27
f 55 27 30
f 36 624 28
f 36 28 828
f 639 794 806
f 836 806 805
f 835 433 438
f 46 44 45
f 62 29 611
f 30 29 62
f 48 30 62
f 33 32 50
f 52 32 34
f 50 32 52
f 945 33 50
f 34 53 52
f 54 26 55
f 35 26 54
f 53 35 54
f 55 30 48
f 37 36 456
f 828 39 495
f 58 72 40
f 87 782 412
f 42 422 41
f 74 42 94
f 43 42 45
f 45 42 74
f 44 43 45
f 47 46 45
f 96 47 74
f 75 48 62
f 76 48 75
f 670 945 644
f 82 52 66
f 50 52 82
f 644 50 648
f 53 34 51
f 66 52 53
f 66 53 54
f 54 55 85
f 67 54 85
f 66 54 67
f 68 55 48
f 85 55 68
f 69 48 76
f 68 48 69
f 141 70 124
f 87 412 70
f 58 498 71
f 107 58 71
f 73 72 124
f 73 40 72
f 60 87 136
f 885 60 136
f 93 61 886
f 94 42 41
f 567 339 600
f 62 606 75
f 597 223 210
f 65 80 64
f 80 65 84
f 78 64 80
f 82 66 100
f 81 82 100
f 65 83 84
f 100 66 67
f 67 85 103
f 86 67 103
f 87 70 141
f 71 676 107
f 72 58 107
f 885 136 937
f 627 885 937
f 142 627 937
f 90 627 142
f 41 61 94
f 91 61 93
f 94 61 91
f 92 886 475
f 93 886 92
f 74 94 95
f 74 47 45
f 75 608 109
f 76 75 109
f 110 76 109
f 506 843 502
f 79 78 80
f 98 79 80
f 97 79 98
f 98 84 99
f 80 84 98
f 67 114 100
f 83 661 101
f 130 83 101
f 84 83 130
f 102 84 130
f 99 84 102
f 103 68 69
f 85 68 103
f 104 103 105
f 86 103 104
f 105 69 110
f 103 69 105
f 110 69 76
f 124 70 73
f 522 329 322
f 122 89 121
f 622 72 107
f 90 142 157
f 125 91 143
f 95 91 125
f 94 91 95
f 96 74 95
f 108 96 95
f 127 108 125
f 113 97 98
f 113 98 99
f 114 67 86
f 673 100 114
f 130 101 115
f 116 104 105
f 104 116 117
f 86 104 118
f 118 104 117
f 118 114 86
f 105 110 134
f 116 105 134
f 87 141 136
f 123 122 138
f 140 72 622
f 124 72 140
f 141 124 153
f 108 95 125
f 127 125 126
f 503 110 109
f 110 503 134
f 505 297 305
f 113 112 97
f 112 113 129
f 128 112 129
f 129 113 99
f 129 99 145
f 145 99 102
f 115 694 144
f 130 115 131
f 135 116 134
f 149 116 135
f 117 116 149
f 765 118 803
f 144 764 133
f 135 134 604
f 151 120 137
f 121 120 151
f 122 121 151
f 165 122 151
f 138 122 165
f 123 138 152
f 152 138 139
f 153 124 140
f 136 141 154
f 143 93 92
f 143 91 93
f 126 125 143
f 156 126 143
f 159 128 129
f 137 128 159
f 159 129 145
f 162 130 131
f 102 130 162
f 145 102 162
f 147 149 135
f 149 147 516
f 458 117 149
f 935 133 132
f 150 133 935
f 144 133 150
f 151 137 159
f 165 151 159
f 166 138 165
f 166 139 138
f 139 166 173
f 167 139 174
f 152 139 167
f 153 140 607
f 154 141 153
f 168 154 153
f 155 937 169
f 142 937 155
f 157 142 155
f 143 92 156
f 135 632 147
f 159 145 160
f 160 145 146
f 161 115 144
f 131 115 161
f 161 144 150
f 162 131 163
f 163 131 170
f 146 145 162
f 163 146 162
f 148 164 172
f 935 148 172
f 174 139 173
f 523 153 607
f 154 168 169
f 157 155 158
f 158 619 629
f 165 159 160
f 165 160 166
f 170 161 150
f 170 131 161
f 172 164 176
f 166 160 146
f 173 166 146
f 174 173 171
f 167 174 179
f 178 179 174
f 601 168 523
f 620 168 601
f 884 168 620
f 620 619 884
f 173 146 163
f 173 163 171
f 163 170 171
f 177 170 150
f 171 170 177
f 178 171 177
f 175 172 176
f 150 935 177
f 174 171 178
f 178 175 179
f 178 177 175
f 520 6 899
f 401 823 6
f 695 853 823
f 39 28 450
f 57 39 403
f 368 57 444
f 829 859 637
f 106 88 829
f 119 106 510
f 886 61 693
f 687 88 522
f 157 652 90
f 652 92 475
f 653 156 652
f 653 157 158
f 616 158 629
f 616 615 653
f 724 180 788
f 664 763 399
f 766 761 757
f 188 766 811
f 771 394 466
f 732 388 419
f 183 798 781
f 791 184 182
f 798 815 187
f 198 189 439
f 190 186 818
f 187 195 434
f 837 190 818
f 641 257 361
f 844 232 445
f 703 752 446
f 500 193 198
f 193 442 189
f 195 459 194
f 195 194 855
f 197 460 199
f 196 514 435
f 493 201 851
f 678 890 477
f 684 686 905
f 493 203 201
f 200 514 196
f 595 203 493
f 497 205 200
f 205 684 514
f 223 206 545
f 555 925 206
f 537 209 554
f 570 209 221
f 217 214 527
f 216 215 939
f 526 216 586
f 212 578 218
f 581 219 530
f 572 220 532
f 577 207 589
f 539 208 590
f 910 222 568
f 924 223 597
f 595 225 204
f 211 941 929
f 336 332 566
f 878 660 866
f 563 301 311
f 208 930 227
f 213 227 530
f 936 229 220
f 222 910 230
f 216 221 586
f 215 526 588
f 589 207 588
f 337 272 470
f 208 214 590
f 630 232 844
f 511 232 389
f 654 233 634
f 261 701 663
f 374 762 448
f 713 246 236
f 729 719 723
f 236 237 713
f 707 239 727
f 730 382 417
f 405 709 464
f 754 760 750
f 451 375 749
f 386 234 1
f 243 398 756
f 244 243 756
f 245 769 778
f 779 785 244
f 804 247 783
f 711 412 782
f 411 713 377
f 250 246 411
f 236 414 775
f 245 778 831
f 797 807 250
f 812 412 711
f 790 389 722
f 436 252 804
f 428 809 795
f 831 778 858
f 253 807 797
f 254 785 779
f 797 426 253
f 805 428 819
f 256 827 808
f 656 259 634
f 663 397 449
f 449 700 759
f 262 372 846
f 263 267 468
f 850 821 841
f 436 264 255
f 467 494 265
f 467 265 460
f 273 267 861
f 256 59 827
f 940 813 269
f 269 273 461
f 776 709 392
f 256 494 59
f 919 281 270
f 599 872 334
f 868 658 367
f 871 868 302
f 864 271 874
f 259 933 845
f 835 840 429
f 745 712 90
f 481 274 887
f 478 275 926
f 478 477 679
f 900 895 672
f 484 903 683
f 918 370 651
f 685 902 280
f 491 281 919
f 467 435 288
f 920 283 282
f 283 920 289
f 455 282 283
f 919 270 835
f 284 580 492
f 285 504 341
f 625 287 830
f 283 289 594
f 286 281 491
f 268 290 234
f 934 512 938
f 494 288 515
f 534 296 324
f 557 296 534
f 536 297 505
f 506 942 573
f 540 299 512
f 300 501 331
f 547 302 521
f 549 329 522
f 553 301 545
f 312 303 597
f 507 303 519
f 303 507 310
f 561 300 543
f 332 304 544
f 556 304 309
f 560 305 535
f 577 306 320
f 307 552 308
f 296 561 533
f 532 309 325
f 298 562 570
f 550 310 507
f 537 310 326
f 311 599 334
f 313 331 887
f 569 295 578
f 546 314 320
f 592 934 529
f 538 294 527
f 944 590 528
f 317 591 316
f 525 298 570
f 293 298 525
f 326 317 586
f 315 318 587
f 574 938 538
f 938 574 529
f 308 319 575
f 319 327 321
f 295 505 305
f 314 531 320
f 581 321 337
f 330 912 323
f 296 533 324
f 571 324 533
f 517 318 943
f 572 325 944
f 309 517 943
f 310 550 326
f 316 306 588
f 551 316 591
f 315 307 590
f 541 327 593
f 321 327 541
f 327 319 576
f 295 569 329
f 584 314 546
f 314 584 330
f 300 331 543
f 304 332 508
f 303 312 519
f 328 580 284
f 328 284 926
f 518 311 502
f 311 334 563
f 301 553 335
f 298 335 562
f 300 561 296
f 294 324 571
f 299 294 538
f 295 305 578
f 949 297 293
f 297 559 535
f 302 934 592
f 319 308 576
f 318 517 587
f 317 326 524
f 276 333 286
f 337 541 583
f 306 316 551
f 307 315 552
f 304 558 309
f 306 551 320
f 292 904 288
f 600 338 612
f 339 567 343
f 605 291 602
f 622 340 607
f 291 342 523
f 342 291 605
f 609 339 343
f 606 338 608
f 339 609 608
f 603 291 340
f 610 344 613
f 626 344 610
f 338 339 608
f 343 285 609
f 612 345 633
f 611 345 606
f 601 342 346
f 338 345 612
f 342 613 346
f 348 603 340
f 617 347 618
f 347 617 357
f 285 341 604
f 613 344 346
f 625 350 287
f 349 633 345
f 626 351 344
f 475 90 652
f 260 355 353
f 241 690 354
f 511 355 260
f 341 857 356
f 626 352 351
f 259 845 638
f 636 257 641
f 356 623 357
f 347 357 615
f 347 352 618
f 621 359 642
f 348 359 621
f 349 358 647
f 676 359 646
f 651 359 918
f 642 359 651
f 649 882 360
f 882 644 360
f 638 443 362
f 290 363 457
f 661 360 364
f 360 648 364
f 647 358 672
f 848 399 448
f 700 662 751
f 750 396 754
f 705 366 3
f 705 398 451
f 362 635 669
f 868 367 881
f 670 883 583
f 676 918 359
f 673 364 81
f 671 482 483
f 363 894 481
f 859 916 657
f 917 369 488
f 363 520 899
f 894 899 893
f 369 687 908
f 688 370 280
f 350 625 371
f 77 371 625
f 692 372 262
f 354 372 631
f 447 374 353
f 446 700 751
f 759 698 664
f 702 375 847
f 41 380 693
f 730 377 713
f 378 781 408
f 379 710 376
f 706 380 715
f 354 720 417
f 377 720 784
f 382 237 415
f 416 383 731
f 410 384 716
f 728 384 790
f 419 385 732
f 385 780 718
f 388 721 418
f 727 409 418
f 707 376 465
f 383 708 724
f 714 387 415
f 789 387 416
f 720 354 631
f 721 388 733
f 734 389 232
f 373 765 390
f 782 392 711
f 775 393 463
f 771 739 744
f 706 746 772
f 770 746 464
f 752 844 445
f 662 396 750
f 240 755 848
f 399 755 847
f 768 777 753
f 397 801 757
f 756 398 400
f 769 396 800
f 398 726 400
f 785 801 402
f 391 390 803
f 777 768 403
f 403 768 444
f 770 404 772
f 404 745 475
f 773 405 464
f 785 430 801
f 810 444 831
f 496 767 948
f 188 838 800
f 496 756 767
f 377 784 411
f 780 406 718
f 41 422 783
f 378 408 739
f 392 782 742
f 247 409 735
f 809 420 410
f 380 783 715
f 406 795 718
f 420 725 410
f 384 410 725
f 421 411 784
f 411 421 797
f 387 717 415
f 382 415 729
f 387 714 416
f 383 416 714
f 354 417 723
f 384 725 790
f 409 407 418
f 385 419 780
f 792 186 432
f 799 791 793
f 422 43 423
f 792 406 184
f 185 437 815
f 252 436 255
f 185 413 796
f 400 767 756
f 423 804 422
f 413 185 798
f 437 185 796
f 408 424 832
f 403 444 57
f 421 426 797
f 820 839 44
f 191 838 188
f 132 458 148
f 426 456 813
f 808 826 832
f 492 817 802
f 841 836 258
f 815 437 195
f 431 434 256
f 835 453 462
f 779 496 425
f 933 430 785
f 439 189 452
f 835 438 453
f 263 441 455
f 854 497 200
f 826 70 812
f 437 459 195
f 442 850 822
f 368 444 657
f 752 445 748
f 235 446 748
f 700 446 698
f 374 447 695
f 448 763 697
f 181 449 757
f 449 181 700
f 624 849 450
f 395 849 704
f 760 846 699
f 451 398 701
f 375 261 847
f 399 847 664
f 201 442 851
f 822 850 841
f 256 434 265
f 856 56 273
f 459 454 199
f 264 462 816
f 434 431 187
f 268 401 520
f 837 852 198
f 637 859 675
f 862 461 197
f 269 461 454
f 940 454 459
f 818 453 837
f 392 742 776
f 946 776 742
f 393 183 463
f 404 770 745
f 394 744 465
f 747 466 774
f 855 460 265
f 270 493 500
f 497 854 861
f 659 864 469
f 865 658 870
f 668 469 866
f 469 668 470
f 470 879 581
f 592 471 871
f 865 665 873
f 472 666 473
f 367 669 881
f 667 474 875
f 883 869 583
f 56 856 456
f 854 461 861
f 946 742 885
f 90 475 745
f 679 477 888
f 674 892 896
f 479 680 476
f 276 480 333
f 479 480 680
f 480 598 333
f 491 901 286
f 895 901 672
f 681 483 897
f 903 484 906
f 485 279 292
f 485 486 902
f 903 686 594
f 514 684 292
f 484 487 913
f 486 913 910
f 579 488 914
f 915 488 579
f 369 908 278
f 685 489 904
f 542 688 912
f 461 862 454
f 429 820 16
f 440 827 40
f 436 423 839
f 204 490 203
f 12 491 16
f 821 922 492
f 284 492 922
f 425 496 31
f 59 498 58
f 498 494 515
f 490 201 203
f 441 495 282
f 852 270 500
f 557 842 501
f 843 506 77
f 203 595 204
f 922 499 284
f 580 6 817
f 609 285 503
f 503 285 604
f 656 811 430
f 834 825 17
f 77 506 931
f 97 507 79
f 8 508 5
f 499 509 926
f 225 509 204
f 350 510 257
f 63 830 49
f 737 355 511
f 928 119 833
f 824 834 14
f 536 111 513
f 931 513 111
f 495 579 920
f 224 205 497
f 509 499 204
f 333 595 493
f 286 333 281
f 828 468 36
f 164 148 516
f 149 516 458
f 128 137 546
f 19 24 18
f 8 9 517
f 49 518 63
f 1 923 2
f 498 59 494
f 490 204 499
f 268 520 290
f 881 31 521
f 948 521 31
f 928 522 88
f 127 504 108
f 9 18 587
f 315 587 552
f 112 128 591
f 97 112 524
f 317 524 591
f 215 216 526
f 214 217 528
f 528 217 572
f 212 218 222
f 120 546 137
f 435 514 292
f 919 16 491
f 557 534 842
f 305 297 535
f 505 833 536
f 586 221 537
f 209 537 221
f 512 834 540
f 640 164 516
f 321 541 337
f 121 89 542
f 543 331 565
f 206 223 924
f 24 32 593
f 322 329 548
f 548 329 582
f 522 928 549
f 493 193 500
f 18 24 552
f 206 228 553
f 925 228 206
f 545 206 553
f 597 303 555
f 310 555 303
f 555 310 554
f 301 563 545
f 335 502 301
f 929 941 229
f 929 229 561
f 544 304 556
f 507 519 79
f 501 300 557
f 332 585 508
f 508 8 558
f 330 584 542
f 207 577 218
f 535 559 947
f 947 218 560
f 218 947 207
f 589 306 577
f 591 128 546
f 227 574 208
f 308 539 307
f 930 208 539
f 308 552 576
f 936 561 229
f 533 561 936
f 532 229 556
f 300 296 557
f 309 558 517
f 209 228 925
f 335 553 562
f 209 562 228
f 570 562 209
f 537 554 310
f 942 502 335
f 507 97 550
f 210 877 226
f 210 226 564
f 518 473 599
f 565 313 890
f 565 890 211
f 941 889 566
f 566 889 476
f 336 585 332
f 108 567 96
f 212 569 578
f 582 569 212
f 329 549 295
f 590 214 528
f 527 214 538
f 316 526 317
f 588 526 316
f 297 513 293
f 587 18 552
f 939 215 525
f 525 570 939
f 586 317 526
f 936 217 527
f 528 572 944
f 513 573 927
f 324 294 540
f 524 112 591
f 227 213 574
f 529 574 213
f 575 321 530
f 530 227 930
f 593 576 24
f 305 560 578
f 531 218 577
f 531 577 320
f 6 580 899
f 219 879 231
f 530 321 581
f 330 323 596
f 322 548 909
f 521 302 881
f 120 121 584
f 32 33 593
f 220 572 217
f 936 571 533
f 572 532 325
f 537 326 586
f 517 9 587
f 297 949 559
f 207 559 215
f 207 215 588
f 588 306 589
f 214 208 538
f 590 307 539
f 326 550 524
f 294 299 540
f 531 314 568
f 934 302 547
f 321 575 319
f 541 593 33
f 542 584 121
f 212 222 230
f 330 568 314
f 568 330 596
f 213 231 471
f 332 544 566
f 223 877 210
f 877 223 545
f 564 312 597
f 597 210 564
f 584 546 120
f 311 301 502
f 508 4 5
f 595 333 598
f 562 553 228
f 559 525 215
f 873 877 563
f 578 560 218
f 487 582 230
f 544 941 566
f 566 476 336
f 878 874 564
f 539 308 575
f 910 596 911
f 590 944 315
f 532 556 309
f 518 843 63
f 923 1 682
f 518 599 311
f 506 502 942
f 534 324 540
f 505 295 549
f 536 513 297
f 512 934 547
f 875 78 519
f 482 4 585
f 583 945 670
f 550 97 524
f 552 24 576
f 517 558 8
f 497 594 224
f 288 904 515
f 47 96 600
f 345 338 606
f 168 884 169
f 179 602 167
f 168 153 523
f 167 603 152
f 291 607 340
f 604 341 632
f 567 108 504
f 342 605 613
f 285 343 504
f 567 504 343
f 339 338 600
f 602 179 605
f 607 291 523
f 291 603 602
f 602 603 167
f 351 346 344
f 176 610 175
f 606 608 75
f 608 609 109
f 348 621 603
f 340 622 348
f 498 515 71
f 46 47 612
f 605 179 613
f 523 342 601
f 600 96 567
f 896 926 509
f 606 62 611
f 175 610 179
f 355 737 614
f 932 614 737
f 615 156 653
f 352 347 616
f 615 616 347
f 617 147 632
f 352 643 618
f 617 618 640
f 516 148 458
f 884 619 155
f 601 346 620
f 346 351 620
f 152 621 123
f 600 612 47
f 603 621 152
f 504 127 857
f 622 607 140
f 646 348 622
f 401 6 520
f 504 857 341
f 857 126 623
f 156 623 126
f 155 619 158
f 503 109 609
f 37 38 624
f 510 350 119
f 119 350 111
f 349 345 628
f 619 620 351
f 21 46 633
f 164 643 176
f 629 351 352
f 355 447 353
f 372 692 631
f 631 692 38
f 260 445 511
f 690 241 630
f 611 22 628
f 404 475 886
f 447 355 614
f 341 356 632
f 351 629 619
f 358 349 628
f 259 638 634
f 443 425 635
f 677 233 636
f 257 636 287
f 361 257 637
f 510 637 257
f 352 626 643
f 880 654 638
f 634 638 654
f 357 623 615
f 612 633 46
f 626 176 643
f 623 356 857
f 630 734 232
f 610 176 626
f 614 932 639
f 516 147 640
f 655 738 641
f 636 641 738
f 123 642 122
f 503 604 134
f 623 156 615
f 616 629 352
f 618 643 164
f 356 357 632
f 617 632 357
f 945 50 644
f 645 22 13
f 642 123 621
f 348 646 359
f 604 632 135
f 21 633 647
f 89 122 642
f 645 358 628
f 349 647 633
f 830 63 625
f 50 82 648
f 794 639 932
f 64 78 649
f 882 649 474
f 64 650 65
f 642 651 89
f 650 64 649
f 649 360 650
f 156 92 652
f 830 233 654
f 641 361 655
f 634 233 656
f 444 810 657
f 810 831 858
f 658 872 666
f 667 271 659
f 202 867 668
f 644 882 670
f 649 78 474
f 638 362 880
f 202 660 876
f 866 660 202
f 653 652 157
f 617 640 147
f 636 233 287
f 830 287 233
f 290 520 363
f 648 360 644
f 83 650 661
f 360 661 650
f 650 83 65
f 12 21 647
f 622 107 646
f 111 371 931
f 697 235 748
f 401 762 695
f 703 699 752
f 700 181 662
f 396 662 761
f 2 366 386
f 702 386 749
f 704 696 753
f 701 243 663
f 3 7 705
f 698 759 700
f 763 698 235
f 660 226 665
f 873 665 877
f 867 471 231
f 660 878 226
f 472 367 666
f 658 666 367
f 659 869 667
f 474 667 883
f 867 231 668
f 470 668 879
f 470 272 469
f 659 469 272
f 880 473 49
f 635 881 669
f 875 474 78
f 676 646 107
f 13 4 671
f 515 676 71
f 645 900 358
f 364 648 81
f 81 648 82
f 661 364 689
f 889 678 479
f 480 891 674
f 680 681 897
f 810 858 675
f 489 676 515
f 277 914 683
f 685 279 902
f 906 907 686
f 686 907 905
f 636 738 677
f 191 677 738
f 477 891 678
f 678 891 479
f 898 275 679
f 679 275 478
f 674 896 225
f 480 276 680
f 681 680 276
f 598 480 674
f 481 894 898
f 483 681 895
f 457 481 682
f 481 457 363
f 900 645 671
f 914 278 683
f 683 278 909
f 486 911 902
f 686 684 224
f 488 369 914
f 489 685 370
f 916 88 687
f 651 688 89
f 676 489 918
f 661 689 101
f 77 625 63
f 350 371 111
f 647 672 12
f 373 364 673
f 846 372 690
f 354 690 372
f 849 624 691
f 511 445 232
f 262 691 692
f 41 693 61
f 36 37 624
f 618 164 640
f 616 653 158
f 364 373 689
f 100 673 81
f 654 880 49
f 373 694 689
f 115 101 694
f 694 101 689
f 743 710 180
f 445 260 748
f 697 748 260
f 447 853 695
f 754 696 760
f 662 750 365
f 448 697 374
f 446 235 698
f 664 698 763
f 759 261 663
f 701 261 375
f 451 701 375
f 755 234 702
f 386 702 234
f 751 365 703
f 699 703 365
f 450 849 395
f 696 704 262
f 451 366 705
f 743 180 708
f 744 242 405
f 709 242 740
f 773 707 465
f 774 708 463
f 740 249 711
f 236 246 414
f 714 236 775
f 237 236 714
f 692 691 38
f 735 706 715
f 731 381 789
f 789 381 786
f 717 238 787
f 787 238 716
f 736 238 786
f 377 730 720
f 736 385 718
f 787 251 717
f 716 248 410
f 734 719 722
f 719 241 723
f 710 379 721
f 721 379 727
f 719 251 722
f 720 631 784
f 417 382 723
f 724 381 731
f 710 733 180
f 788 732 381
f 783 380 41
f 419 182 780
f 418 407 182
f 727 735 409
f 724 708 180
f 730 713 237
f 7 14 726
f 848 268 240
f 823 401 695
f 373 673 765
f 707 727 379
f 722 251 728
f 787 728 251
f 415 717 729
f 719 729 251
f 788 381 724
f 786 381 732
f 789 717 387
f 415 237 714
f 788 180 733
f 721 733 710
f 734 630 241
f 719 734 241
f 727 239 735
f 706 735 239
f 716 238 736
f 419 388 182
f 418 182 388
f 511 389 737
f 790 737 389
f 390 694 373
f 673 114 765
f 114 118 765
f 738 655 191
f 677 191 811
f 630 192 690
f 390 764 694
f 711 392 740
f 709 740 392
f 708 383 463
f 414 393 775
f 376 707 379
f 713 411 246
f 693 380 741
f 466 394 743
f 710 743 394
f 739 242 744
f 770 712 745
f 706 239 746
f 746 239 773
f 709 863 464
f 781 378 747
f 747 378 771
f 697 260 353
f 446 752 748
f 386 366 749
f 749 366 451
f 699 365 750
f 662 365 751
f 699 192 752
f 752 192 844
f 696 245 753
f 240 234 755
f 449 397 757
f 663 243 758
f 664 261 759
f 696 262 760
f 662 181 761
f 705 7 726
f 762 401 848
f 448 399 763
f 761 181 757
f 694 764 144
f 450 395 777
f 396 761 800
f 395 753 777
f 754 769 245
f 243 244 758
f 758 244 402
f 240 268 234
f 1 2 386
f 768 753 245
f 769 754 396
f 400 726 14
f 758 402 397
f 400 17 767
f 17 400 14
f 801 397 402
f 188 761 766
f 390 391 764
f 803 390 765
f 391 133 764
f 402 244 785
f 766 430 811
f 693 741 886
f 465 376 394
f 710 394 376
f 464 863 770
f 712 863 776
f 739 771 378
f 741 380 772
f 706 772 380
f 709 405 242
f 465 744 405
f 707 773 239
f 781 747 183
f 463 183 747
f 466 743 774
f 708 774 743
f 714 775 383
f 739 740 242
f 403 39 777
f 450 777 39
f 2 3 366
f 430 766 801
f 933 785 254
f 767 17 948
f 800 838 778
f 932 725 420
f 496 779 756
f 780 182 184
f 631 38 784
f 250 414 246
f 410 248 809
f 795 809 248
f 247 793 409
f 782 87 60
f 798 183 413
f 812 711 249
f 742 782 60
f 780 184 406
f 725 932 737
f 715 783 247
f 795 248 718
f 421 784 38
f 797 250 411
f 807 796 250
f 444 768 831
f 796 414 250
f 393 414 413
f 789 416 731
f 237 382 730
f 732 385 786
f 736 786 385
f 716 728 787
f 728 716 384
f 729 717 251
f 735 715 247
f 730 417 720
f 728 790 722
f 724 731 383
f 733 388 788
f 732 788 388
f 786 238 789
f 717 789 238
f 729 723 382
f 723 241 354
f 734 722 389
f 718 248 736
f 716 736 248
f 725 737 790
f 721 727 418
f 182 407 791
f 793 791 407
f 792 184 186
f 818 186 184
f 818 184 791
f 793 252 799
f 432 795 792
f 420 427 794
f 792 795 406
f 424 408 781
f 781 798 187
f 413 183 393
f 794 932 420
f 804 423 436
f 407 409 793
f 799 462 818
f 799 252 816
f 778 769 800
f 761 188 800
f 37 421 38
f 779 244 756
f 187 424 781
f 853 802 823
f 766 757 801
f 799 818 791
f 812 249 832
f 779 425 254
f 793 247 252
f 783 422 804
f 805 806 427
f 421 37 426
f 427 420 809
f 796 807 437
f 429 919 835
f 258 452 189
f 806 794 427
f 858 838 655
f 188 811 191
f 43 422 42
f 255 816 252
f 190 432 186
f 931 371 77
f 815 798 185
f 832 249 408
f 426 37 456
f 253 426 813
f 132 148 935
f 431 424 187
f 804 252 247
f 462 799 816
f 264 816 255
f 802 806 814
f 831 768 245
f 195 187 815
f 814 492 802
f 802 817 823
f 428 432 452
f 805 819 836
f 6 823 817
f 412 812 70
f 428 805 809
f 814 841 821
f 258 189 822
f 14 7 824
f 540 824 534
f 106 119 928
f 549 833 505
f 948 17 825
f 437 807 266
f 832 826 812
f 73 70 826
f 253 940 266
f 808 832 424
f 637 510 829
f 106 829 510
f 654 49 830
f 838 858 778
f 459 437 266
f 256 808 431
f 534 7 842
f 3 842 7
f 119 111 833
f 833 111 536
f 17 14 834
f 462 264 835
f 840 835 264
f 258 836 819
f 839 423 44
f 452 432 439
f 190 198 439
f 453 818 462
f 496 948 31
f 198 190 837
f 819 452 258
f 827 826 808
f 189 442 822
f 189 198 193
f 440 73 826
f 117 803 118
f 200 196 854
f 263 828 441
f 267 263 455
f 40 73 440
f 3 923 842
f 501 842 923
f 77 63 843
f 502 843 518
f 630 844 192
f 450 28 624
f 691 624 38
f 677 811 656
f 638 845 443
f 430 259 656
f 637 675 361
f 635 425 31
f 657 916 368
f 848 755 399
f 690 192 846
f 699 846 192
f 753 395 704
f 696 754 245
f 353 374 697
f 703 446 751
f 261 664 847
f 663 449 759
f 762 848 448
f 663 758 397
f 697 763 235
f 701 398 243
f 749 375 702
f 702 847 755
f 691 262 849
f 704 849 262
f 262 846 760
f 726 398 705
f 750 760 699
f 762 374 695
f 940 459 266
f 270 433 835
f 500 198 852
f 442 193 851
f 434 195 855
f 132 133 391
f 44 423 43
f 839 840 436
f 263 468 828
f 841 258 822
f 828 28 39
f 273 269 856
f 199 194 459
f 36 56 456
f 456 856 813
f 440 826 827
f 639 802 853
f 852 438 433
f 433 270 852
f 458 391 803
f 435 467 860
f 438 837 453
f 860 197 854
f 460 855 921
f 59 40 827
f 269 813 856
f 290 457 234
f 458 132 391
f 839 820 429
f 127 126 857
f 401 268 848
f 655 361 858
f 675 858 361
f 675 859 810
f 657 810 859
f 677 656 233
f 859 829 88
f 916 859 88
f 196 860 854
f 467 460 860
f 197 860 460
f 455 861 267
f 919 429 16
f 56 267 273
f 197 199 862
f 454 862 199
f 836 841 814
f 814 806 836
f 940 269 454
f 452 819 428
f 840 264 436
f 282 455 441
f 495 441 828
f 712 776 946
f 740 739 249
f 463 747 774
f 886 741 404
f 746 773 464
f 775 463 383
f 772 404 741
f 465 405 773
f 772 746 770
f 863 709 776
f 770 863 712
f 747 771 466
f 744 394 771
f 855 265 434
f 495 39 915
f 193 493 851
f 201 490 442
f 922 821 850
f 494 256 265
f 497 861 283
f 468 56 36
f 56 468 267
f 435 860 196
f 659 271 864
f 875 271 667
f 666 872 599
f 876 660 665
f 658 865 872
f 878 866 864
f 202 876 867
f 471 867 870
f 658 868 871
f 659 272 869
f 658 871 870
f 870 871 471
f 869 272 583
f 337 583 272
f 865 873 872
f 231 213 219
f 868 881 302
f 667 869 883
f 563 334 873
f 872 873 334
f 271 312 874
f 564 874 312
f 581 337 470
f 871 302 592
f 519 312 875
f 271 875 312
f 469 864 866
f 665 865 876
f 870 876 865
f 665 226 877
f 666 599 473
f 874 878 864
f 564 226 878
f 668 231 879
f 581 879 219
f 867 876 870
f 866 202 668
f 362 472 880
f 473 880 472
f 669 367 472
f 881 635 31
f 669 472 362
f 473 518 49
f 883 882 474
f 670 882 883
f 519 78 79
f 155 169 884
f 259 430 933
f 254 425 443
f 838 191 655
f 429 840 839
f 438 852 837
f 855 194 921
f 803 117 458
f 742 60 885
f 946 885 627
f 274 313 887
f 887 331 501
f 897 336 476
f 890 313 888
f 274 888 313
f 889 941 211
f 678 889 211
f 678 211 890
f 897 585 336
f 480 479 891
f 674 891 892
f 892 891 477
f 275 328 926
f 580 328 893
f 275 893 328
f 477 890 888
f 892 477 478
f 898 894 275
f 895 286 901
f 681 276 895
f 286 895 276
f 888 274 679
f 898 679 274
f 887 682 481
f 479 476 889
f 893 275 894
f 483 482 897
f 585 897 482
f 476 680 897
f 481 898 274
f 478 926 896
f 896 892 478
f 674 225 598
f 598 225 595
f 457 682 1
f 899 894 363
f 580 893 899
f 585 4 508
f 671 483 900
f 895 900 483
f 4 482 671
f 491 12 901
f 672 901 12
f 900 672 358
f 594 686 224
f 277 289 579
f 279 485 902
f 594 289 903
f 277 903 289
f 279 904 292
f 486 485 905
f 913 907 906
f 522 908 687
f 905 907 486
f 684 205 224
f 522 322 908
f 278 908 322
f 913 487 230
f 278 322 909
f 487 909 548
f 913 230 910
f 596 323 911
f 280 911 323
f 280 323 912
f 542 912 330
f 906 484 913
f 914 277 579
f 280 370 685
f 485 292 684
f 484 909 487
f 904 279 685
f 486 910 911
f 906 686 903
f 280 912 688
f 902 911 280
f 684 905 485
f 683 909 484
f 913 486 907
f 278 914 369
f 683 903 277
f 368 915 57
f 687 917 916
f 917 687 369
f 488 915 368
f 488 368 917
f 916 917 368
f 688 651 370
f 370 918 489
f 542 89 688
f 515 904 489
f 282 495 920
f 490 850 442
f 414 796 413
f 257 287 350
f 582 487 548
f 545 563 877
f 40 59 58
f 461 854 197
f 435 292 288
f 807 253 266
f 194 199 921
f 460 921 199
f 850 490 922
f 499 922 490
f 57 915 39
f 179 610 613
f 682 501 923
f 915 579 495
f 213 471 529
f 923 3 2
f 580 817 492
f 493 281 333
f 597 555 924
f 206 924 555
f 1 234 457
f 925 555 554
f 209 925 554
f 313 565 331
f 439 432 190
f 208 574 538
f 594 497 283
f 579 289 920
f 499 926 284
f 281 493 270
f 461 273 861
f 568 596 910
f 531 568 222
f 927 942 298
f 293 927 298
f 509 225 896
f 294 571 527
f 211 929 565
f 229 532 220
f 88 106 928
f 561 543 929
f 565 929 543
f 546 551 591
f 539 575 930
f 530 930 575
f 506 573 931
f 513 931 573
f 513 927 293
f 320 551 546
f 254 443 933
f 845 933 443
f 492 814 821
f 938 529 934
f 576 593 327
f 172 175 935
f 177 935 175
f 217 936 220
f 455 283 861
f 136 154 937
f 169 937 154
f 299 538 938
f 808 424 431
f 558 304 508
f 570 221 939
f 216 939 221
f 218 531 222
f 940 253 813
f 544 556 941
f 229 941 556
f 335 298 942
f 573 942 927
f 943 318 325
f 309 943 325
f 833 549 928
f 944 325 318
f 315 944 318
f 362 443 635
f 583 541 945
f 33 945 541
f 739 408 249
f 428 795 432
f 527 571 936
f 329 569 582
f 471 592 529
f 427 809 805
f 627 90 946
f 712 946 90
f 887 501 682
f 345 611 628
f 560 535 947
f 825 521 948
f 521 825 547
f 219 213 530
f 288 494 467
f 293 525 949
f 559 949 525
f 205 514 200
f 559 207 947
f 212 230 582
f 952 950 951
f 953 950 952
f 954 950 953
f 955 950 954
f 951 950 955 964 968 974 980 986 992 997 1004 1010 1016 1017 1011 1005 999 993 987 981 975 969 965 956
f 952 951 956
f 953 952 957
f 958 952 956
f 959 952 958
f 957 952 959
f 960 953 957
f 961 953 960
f 954 953 961
f 962 954 961
f 963 954 962
f 967 966 972
f 973 967 972
f 974 967 973
f 968 967 974
f 976 969 975
f 970 969 976
f 971 970 976
f 977 971 976
f 979 972 978
f 973 972 979
f 974 973 979
f 980 974 979
f 976 975 981
f 982 976 981
f 977 976 982
f 983 977 982
f 985 978 984
f 979 978 985
f 986 979 985
f 980 979 986
f 988 981 987
f 982 981 988
f 989 982 988
f 983 982 989
f 985 984 990
f 991 985 990
f 986 985 991
f 992 986 991
f 988 987 993
f 994 988 993
f 995 988 994
f 989 988 995
f 991 990 996
f 992 991 997
f 998 991 996
f 997 991 998
f 1000 993 999
f 994 993 1000
f 995 994 1000
f 1001 995 1000
f 998 996 1002
f 1002 996 1003
f 1002 997 998
f 1004 997 1002
f 1000 999 1005
f 1006 1000 1005
f 1007 1000 1006
f 1001 1000 1007
f 1008 1002 1003
f 1009 1002 1008
f 1010 1002 1009
f 1004 1002 1010
f 1012 1005 1011
f 1006 1005 1012
f 1007 1006 1012
f 1013 1007 1012
f 1015 1008 1014
f 1009 1008 1015
f 1010 1009 1015
f 1016 1010 1015
f 1012 1011 1017
f 1018 1012 1017
f 1013 1012 1018
f 1019 1013 1018
f 1018 1014 1019
f 1015 1014 1018
f 1017 1015 1018
f 1016 1015 1017
f 1022 1020 1021 1024
f 1023 1020 1022 1026
f 1021 1020 1023 1027 1031 1035 1039 1043 1047 1051 1055 1059 1063 1065 1061 1057 1053 1049 1045 1041 1037 1033 1029 1025
f 1024 1021 1025 1028
f 1026 1022 1024 1028 1032 1036 1040 1044 1048 1052 1056 1060 1064 1067 1066 1062 1058 1054 1050 1046 1042 1038 1034 1030
f 1027 1023 1026 1030
f 1028 1025 1029 1032
f 1031 1027 1030 1034
f 1032 1029 1033 1036
f 1035 1031 1034 1038
f 1036 1033 1037 1040
f 1039 1035 1038 1042
f 1040 1037 1041 1044
f 1043 1039 1042 1046
f 1044 1041 1045 1048
f 1047 1043 1046 1050
f 1048 1045 1049 1052
f 1051 1047 1050 1054
f 1052 1049 1053 1056
f 1055 1051 1054 1058
f 1056 1053 1057 1060
f 1059 1055 1058 1062
f 1060 1057 1061 1064
f 1063 1059 1062 1066
f 1064 1061 1065 1067
f 1065 1063 1066 1067
f 1070 1068 1069 1072
f 1071 1068 1070 1074
f 1069 1068 1071 1075 1079 1083 1087 1091 1095 1099 1103 1107 1111 1113 1109 1105 1101 1097 1093 1089 1085 1081 1077 1073
f 1072 1069 1073 1076
f 1074 1070 1072 1076 1080 1084 1088 1092 1096 1100 1104 1108 1112 1115 1114 1110 1106 1102 1098 1094 1090 1086 1082 1078
f 1075 1071 1074 1078
f 1076 1073 1077 1080
f 1079 1075 1078 1082
f 1080 1077 1081 1084
f 1083 1079 1082 1086
f 1084 1081 1085 1088
f 1087 1083 1086 1090
f 1088 1085 1089 1092
f 1091 1087 1090 1094
f 1092 1089 1093 1096
f 1095 1091 1094 1098
f 1096 1093 1097 1100
f 1099 1095 1098 1102
f 1100 1097 1101 1104
f 1103 1099 1102 1106
f 1104 1101 1105 1108
f 1107 1103 1106 1110
f 1108 1105 1109 1112
f 1111 1107 1110 1114
f 1112 1109 1113 1115
f 1113 1111 1114 1115
f 1118 1116 1117 1121 1125 1129 1133 1137 1141 1145 1149 1153 1157 1161 1158 1154 1150 1146 1142 1138 1134 1130 1126 1122
f 1119 1116 1118 1123
f 1117 1116 1119 1120
f 1121 1117 1120 1124
f 1123 1118 1122 1127
f 1120 1119 1123 1127 1131 1135 1139 1143 1147 1151 1155 1159 1162 1163 1160 1156 1152 1148 1144 1140 1136 1132 1128 1124
f 1125 1121 1124 1128
f 1127 1122 1126 1131
f 1129 1125 1128 1132
f 1131 1126 1130 1135
f 1133 1129 1132 1136
f 1135 1130 1134 1139
f 1137 1133 1136 1140
f 1139 1134 1138 1143
f 1141 1137 1140 1144
f 1143 1138 1142 1147
f 1145 1141 1144 1148
f 1147 1142 1146 1151
f 1149 1145 1148 1152
f 1151 1146 1150 1155
f 1153 1149 1152 1156
f 1155 1150 1154 1159
f 1157 1153 1156 1160
f 1159 1154 1158 1162
f 1161 1157 1160 1163
f 1162 1158 1161 1163
f 1166 1164 1165 1169 1173 1177 1181 1185 1189 1193 1197 1201 1205 1209 1206 1202 1198 1194 1190 1186 1182 1178 1174 1170
f 1167 1164 1166 1171
f 1165 1164 1167 1168
f 1169 1165 1168 1172
f 1171 1166 1170 1175
f 1168 1167 1171 1175 1179 1183 1187 1191 1195 1199 1203 1207 1210 1211 1208 1204 1200 1196 1192 1188 1184 1180 1176 1172
f 1173 1169 1172 1176
f 1175 1170 1174 1179
f 1177 1173 1176 1180
f 1179 1174 1178 1183
f 1181 1177 1180 1184
f 1183 1178 1182 1187
f 1185 1181 1184 1188
f 1187 1182 1186 1191
f 1189 1185 1188 1192
f 1191 1186 1190 1195
f 1193 1189 1192 1196
f 1195 1190 1194 1199
f 1197 1193 1196 1200
f 1199 1194 1198 1203
f 1201 1197 1200 1204
f 1203 1198 1202 1207
f 1205 1201 1204 1208
f 1207 1202 1206 1210
f 1209 1205 1208 1211
f 1210 1206 1209 1211
f 1214 1212 1213
f 1215 1212 1214
f 1216 1212 1215 1219 1223 1227 1231 1235 1239 1244 1248 1252 1256 1260 1257 1253 1249 1245 1241 1240 1236 1232 1228 1224 1220
f 1213 1212 1216
f 1217 1213 1216
f 1214 1213 1217 1221 1225 1229 1233 1237 1242 1246 1250 1254 1258 1259 1255 1251 1247 1243 1238 1234 1230 1226 1222 1218
f 1215 1214 1218
f 1219 1215 1218
f 1217 1216 1220
f 1221 1217 1220
f 1219 1218 1222
f 1223 1219 1222
f 1221 1220 1224
f 1225 1221 1224
f 1223 1222 1226
f 1227 1223 1226
f 1225 1224 1228
f 1229 1225 1228
f 1227 1226 1230
f 1231 1227 1230
f 1229 1228 1232
f 1233 1229 1232
f 1231 1230 1234
f 1235 1231 1234
f 1233 1232 1236
f 1237 1233 1236
f 1235 1234 1238
f 1239 1235 1238
f 1237 1236 1240
f 1241 1237 1240
f 1242 1237 1241
f 1239 1238 1243
f 1244 1239 1243
f 1242 1241 1245
f 1246 1242 1245
f 1244 1243 1247
f 1248 1244 1247
f 1246 1245 1249
f 1250 1246 1249
f 1248 1247 1251
f 1252 1248 1251
f 1250 1249 1253
f 1254 1250 1253
f 1252 1251 1255
f 1256 1252 1255
f 1254 1253 1257
f 1258 1254 1257
f 1256 1255 1259
f 1260 1256 1259
f 1258 1257 1260
f 1259 1258 1260
f 1263 1261 1262 1265
f 1264 1261 1263 1267
f 1262 1261 1264 1268 1272 1276 1280 1284 1288 1292 1296 1300 1304 1306 1302 1298 1294 1290 1286 1282 1278 1274 1270 1266
f 1265 1262 1266 1269
f 1267 1263 1265 1269 1273 1277 1281 1285 1289 1293 1297 1301 1305 1308 1307 1303 1299 1295 1291 1287 1283 1279 1275 1271
f 1268 1264 1267 1271
f 1269 1266 1270 1273
f 1272 1268 1271 1275
f 1273 1270 1274 1277
f 1276 1272 1275 1279
f 1277 1274 1278 1281
f 1280 1276 1279 1283
f 1281 1278 1282 1285
f 1284 1280 1283 1287
f 1285 1282 1286 1289
f 1288 1284 1287 1291
f 1289 1286 1290 1293
f 1292 1288 1291 1295
f 1293 1290 1294 1297
f 1296 1292 1295 1299
f 1297 1294 1298 1301
f 1300 1296 1299 1303
f 1301 1298 1302 1305
f 1304 1300 1303 1307
f 1305 1302 1306 1308
f 1306 1304 1307 1308
f 1311 1309 1310 1313
f 1312 1309 1311 1315
f 1310 1309 1312 1316 1320 1324 1328 1332 1336 1340 1344 1348 1352 1354 1350 1346 1342 1338 1334 1330 1326 1322 1318 1314
f 1313 1310 1314 1317
f 1315 1311 1313 1317 1321 1325 1329 1333 1337 1341 1345 1349 1353 1356 1355 1351 1347 1343 1339 1335 1331 1327 1323 1319
f 1316 1312 1315 1319
f 1317 1314 1318 1321
f 1320 1316 1319 1323
f 1321 1318 1322 1325
f 1324 1320 1323 1327
f 1325 1322 1326 1329
f 1328 1324 1327 1331
f 1329 1326 1330 1333
f 1332 1328 1331 1335
f 1333 1330 1334 1337
f 1336 1332 1335 1339
f 1337 1334 1338 1341
f 1340 1336 1339 1343
f 1341 1338 1342 1345
f 1344 1340 1343 1347
f 1345 1342 1346 1349
f 1348 1344 1347 1351
f 1349 1346 1350 1353
f 1352 1348 1351 1355
f 1353 1350 1354 1356
f 1354 1352 1355 1356
f 1359 1357 1358
f 1360 1357 1359 1362
f 1358 1357 1360 1361
f 1359 1358 1361 1362
f 1361 1360 1362
f 1365 1363 1364
f 1366 1363 1365
f 1367 1363 1366 1370 1374 1373 1372
f 1364 1363 1367 1369
f 1365 1364 1368
f 1368 1364 1369 1375
f 1366 1365 1370
f 1371 1365 1368 1375
f 1372 1365 1371
f 1373 1365 1372
f 1374 1365 1373
f 1370 1365 1374
f 1371 1367 1372
f 1369 1367 1371
f 1375 1369 1371
f 1378 1376 1377
f 1379 1376 1378 1383
f 1377 1376 1379 1382
f 1381 1377 1380
f 1378 1377 1381
f 1380 1377 1382
f 1383 1378 1381 1385
f 1382 1379 1383
f 1384 1380 1382
f 1381 1380 1384 1388 1387 1386 1385
f 1385 1382 1383
f 1386 1382 1385
f 1387 1382 1386
f 1388 1382 1387
f 1384 1382 1388
f 1391 1389 1390 1407
f 1392 1389 1391
f 1393 1389 1392
f 1394 1389 1393
f 1395 1389 1394
f 1396 1389 1395
f 1397 1389 1396
f 1398 1389 1397
f 1399 1389 1398
f 1400 1389 1399
f 1401 1389 1400
f 1402 1389 1401
f 1403 1389 1402
f 1390 1389 1403
f 1405 1390 1404
f 1406 1390 1405
f 1407 1390 1406
f 1408 1390 1403
f 1409 1390 1408
f 1410 1390 1409
f 1411 1390 1410
f 1412 1390 1411
f 1413 1390 1412
f 1414 1390 1413
f 1415 1390 1414
f 1416 1390 1415
f 1417 1390 1416
f 1404 1390 1417
f 1418 1391 1407 1432
f 1419 1391 1418 1439
f 1420 1391 1419
f 1421 1391 1420
f 1422 1391 1421
f 1392 1391 1422
f 1393 1392 1422 1423
f 1424 1393 1423
f 1397 1393 1424
f 1394 1393 1397
f 1396 1394 1397
f 1395 1394 1396
f 1398 1397 1424
f 1425 1398 1424
f 1400 1398 1425
f 1399 1398 1400
f 1426 1400 1425
f 1427 1400 1426
f 1401 1400 1427
f 1428 1401 1427
f 1429 1401 1428
f 1402 1401 1429
f 1430 1402 1429
f 1403 1402 1430
f 1408 1403 1430
f 1405 1404 1417 1437 1453 1449 1431 1406
f 1407 1406 1431 1432
f 1433 1408 1430
f 1409 1408 1433
f 1434 1409 1433
f 1411 1409 1434
f 1410 1409 1411
f 1435 1411 1434
f 1416 1411 1435
f 1412 1411 1416
f 1413 1412 1416
f 1414 1413 1416
f 1415 1414 1416
f 1436 1416 1435
f 1417 1416 1436
f 1437 1417 1436 1450
f 1439 1418 1438
f 1438 1418 1432 1448
f 1440 1419 1439 1461 1462
f 1420 1419 1440 1441
f 1421 1420 1441 1442
f 1422 1421 1442 1423
f 1443 1423 1442
f 1424 1423 1443
f 1444 1424 1443
f 1445 1424 1444
f 1425 1424 1445
f 1426 1425 1445
f 1427 1426 1445
f 1428 1427 1445
f 1429 1428 1445
f 1444 1429 1445
f 1446 1429 1444
f 1430 1429 1446
f 1447 1430 1446
f 1436 1430 1447
f 1433 1430 1436
f 1432 1431 1448
f 1448 1431 1449
f 1435 1433 1436
f 1434 1433 1435
f 1444 1436 1447
f 1450 1436 1444 1464
f 1451 1437 1450
f 1452 1437 1451
f 1448 1437 1452
f 1453 1437 1448
f 1455 1438 1454
f 1456 1438 1455
f 1457 1438 1456
f 1458 1438 1457
f 1459 1438 1458
f 1460 1438 1459
f 1461 1438 1460
f 1439 1438 1461
f 1454 1438 1448
f 1443 1440 1462 1463
f 1441 1440 1443
f 1442 1441 1443
f 1444 1443 1463 1464
f 1446 1444 1447
f 1453 1448 1449
f 1465 1448 1452
f 1466 1448 1465
f 1467 1448 1466
f 1468 1448 1467
f 1469 1448 1468
f 1454 1448 1469
f 1470 1450 1464
f 1471 1450 1470
f 1469 1450 1471
f 1472 1450 1469
f 1451 1450 1472
f 1467 1451 1472
f 1466 1451 1467
f 1465 1451 1466
f 1452 1451 1465
f 1470 1454 1469
f 1464 1454 1470
f 1455 1454 1464
f 1473 1455 1464
f 1456 1455 1473
f 1457 1456 1473
f 1458 1457 1473
f 1474 1458 1473
f 1459 1458 1474
f 1460 1459 1474
f 1461 1460 1474
f 1463 1461 1474
f 1475 1461 1463
f 1476 1461 1475
f 1477 1461 1476
f 1462 1461 1477
f 1463 1462 1477
f 1464 1463 1474
f 1476 1463 1477
f 1475 1463 1476
f 1473 1464 1474
f 1468 1467 1472
f 1469 1468 1472
f 1470 1469 1471
